<svg version="1.1" xmlns="http://www.w3.org/2000/svg" viewBox="0 0 6337.0961096396295 2437.4918020327887" width="6337.0961096396295" height="2437.4918020327887" filter="invert(93%) hue-rotate(180deg)">
  <!-- svg-source:excalidraw -->
  
  <defs>
    <style class="style-fonts">
      @font-face {
        font-family: "Virgil";
        src: url("https://excalidraw.com/Virgil.woff2");
      }
      @font-face {
        font-family: "Cascadia";
        src: url("https://excalidraw.com/Cascadia.woff2");
      }
    </style>
  </defs>
  <rect x="0" y="0" width="6337.0961096396295" height="2437.4918020327887" fill="#ffffff"></rect><g stroke-linecap="round" transform="translate(1243.4241673210527 327.5357523926841) rotate(0 234.10531616210938 129.01055145263672)"><path d="M0.49 -0.24 C139.34 0.5, 278.63 -0.83, 467.8 -0.28 M0.21 -0.09 C121.14 -2.04, 243.16 -1.55, 468.56 0.41 M468.97 1.46 C471.3 82.29, 470.11 166.49, 469.77 256.93 M468.56 -0.54 C469.66 82.35, 470.22 164.66, 468.66 257.43 M467.89 257.24 C334.8 258.53, 201.32 258.49, -0.35 257.37 M468.66 258.22 C323.12 256.18, 178.77 256.36, 0.08 257.98 M-0.09 257.35 C2.15 193.96, 2.12 127.92, -0.94 0.06 M-0.18 257.67 C-1.38 168.53, -0.36 78.62, -0.39 0.15" stroke="#000000" stroke-width="1" fill="none"></path></g><g transform="translate(1273.066318199959 403.91996870127787) rotate(0 49 37)"><text x="0" y="17.666666666666668" font-family="Virgil, Segoe UI Emoji" font-size="20px" fill="#000000" text-anchor="start" style="white-space: pre;" direction="ltr">1. Sign in</text><text x="0" y="42.333333333333336" font-family="Virgil, Segoe UI Emoji" font-size="20px" fill="#000000" text-anchor="start" style="white-space: pre;" direction="ltr">2. Sign up</text><text x="0" y="67" font-family="Virgil, Segoe UI Emoji" font-size="20px" fill="#000000" text-anchor="start" style="white-space: pre;" direction="ltr">choice:</text></g><g stroke-linecap="round" transform="translate(1002.9082981804277 626.8093958863365) rotate(0 234.10531616210938 129.01055145263672)"><path d="M0.75 -0.4 C117.1 0.82, 235.13 -0.02, 468.45 -0.65 M0.06 -0.31 C105.55 0.9, 211.51 0.84, 468.38 -0.31 M469.05 0.06 C467.39 63.19, 469.94 127.99, 469.32 257.44 M467.69 0.44 C466.16 90.59, 466.92 180.56, 467.72 257.58 M468.85 258.49 C341.77 259.56, 215.52 260.07, 0.17 257.13 M468.52 258.14 C312.42 258.29, 156.68 257.93, 0.18 258.14 M-0.97 259.05 C1.57 185.37, 0.79 113.45, -0.42 0.67 M-0.29 258.69 C1.06 199.42, 2.19 141.11, -0.56 -0.02" stroke="#000000" stroke-width="1" fill="none"></path></g><g transform="translate(1170.2909886101152 638.88656721202) rotate(0 31 12.5)"><text x="0" y="18" font-family="Virgil, Segoe UI Emoji" font-size="20px" fill="#000000" text-anchor="start" style="white-space: pre;" direction="ltr">Sign in</text></g><g transform="translate(1020.7330357292558 692.1076670655357) rotate(0 47.5 25)"><text x="0" y="17" font-family="Virgil, Segoe UI Emoji" font-size="20px" fill="#000000" text-anchor="start" style="white-space: pre;" direction="ltr">username:</text><text x="0" y="42" font-family="Virgil, Segoe UI Emoji" font-size="20px" fill="#000000" text-anchor="start" style="white-space: pre;" direction="ltr">password:</text></g><g stroke-linecap="round" transform="translate(1522.080264733162 621.628609753524) rotate(0 234.10531616210938 129.01055145263672)"><path d="M-0.45 -0.68 C129.46 -1.93, 261.32 -1.99, 468.78 0.14 M0.18 -0.08 C121.46 -1.01, 243.92 -1.47, 468.12 -0.39 M469.73 0.64 C470 72.29, 468.74 142.62, 467.11 258.72 M468.63 -0.07 C467.69 69.59, 467.78 139.8, 467.9 258.33 M468.46 257.3 C349.02 257.7, 230.54 257.57, -0.41 258.68 M468.27 257.61 C310.52 256.63, 153.43 256.22, 0.33 258.07 M0.3 259.27 C-1 162.23, -2.7 68.57, -0.74 -0.08 M0.27 257.65 C1.21 193.06, 2.55 129.53, 0.79 0.73" stroke="#000000" stroke-width="1" fill="none"></path></g><g transform="translate(1689.4629551628495 633.7057810792076) rotate(0 34.5 12.5)"><text x="0" y="18" font-family="Virgil, Segoe UI Emoji" font-size="20px" fill="#000000" text-anchor="start" style="white-space: pre;" direction="ltr">Sign up</text></g><g transform="translate(1539.9050022819902 686.9268809327232) rotate(0 47.5 37)"><text x="0" y="17.666666666666668" font-family="Virgil, Segoe UI Emoji" font-size="20px" fill="#000000" text-anchor="start" style="white-space: pre;" direction="ltr">email:</text><text x="0" y="42.333333333333336" font-family="Virgil, Segoe UI Emoji" font-size="20px" fill="#000000" text-anchor="start" style="white-space: pre;" direction="ltr">username:</text><text x="0" y="67" font-family="Virgil, Segoe UI Emoji" font-size="20px" fill="#000000" text-anchor="start" style="white-space: pre;" direction="ltr">password:</text></g><g stroke-linecap="round" transform="translate(61.072931195041406 1309.551967023719) rotate(0 234.10531616210938 129.01055145263672)"><path d="M-0.78 -0.19 C124.81 -0.98, 250.72 -0.86, 467.6 -0.19 M0.09 0.31 C179.37 -0.32, 357.94 -0.67, 468.23 -0.4 M467.3 0.1 C467.23 101.45, 466.16 205.31, 468.96 259.29 M467.69 -0.11 C470.34 55.97, 469.26 113.45, 468.81 257.73 M469.11 258.92 C308.03 258.78, 147.35 260.36, 0.71 257.33 M468.2 258.37 C289.21 257.93, 109.78 257.83, 0.23 258.09 M-1.21 257.93 C0.03 203.37, 0.19 145.61, -0.84 -0.16 M0.4 258.74 C-2.2 173.1, -2.23 88.88, -0.61 -0.8" stroke="#000000" stroke-width="1" fill="none"></path></g><g transform="translate(221.47304716183828 1330.8378480661995) rotate(0 40 12.5)"><text x="0" y="18" font-family="Virgil, Segoe UI Emoji" font-size="20px" fill="#000000" text-anchor="start" style="white-space: pre;" direction="ltr">Services</text></g><g transform="translate(77.97829618527578 1371.9326356638558) rotate(0 181.5 49.5)"><text x="0" y="17.75" font-family="Virgil, Segoe UI Emoji" font-size="20px" fill="#000000" text-anchor="start" style="white-space: pre;" direction="ltr">1. Vodafone recharge service</text><text x="0" y="42.5" font-family="Virgil, Segoe UI Emoji" font-size="20px" fill="#000000" text-anchor="start" style="white-space: pre;" direction="ltr">2. Etisalat internet payment service</text><text x="0" y="67.25" font-family="Virgil, Segoe UI Emoji" font-size="20px" fill="#000000" text-anchor="start" style="white-space: pre;" direction="ltr">3. ...</text><text x="0" y="92" font-family="Virgil, Segoe UI Emoji" font-size="20px" fill="#000000" text-anchor="start" style="white-space: pre;" direction="ltr">Choice:</text></g><g stroke-linecap="round" transform="translate(599.9676455505103 1306.604182599891) rotate(0 234.10531616210938 129.01055145263672)"><path d="M-0.89 -0.27 C166.76 1.57, 333.5 1.29, 468.97 -0.29 M0.38 -0.16 C120.06 -1.06, 239.49 -1.31, 468.29 -0.21 M469.5 -1.21 C466.71 59.83, 465.6 122.37, 469.25 256.83 M467.57 -0.65 C469.44 90.41, 469.01 181.24, 468.34 258.15 M468.88 257.66 C304.34 256.09, 139.83 256.25, -0.62 257.95 M468.55 258.11 C281.11 256.26, 94.68 255.89, -0.42 258.33 M0.1 258.52 C2.62 181.34, 1.47 103.73, -0.6 -1.56 M-0.78 257.57 C0.42 192.18, 1.69 127.18, -0.61 0.23" stroke="#000000" stroke-width="1" fill="none"></path></g><g transform="translate(701.7574099548071 1319.8058351267464) rotate(0 71.5 12.5)"><text x="0" y="18" font-family="Virgil, Segoe UI Emoji" font-size="20px" fill="#000000" text-anchor="start" style="white-space: pre;" direction="ltr">Service search</text></g><g transform="translate(616.8730105407446 1368.9848512400276) rotate(0 105.5 12.5)"><text x="0" y="18" font-family="Virgil, Segoe UI Emoji" font-size="20px" fill="#000000" text-anchor="start" style="white-space: pre;" direction="ltr">Search for a service:</text></g><g stroke-linecap="round" transform="translate(345.6172709723761 1652.2831955179172) rotate(0 234.10531616210938 129.01055145263672)"><path d="M0.75 -0.36 C142.17 -0.18, 284.85 -1.6, 468.43 0.86 M-0.08 0.09 C141.21 1.02, 282.75 1.25, 467.96 0.17 M467.97 0.49 C468.61 75.02, 467.67 148.86, 469.15 256.86 M468.59 0.65 C466.72 59.02, 466.31 118.56, 468.74 257.48 M469.04 258.82 C372.53 257.15, 276.61 257.39, -0.42 257.71 M468.37 258.02 C287.73 256.29, 107.82 256.15, 0.12 258.09 M1.2 256.65 C-0.28 161.38, 1.23 63.93, 1.4 0.34 M0.63 258.82 C-0.05 163.42, -0.47 70.78, 0.67 0" stroke="#000000" stroke-width="1" fill="none"></path></g><g transform="translate(432.60680344307934 1665.2533416971164) rotate(0 143 25)"><text x="0" y="17" font-family="Virgil, Segoe UI Emoji" font-size="20px" fill="#000000" text-anchor="start" style="white-space: pre;" direction="ltr">Service provider specific form</text><text x="0" y="42" font-family="Virgil, Segoe UI Emoji" font-size="20px" fill="#000000" text-anchor="start" style="white-space: pre;" direction="ltr">(Vodafone recharge service)</text></g><g transform="translate(371.9752726813605 1733.9691620096164) rotate(0 145 74.5)"><text x="0" y="17.833333333333332" font-family="Virgil, Segoe UI Emoji" font-size="20px" fill="#000000" text-anchor="start" style="white-space: pre;" direction="ltr">Mobile phone (text field):</text><text x="0" y="42.666666666666664" font-family="Virgil, Segoe UI Emoji" font-size="20px" fill="#000000" text-anchor="start" style="white-space: pre;" direction="ltr"></text><text x="0" y="67.5" font-family="Virgil, Segoe UI Emoji" font-size="20px" fill="#000000" text-anchor="start" style="white-space: pre;" direction="ltr">Recharge amount (drop-down):</text><text x="0" y="92.33333333333333" font-family="Virgil, Segoe UI Emoji" font-size="20px" fill="#000000" text-anchor="start" style="white-space: pre;" direction="ltr">1. 10 EGP</text><text x="0" y="117.16666666666666" font-family="Virgil, Segoe UI Emoji" font-size="20px" fill="#000000" text-anchor="start" style="white-space: pre;" direction="ltr">2. 20 EGP</text><text x="0" y="142" font-family="Virgil, Segoe UI Emoji" font-size="20px" fill="#000000" text-anchor="start" style="white-space: pre;" direction="ltr">choice:</text></g><g stroke-linecap="round" transform="translate(345.02773239815735 1952.5391769632297) rotate(0 234.10531616210938 129.01055145263672)"><path d="M-0.01 0.48 C172.26 1.02, 343.76 0.03, 468.82 -0.61 M-0.27 -0.09 C160.45 1.26, 321.7 1.02, 467.77 -0.31 M467.89 -0.05 C468.44 82.99, 468.16 164.24, 467.36 258.66 M467.99 -0.13 C467.02 72.36, 466.72 146.23, 467.84 258.08 M467.35 257.36 C351.16 258.41, 233.86 258.77, 0.28 257.66 M467.85 257.89 C372.72 259.92, 277.42 259.66, 0.16 258.35 M-1.43 257.66 C2.72 155.67, 0.47 52.02, 0.6 0.97 M-0.16 258.81 C2.07 198.6, 2.09 139.75, -0.15 -0.21" stroke="#000000" stroke-width="1" fill="none"></path></g><g transform="translate(520.1858439704231 1963.247879050632) rotate(0 41 12.5)"><text x="0" y="18" font-family="Virgil, Segoe UI Emoji" font-size="20px" fill="#000000" text-anchor="start" style="white-space: pre;" direction="ltr">Payment</text></g><g transform="translate(365.9120707770636 2021.858474753757) rotate(0 162 49.5)"><text x="0" y="17.75" font-family="Virgil, Segoe UI Emoji" font-size="20px" fill="#000000" text-anchor="start" style="white-space: pre;" direction="ltr">1. Credit card</text><text x="0" y="42.5" font-family="Virgil, Segoe UI Emoji" font-size="20px" fill="#000000" text-anchor="start" style="white-space: pre;" direction="ltr">2. Wallet (if enough money)</text><text x="0" y="67.25" font-family="Virgil, Segoe UI Emoji" font-size="20px" fill="#000000" text-anchor="start" style="white-space: pre;" direction="ltr">3. Cash on delivery (if available)</text><text x="0" y="92" font-family="Virgil, Segoe UI Emoji" font-size="20px" fill="#000000" text-anchor="start" style="white-space: pre;" direction="ltr">choice:</text></g><g transform="translate(1454.8118626335527 346.65680799571146) rotate(0 31 12.5)"><text x="0" y="18" font-family="Virgil, Segoe UI Emoji" font-size="20px" fill="#000000" text-anchor="start" style="white-space: pre;" direction="ltr">Guest</text></g><g stroke-linecap="round" transform="translate(1272.414970873105 963.3291954972619) rotate(0 234.10531616210938 129.01055145263672)"><path d="M-0.04 -0.57 C139.56 1.41, 278.36 0.73, 468.53 0.27 M0.06 -0.38 C141.14 1.2, 282.17 1.27, 468.62 -0.26 M468.32 -1.28 C468.46 97.76, 470.73 192.96, 466.85 257.32 M468.09 -0.76 C469.89 69.22, 468.43 139.34, 467.73 258.58 M468.44 258.11 C342.98 258.39, 219.3 257.52, 0.66 257.38 M467.79 258.38 C327.14 258.88, 185.56 258.87, -0.3 258.17 M-0.33 257.94 C-0.39 161.48, -0.5 62.61, -0.26 -1.58 M0.34 257.38 C-1.9 171.82, -1.16 85.86, -0.73 -0.17" stroke="#000000" stroke-width="1" fill="none"></path></g><g transform="translate(1445.8167062344196 969.0236235153088) rotate(0 24 12.5)"><text x="0" y="18" font-family="Virgil, Segoe UI Emoji" font-size="20px" fill="#000000" text-anchor="start" style="white-space: pre;" direction="ltr">Home</text></g><g transform="translate(1288.3026904853525 998.4704976838075) rotate(0 156 99)"><text x="0" y="17.75" font-family="Virgil, Segoe UI Emoji" font-size="20px" fill="#000000" text-anchor="start" style="white-space: pre;" direction="ltr">Wallet: 16 EGP</text><text x="0" y="42.5" font-family="Virgil, Segoe UI Emoji" font-size="20px" fill="#000000" text-anchor="start" style="white-space: pre;" direction="ltr"></text><text x="0" y="67.25" font-family="Virgil, Segoe UI Emoji" font-size="20px" fill="#000000" text-anchor="start" style="white-space: pre;" direction="ltr">1. List all and choose a service</text><text x="0" y="92" font-family="Virgil, Segoe UI Emoji" font-size="20px" fill="#000000" text-anchor="start" style="white-space: pre;" direction="ltr">2. Search for a service</text><text x="0" y="116.75" font-family="Virgil, Segoe UI Emoji" font-size="20px" fill="#000000" text-anchor="start" style="white-space: pre;" direction="ltr">3. Request a refund</text><text x="0" y="141.5" font-family="Virgil, Segoe UI Emoji" font-size="20px" fill="#000000" text-anchor="start" style="white-space: pre;" direction="ltr">4. Add to wallet</text><text x="0" y="166.25" font-family="Virgil, Segoe UI Emoji" font-size="20px" fill="#000000" text-anchor="start" style="white-space: pre;" direction="ltr">5. Check discounts</text><text x="0" y="191" font-family="Virgil, Segoe UI Emoji" font-size="20px" fill="#000000" text-anchor="start" style="white-space: pre;" direction="ltr">choice:</text></g><g transform="translate(1108.5823459405638 10) rotate(0 340 62)"><text x="0" y="17.8" font-family="Virgil, Segoe UI Emoji" font-size="20px" fill="#000000" text-anchor="start" style="white-space: pre;" direction="ltr">Notes:</text><text x="0" y="42.6" font-family="Virgil, Segoe UI Emoji" font-size="20px" fill="#000000" text-anchor="start" style="white-space: pre;" direction="ltr">- Each page can contain choices (drop down) and inputs</text><text x="0" y="67.4" font-family="Virgil, Segoe UI Emoji" font-size="20px" fill="#000000" text-anchor="start" style="white-space: pre;" direction="ltr">- Typing "b#" in either the choice option or the input prompt</text><text x="0" y="92.2" font-family="Virgil, Segoe UI Emoji" font-size="20px" fill="#000000" text-anchor="start" style="white-space: pre;" direction="ltr">will take you back to the previous page (unless it is the first page)</text><text x="0" y="117" font-family="Virgil, Segoe UI Emoji" font-size="20px" fill="#000000" text-anchor="start" style="white-space: pre;" direction="ltr">- Pages, drop-downs, input prompts will probably be something generic</text></g><g stroke-linecap="round"><g transform="translate(11.83353687376632 1292.401083575758) rotate(0 -0.9176473375452474 513.6744635362793)"><path d="M0 -0.85 C-0.38 170.37, -1.11 855.93, -1.3 1027.28 M-1.46 1.32 C-2.01 172.64, -1.8 857.09, -1.78 1028.2" stroke="#000000" stroke-width="1" fill="none"></path></g></g><g stroke-linecap="round"><g transform="translate(1139.9008457851005 1262.8179780382534) rotate(0 -0.7186123543815768 513.9740801511571)"><path d="M-0.49 -0.54 C-0.87 170.7, -2.8 855.94, -2.89 1027.47 M1.45 1.78 C1.52 173.15, -0.1 857.11, -0.54 1028.49" stroke="#000000" stroke-width="1" fill="none"></path></g></g><g stroke-linecap="round"><g transform="translate(1242.471146329807 1256.7170002289968) rotate(0 -1.0084838811125678 515.2191830776173)"><path d="M-0.55 1.02 C-1.25 172.38, -3.03 857.31, -3.39 1028.41 M1.37 0.51 C0.94 172.04, -0.45 858.59, -1.3 1029.92" stroke="#000000" stroke-width="1" fill="none"></path></g></g><g stroke-linecap="round" transform="translate(1280.157504240116 1274.2488548227093) rotate(0 234.10531616210938 129.01055145263672)"><path d="M-0.87 0.53 C112.3 1.2, 224.29 2.57, 467.97 -0.78 M0.02 -0.39 C105.72 -0.52, 211.1 -0.2, 468.63 -0.31 M468.84 0.81 C466.39 66.43, 468.28 130.03, 466.78 258.31 M467.45 -0.19 C466.07 89.13, 465.6 176.49, 468.99 257.86 M467.9 257.99 C320.57 256.74, 173.38 256.88, -0.29 258.78 M468.61 258.26 C365.61 258.21, 262.57 258.27, -0.38 258.45 M-1.27 259.24 C-0.14 183.11, -0.97 107.55, -1.38 1.54 M-0.75 258.71 C1.06 175.8, 0.21 93.89, -0.02 0.28" stroke="#000000" stroke-width="1" fill="none"></path></g><g transform="translate(1433.3195095208443 1296.8240169498895) rotate(0 76.5 12.5)"><text x="0" y="18" font-family="Virgil, Segoe UI Emoji" font-size="20px" fill="#000000" text-anchor="start" style="white-space: pre;" direction="ltr">Refund request</text></g><g transform="translate(1306.8287754098587 1340.356537010377) rotate(0 200 37)"><text x="0" y="17.666666666666668" font-family="Virgil, Segoe UI Emoji" font-size="20px" fill="#000000" text-anchor="start" style="white-space: pre;" direction="ltr">1. ID: xxxx, to: Vodafone sth, date: xxx</text><text x="0" y="42.333333333333336" font-family="Virgil, Segoe UI Emoji" font-size="20px" fill="#000000" text-anchor="start" style="white-space: pre;" direction="ltr">2. ...</text><text x="0" y="67" font-family="Virgil, Segoe UI Emoji" font-size="20px" fill="#000000" text-anchor="start" style="white-space: pre;" direction="ltr">choice:</text></g><g stroke-linecap="round" transform="translate(1288.681356143241 1612.6866181594114) rotate(0 234.10531616210938 129.01055145263672)"><path d="M0.9 0.89 C152.06 -0.67, 305.08 -2.3, 468.06 0.06 M0.1 -0.15 C122.56 -1.77, 245.51 -1.38, 468.62 -0.17 M467.53 -1.58 C464.82 92.6, 465.78 181.47, 469.63 259.47 M468.48 0.14 C469.97 99.73, 469.48 199.23, 467.92 258.25 M467.8 257.38 C361.2 259.14, 255.13 258.38, 0.17 257.81 M467.89 257.69 C331.72 257.16, 195 257.29, -0.21 257.69 M1.27 258.23 C-0.44 164.29, 0.5 70.65, 0.35 1.18 M-0.05 258.38 C-1.21 165.06, -1.08 70.54, 0.1 -0.39" stroke="#000000" stroke-width="1" fill="none"></path></g><g transform="translate(1442.5365762217425 1634.8640310413448) rotate(0 63.5 12.5)"><text x="0" y="18" font-family="Virgil, Segoe UI Emoji" font-size="20px" fill="#000000" text-anchor="start" style="white-space: pre;" direction="ltr">After refund</text></g><g transform="translate(1313.5816571702308 1684.7856169482639) rotate(0 190 25)"><text x="0" y="17" font-family="Virgil, Segoe UI Emoji" font-size="20px" fill="#000000" text-anchor="start" style="white-space: pre;" direction="ltr">Your refund is awaiting admin approval</text><text x="0" y="42" font-family="Virgil, Segoe UI Emoji" font-size="20px" fill="#000000" text-anchor="start" style="white-space: pre;" direction="ltr">choice: (go back is the only option)</text></g><g stroke-linecap="round"><g transform="translate(1825.0961998847306 1246.5011449144095) rotate(0 -1.2721294704083448 514.7460829344259)"><path d="M-1 0.6 C-1.65 172.17, -3.14 858.32, -3.22 1029.63 M0.67 -0.13 C0.33 171.12, -0.62 856.47, -1.04 1028.12" stroke="#000000" stroke-width="1" fill="none"></path></g></g><g transform="translate(678.8118563691459 1608.1146104682457) rotate(0 212.5 12.5)"><text x="0" y="18" font-family="Virgil, Segoe UI Emoji" font-size="20px" fill="#000000" text-anchor="start" style="white-space: pre;" direction="ltr">Search result limits the options in services</text></g><g stroke-linecap="round"><g transform="translate(667.9840097420125 1607.687081326566) rotate(0 -85.47657827447398 -18.20326568333303)"><path d="M-0.02 -0.39 C-28.23 -6.53, -141.47 -30.06, -169.85 -36.02 M-1.48 -1.63 C-29.83 -7.64, -143.21 -28.89, -170.94 -34.44" stroke="#000000" stroke-width="1" fill="none"></path></g><g transform="translate(667.9840097420125 1607.687081326566) rotate(0 -85.47657827447398 -18.20326568333303)"><path d="M-141.95 -39.6 C-148.66 -39.2, -156.44 -37.01, -170.67 -33.08 M-140.76 -39.08 C-149.68 -38.52, -155.65 -36.12, -171.22 -33.74" stroke="#000000" stroke-width="1" fill="none"></path></g><g transform="translate(667.9840097420125 1607.687081326566) rotate(0 -85.47657827447398 -18.20326568333303)"><path d="M-145.85 -19.45 C-151.7 -24.17, -158.49 -27.1, -170.67 -33.08 M-144.65 -18.93 C-152.41 -23.55, -157.39 -26.3, -171.22 -33.74" stroke="#000000" stroke-width="1" fill="none"></path></g></g><g stroke-linecap="round"><g transform="translate(3910.0927617478983 989.8491292637727) rotate(182.0003780306908 -1235.3382742854221 -37.406078280309885)"><path d="M0.13 -0.79 C-88.42 -13.31, -119.68 -72.3, -531.48 -76.02 C-943.27 -79.75, -2147.42 -31.74, -2470.64 -23.13 M-1.26 1.41 C-89.44 -10.85, -117.8 -70.22, -529.39 -74.62 C-940.98 -79.02, -2147.36 -33.52, -2470.8 -24.99" stroke="#000000" stroke-width="1" fill="none"></path></g><g transform="translate(3910.0927617478983 989.8491292637727) rotate(182.0003780306908 -1235.3382742854221 -37.406078280309885)"><path d="M-2444.26 -38.13 C-2451.34 -31.04, -2457.22 -28.17, -2471.37 -23.77 M-2442.58 -35.32 C-2451.71 -32.39, -2462.24 -28.74, -2471.7 -25.99" stroke="#000000" stroke-width="1" fill="none"></path></g><g transform="translate(3910.0927617478983 989.8491292637727) rotate(182.0003780306908 -1235.3382742854221 -37.406078280309885)"><path d="M-2443.61 -17.62 C-2450.72 -16.32, -2456.79 -19.24, -2471.37 -23.77 M-2441.93 -14.8 C-2451.35 -19.04, -2462.09 -22.56, -2471.7 -25.99" stroke="#000000" stroke-width="1" fill="none"></path></g></g><g stroke-linecap="round"><g transform="translate(1914.5199006003031 1248.9761706404324) rotate(0 -0.0315162335759851 513.5476380727732)"><path d="M-0.47 -0.37 C-0.55 170.85, -0.67 856.09, -1.15 1027.61 M1.48 -1.61 C1.39 169.71, -1.12 856.73, -1.54 1028.71" stroke="#000000" stroke-width="1" fill="none"></path></g></g><g stroke-linecap="round" transform="translate(1958.130873559087 1250.4594168571539) rotate(0 234.10531616210938 129.01055145263672)"><path d="M0.29 0.73 C130.61 1.28, 260 1.74, 469.11 0.09 M-0.35 0.37 C155.88 -1.03, 312.87 -1.13, 468.53 0.29 M469.49 -0.83 C466.58 56.78, 466.02 113.7, 469.39 258.85 M468.07 0.1 C465.94 84.27, 466.35 166.77, 468.97 257.39 M467.73 257.39 C286.45 258.03, 103.74 256.88, 0.35 257.27 M468.51 258.46 C330.46 256.85, 193.18 256.2, 0.25 257.98 M1.23 257.56 C-0.52 194.73, 1.22 132.51, -0.94 -0.52 M-0.43 258.32 C-0.96 180.54, -0.82 105.03, -0.39 -0.12" stroke="#000000" stroke-width="1" fill="none"></path></g><g stroke-linecap="round" transform="translate(3960.0462880279665 906.4779423010332) rotate(0 234.10531616210938 129.01055145263672)"><path d="M-0.62 -0.81 C107.66 1.03, 215.47 1.48, 467.56 -0.45 M0.15 0.19 C153.33 -0.57, 306.8 -0.9, 468.34 0.11 M468.07 1.5 C466.58 75.65, 465.51 152.01, 469.73 256.88 M467.7 -0.8 C468.97 75.33, 467.99 151.1, 468.19 257.7 M467.85 257.32 C296.65 257.39, 125.47 257.85, -0.51 257.17 M467.87 257.6 C349.05 257.72, 230.44 257.7, 0.29 258.14 M1.42 257.38 C-0.89 174.81, -2.05 87.49, -0.65 1.11 M0.11 258.07 C-0.29 166.68, -0.52 75.45, 0.78 0.4" stroke="#000000" stroke-width="1" fill="none"></path></g><g stroke-linecap="round" transform="translate(5853.361724657416 1234.4739466998744) rotate(0 234.10531616210938 129.01055145263672)"><path d="M0.5 -0.88 C183.18 0.01, 366.85 0.69, 468.26 -0.03 M-0.37 -0.29 C103.66 0.55, 207.24 0.45, 467.77 -0.2 M469.15 -0.9 C468.85 68.68, 468.23 133.15, 467.18 257.94 M467.55 0.42 C467.34 60.8, 467.49 121.39, 467.47 257.91 M468.5 258.75 C335.25 255.63, 199.81 256.84, -0.74 258.35 M468.33 257.92 C281.63 257.12, 95.19 257.3, -0.13 258.13 M0.28 257.49 C2.54 161.8, 0.53 66.16, 0.39 1.37 M0.04 257.87 C-0.65 204.24, -0.87 149.31, -0.47 -0.65" stroke="#000000" stroke-width="1" fill="none"></path></g><g stroke-linecap="round" transform="translate(5855.574185630784 1572.8535097616414) rotate(0 234.10531616210938 166.65091756583388)"><path d="M-0.29 0.74 C125.17 -1.46, 252.29 -0.32, 467.52 0.53 M-0.43 -0.36 C100.71 0.51, 201.43 0.75, 467.96 -0.42 M467.94 -1.2 C469.4 121.3, 470.37 242.37, 468.93 333.27 M468.42 0.31 C468.29 89.25, 468.16 179.27, 467.61 332.82 M469.02 333.4 C368.17 335, 267.15 334.36, 0.8 333.18 M467.85 333.3 C374.52 335.33, 279.9 334.93, -0.42 333.51 M-0.38 334.32 C-0.7 203.73, -1.61 75.73, -0.47 -1.07 M-0.35 333.35 C-2.72 238.02, -1.69 143.48, -0.46 -0.05" stroke="#000000" stroke-width="1" fill="none"></path></g><g stroke-linecap="round" transform="translate(5226.455079032281 1242.2616095079939) rotate(0 234.10531616210938 129.01055145263672)"><path d="M-0.31 -0.25 C167.65 -0.26, 334.45 0.13, 467.91 -0.72 M0.4 -0.05 C150.08 0.19, 299.57 -0.1, 468.49 -0.26 M466.89 -0.28 C468.99 102.05, 468.56 203.44, 467.21 257.54 M468.09 0.1 C468.92 59.63, 469.48 118.38, 467.82 258.8 M467.34 257.94 C366.5 255.63, 265.09 256.27, -0.46 258.58 M468.62 258.12 C282.32 257.97, 95.46 258.2, 0.03 257.8 M1.46 257.44 C-0.23 206.13, -0.37 152.28, 0.85 -0.95 M0.61 257.87 C-1.4 181.41, -1.87 105.58, 0.76 0.04" stroke="#000000" stroke-width="1" fill="none"></path></g><g stroke-linecap="round" transform="translate(5227.369517809353 1576.7473535438494) rotate(0 234.10531616210938 129.01055145263672)"><path d="M0.46 -0.58 C132.86 -1.04, 266.53 -0.18, 468.66 -0.54 M0.19 0.32 C134.79 -0.46, 269.54 -0.41, 468.63 -0.42 M467.41 1.37 C467.45 75.29, 467.01 149.75, 468.98 256.45 M467.53 -0.26 C466.7 52.46, 465.77 104.64, 467.8 257.57 M467.72 258.22 C370.74 256.21, 273.81 256.55, -0.25 258.84 M468.52 258.32 C340.94 256.95, 214.25 257.13, 0.45 258.38 M-0.29 258.59 C1.34 198.77, 1.16 139.94, -0.51 -1.13 M0.56 258.75 C-1.29 155.56, -0.92 54.09, 0.21 -0.1" stroke="#000000" stroke-width="1" fill="none"></path></g><g stroke-linecap="round" transform="translate(4593.058916576809 1247.453425973904) rotate(0 234.10531616210915 129.01055145263672)"><path d="M0.52 -0.33 C125.11 -0.96, 249.46 -0.24, 468.41 0.6 M-0.15 0.33 C136.42 2.43, 272.83 1.7, 468.43 0.4 M467.81 0.69 C467.34 90.96, 465.89 183.65, 469.64 257.93 M467.47 -0.02 C468.21 58.45, 467.16 116.28, 468.56 257.39 M468.38 257.37 C312.26 257.67, 158.03 258.73, 0.4 257.87 M468.24 257.67 C347.21 258.98, 226.46 259.08, -0.33 257.95 M1.46 256.44 C-1.45 160.82, -2.61 63.76, 1.53 -0.82 M-0.6 257.45 C0.09 194.42, 0.31 131.15, -0.22 0.11" stroke="#000000" stroke-width="1" fill="none"></path></g><g stroke-linecap="round" transform="translate(4601.7608943805135 1567.6617675646248) rotate(0 234.10531616210938 129.01055145263672)"><path d="M-0.55 -0.44 C113.59 1.48, 229.02 1.74, 468.87 0.6 M0.04 -0.35 C106.27 -0.12, 211.82 -0.29, 467.86 -0.02 M467.83 1.06 C467.03 55.83, 468.57 107.19, 466.69 258.2 M467.49 -0.76 C466.42 72.06, 466.63 145.41, 467.85 258.26 M468.42 258.76 C332.49 258.46, 194.79 257.42, 0.01 258.06 M468.19 258.23 C357.06 256.23, 245.35 256.41, -0.33 257.94 M0.35 257.1 C-2.04 192.61, -1.3 128.04, 1.4 1.08 M0.08 258.66 C-0.81 172.31, -0.6 84.64, 0.74 0.2" stroke="#000000" stroke-width="1" fill="none"></path></g><g stroke-linecap="round" transform="translate(3960.9607268050386 1250.0492723161142) rotate(0 234.10531616210938 129.01055145263672)"><path d="M0.74 -0.77 C93.8 0.11, 188.58 0.2, 469.11 -0.49 M0.14 0.07 C136.22 0.94, 272.3 0.85, 467.89 -0.11 M467.08 0.01 C467.86 76.38, 468.31 149.36, 469.35 258.57 M467.95 -0.1 C467.26 66.43, 466.98 131.08, 468.23 258.43 M468.49 258.92 C338.6 257.67, 208.58 258.36, -0.87 257.26 M468.27 257.78 C349.8 257.86, 230.46 257.74, 0.21 257.93 M0.98 256.5 C-0.92 174.04, -0.49 89.72, -1.05 1.39 M-0.49 257.33 C-0.1 164.85, -0.1 71.76, 0.52 0.74" stroke="#000000" stroke-width="1" fill="none"></path></g><g stroke-linecap="round" transform="translate(3965.768935095427 1572.8535592742364) rotate(0 234.10531616210938 129.01055145263672)"><path d="M0.77 -0.63 C102.45 -0.49, 204.82 0.16, 468.79 -0.21 M-0.19 0.21 C169.46 0.81, 339.68 0.61, 468.03 0.42 M466.83 -0.05 C466.52 94.76, 465.68 188.96, 467.22 256.79 M468.91 0.8 C465.82 57.22, 466.72 113.12, 467.53 258.18 M467.72 258.76 C319.63 255.52, 171.71 256.71, 0.86 257.92 M468.53 258.41 C316.3 259.47, 164.46 258.83, -0.33 258.38 M-0.92 259.09 C2.47 203.81, 2 146.75, 0.42 1.05 M-0.03 258.02 C1.36 182.73, 1.08 106.16, 0.56 -0.48" stroke="#000000" stroke-width="1" fill="none"></path></g><g stroke-linecap="round" transform="translate(3966.6833738724995 1903.4454842841815) rotate(0 234.10531616210938 206.2381684356892)"><path d="M-0.28 0.82 C170.76 1.63, 340.72 0.48, 468.72 0.46 M0.09 0 C104.16 1.35, 209.57 0.94, 468.17 0.17 M467.56 0.18 C465.68 165.8, 465.59 329.12, 468.27 411.68 M467.83 0.3 C467.29 126, 466.99 252.58, 468.45 413.01 M468.64 412.3 C329.79 410.74, 190.49 410.36, 0.1 413.24 M468.2 412.26 C333.12 412.18, 198.42 412.83, -0.31 412.82 M0.46 412.24 C-1.87 318.95, -0.91 224.16, 0.36 -0.3 M0.24 412.94 C0.56 281.99, 0.83 151.54, -0.24 0.16" stroke="#000000" stroke-width="1" fill="none"></path></g><g transform="translate(2065.6878413687878 1280.977545324692) rotate(0 109 12.5)"><text x="0" y="18" font-family="Virgil, Segoe UI Emoji" font-size="20px" fill="#000000" text-anchor="start" style="white-space: pre;" direction="ltr">Add amount to wallet</text></g><g transform="translate(1979.7575871090985 1327.247582423719) rotate(0 58 25)"><text x="0" y="17" font-family="Virgil, Segoe UI Emoji" font-size="20px" fill="#000000" text-anchor="start" style="white-space: pre;" direction="ltr">credit card:</text><text x="0" y="42" font-family="Virgil, Segoe UI Emoji" font-size="20px" fill="#000000" text-anchor="start" style="white-space: pre;" direction="ltr">amount:</text></g><g stroke-linecap="round" transform="translate(1962.3050291468226 1594.6498405033335) rotate(0 234.10531616210938 129.01055145263672)"><path d="M0.33 0.3 C143 -1.7, 285.73 -2.72, 467.89 -0.33 M0.35 -0.13 C171.23 -0.73, 341.86 -0.48, 468.38 0.2 M469.57 0.57 C467.13 56.19, 469.82 114.65, 468.93 258.27 M468.06 0.76 C466.22 53.3, 467.57 105.14, 467.68 258.49 M468.96 258.84 C346.84 258.13, 224.36 258.37, -0.88 258.26 M468.55 257.61 C331.73 259.16, 195.07 258.84, 0.14 258.37 M0.06 259.07 C1.24 202.12, 0.22 144.36, -1.44 -0.33 M-0.36 258.4 C-0.73 204.06, -1.12 148.2, 0.39 0.29" stroke="#000000" stroke-width="1" fill="none"></path></g><g transform="translate(2124.3198506903586 1608.2986503021539) rotate(0 51 12.5)"><text x="0" y="18" font-family="Virgil, Segoe UI Emoji" font-size="20px" fill="#000000" text-anchor="start" style="white-space: pre;" direction="ltr">After add</text></g><g transform="translate(1980.0014230312627 1668.8903798094552) rotate(0 203.5 25)"><text x="0" y="17" font-family="Virgil, Segoe UI Emoji" font-size="20px" fill="#000000" text-anchor="start" style="white-space: pre;" direction="ltr">The amount has been added successfully</text><text x="0" y="42" font-family="Virgil, Segoe UI Emoji" font-size="20px" fill="#000000" text-anchor="start" style="white-space: pre;" direction="ltr">choice: (go back is the only option)</text></g><g stroke-linecap="round"><g transform="translate(2490.1903407501522 1234.0796650697648) rotate(0 -1.1421753908697383 514.0090123814257)"><path d="M0.43 0.28 C-0.03 171.56, -1.39 856.33, -1.92 1027.57 M-0.8 -0.63 C-1.47 170.8, -2.22 857.1, -2.72 1028.64" stroke="#000000" stroke-width="1" fill="none"></path></g></g><g stroke-linecap="round"><g transform="translate(888.8793380210487 1572.8722745129653) rotate(0 -0.5252031845890812 15.651394390925361)"><path d="M-0.07 1.01 C0.18 6.22, 0.46 25.98, 0.52 30.81 M-1.57 0.5 C-1.37 5.45, -0.48 24.74, -0.31 29.3" stroke="#000000" stroke-width="1" fill="none"></path></g><g transform="translate(888.8793380210487 1572.8722745129653) rotate(0 -0.5252031845890812 15.651394390925361)"><path d="M-4.72 15.9 C-3.34 18.58, -3.1 20.64, 0.46 29.38 M-5.25 15.53 C-4.11 20.1, -2.11 23.32, -0.54 29.2" stroke="#000000" stroke-width="1" fill="none"></path></g><g transform="translate(888.8793380210487 1572.8722745129653) rotate(0 -0.5252031845890812 15.651394390925361)"><path d="M5.41 15.47 C4.58 18.24, 2.61 20.39, 0.46 29.38 M4.88 15.09 C2.96 19.72, 1.91 23.07, -0.54 29.2" stroke="#000000" stroke-width="1" fill="none"></path></g></g><g stroke-linecap="round"><g transform="translate(2596.536158919037 1227.7550189031363) rotate(0 -1.3710093498234528 514.3809292207479)"><path d="M-1.09 -0.62 C-1.75 170.85, -2.92 858.04, -3.28 1029.38 M0.53 1.67 C0.18 172.76, -0.9 856.65, -1.13 1027.75" stroke="#000000" stroke-width="1" fill="none"></path></g></g><g stroke-linecap="round" transform="translate(2640.147131877821 1229.2382651198577) rotate(0 234.10531616210938 129.01055145263672)"><path d="M-0.81 0.7 C161.83 0.34, 325.83 1.09, 467.93 0.42 M0.01 0.06 C164.95 1.31, 329.41 0.92, 468.29 0.2 M469.61 1.42 C467.35 56.53, 467.47 116.52, 469.48 256.89 M468.58 0.2 C469.18 71.89, 468.93 144.2, 468.66 257.96 M468.98 258.14 C363.29 258.65, 258.35 260.07, -0.09 258.4 M468.05 257.72 C353.45 258.57, 238.75 259.03, 0.05 257.8 M1.19 257.77 C-2.29 166.35, -3.01 74.45, 1.58 0.1 M0.33 258.12 C0.4 172.37, 0.09 85.89, 0.56 -0.54" stroke="#000000" stroke-width="1" fill="none"></path></g><g transform="translate(2747.7040996875216 1259.756393587396) rotate(0 48.5 12.5)"><text x="0" y="18" font-family="Virgil, Segoe UI Emoji" font-size="20px" fill="#000000" text-anchor="start" style="white-space: pre;" direction="ltr">Discounts</text></g><g transform="translate(2661.7738454278324 1306.0264306864237) rotate(0 194.5 49.5)"><text x="0" y="17.75" font-family="Virgil, Segoe UI Emoji" font-size="20px" fill="#000000" text-anchor="start" style="white-space: pre;" direction="ltr">1. 10% discount for your first purchase</text><text x="0" y="42.5" font-family="Virgil, Segoe UI Emoji" font-size="20px" fill="#000000" text-anchor="start" style="white-space: pre;" direction="ltr">2. 20% discount for mobile recharge</text><text x="0" y="67.25" font-family="Virgil, Segoe UI Emoji" font-size="20px" fill="#000000" text-anchor="start" style="white-space: pre;" direction="ltr">services</text><text x="0" y="92" font-family="Virgil, Segoe UI Emoji" font-size="20px" fill="#000000" text-anchor="start" style="white-space: pre;" direction="ltr">choice: (only option is to go back)</text></g><g stroke-linecap="round"><g transform="translate(3172.206599068886 1212.8585133324677) rotate(0 -1.150856629571308 513.7336169502569)"><path d="M0 -0.37 C-0.11 171.01, -1.45 857.73, -1.64 1029.08 M-1.46 -1.61 C-1.59 169.35, -2.32 855.57, -2.3 1027.28" stroke="#000000" stroke-width="1" fill="none"></path></g></g><g stroke-linecap="round"><g transform="translate(3894.777263264068 1180.026305997063) rotate(0 -0.9363665800406125 513.8886414083663)"><path d="M-1.16 -1.02 C-1.31 170.39, -1.55 857.28, -1.64 1028.8 M0.42 1.06 C0.24 172.06, -1.86 855.49, -2.3 1026.86" stroke="#000000" stroke-width="1" fill="none"></path></g></g><g stroke-linecap="round"><g transform="translate(4505.724999853739 1170.5571613549118) rotate(0 -0.5372763894408763 515.1824851311471)"><path d="M1.11 1.01 C1.02 172.23, -1.02 857.03, -1.56 1028.37 M0.23 0.5 C0.13 172.44, -1.66 858.77, -2.18 1029.86" stroke="#000000" stroke-width="1" fill="none"></path></g></g><g stroke-linecap="round"><g transform="translate(5145.2273432833 1157.1941729305508) rotate(0 -1.6221463084875722 514.3278464290324)"><path d="M0.71 -0.78 C0.35 170.94, -2.26 857.96, -2.73 1029.43 M-0.37 1.43 C-0.89 172.9, -3.55 856.54, -3.96 1027.82" stroke="#000000" stroke-width="1" fill="none"></path></g></g><g stroke-linecap="round"><g transform="translate(5775.644026464742 1130.851779501054) rotate(0 -1.0190776433755673 514.1305763743594)"><path d="M1.14 0.01 C0.71 171.69, -2.76 857.87, -3.18 1029.29 M0.28 -1.03 C0.26 170.38, -0.65 855.78, -0.99 1027.61" stroke="#000000" stroke-width="1" fill="none"></path></g></g><g transform="translate(4041.2208982043194 929.3119164982554) rotate(0 24 12.5)"><text x="0" y="18" font-family="Virgil, Segoe UI Emoji" font-size="20px" fill="#000000" text-anchor="start" style="white-space: pre;" direction="ltr">Home</text></g><g transform="translate(5297.246105789411 1270.2874001711261) rotate(0 115.5 12.5)"><text x="0" y="18" font-family="Virgil, Segoe UI Emoji" font-size="20px" fill="#000000" text-anchor="start" style="white-space: pre;" direction="ltr">List user Transactions</text></g><g transform="translate(5906.895721157595 1259.520332357869) rotate(0 84.5 12.5)"><text x="0" y="18" font-family="Virgil, Segoe UI Emoji" font-size="20px" fill="#000000" text-anchor="start" style="white-space: pre;" direction="ltr">Refund Requests</text></g><g transform="translate(5903.916291396161 1595.3039995648296) rotate(0 79.5 12.5)"><text x="0" y="18" font-family="Virgil, Segoe UI Emoji" font-size="20px" fill="#000000" text-anchor="start" style="white-space: pre;" direction="ltr">Request details</text></g><g transform="translate(5300.756390908693 1595.6875582277562) rotate(0 65.5 12.5)"><text x="0" y="18" font-family="Virgil, Segoe UI Emoji" font-size="20px" fill="#000000" text-anchor="start" style="white-space: pre;" direction="ltr">Transactions</text></g><g transform="translate(4654.7643821110105 1271.5853728548263) rotate(0 80.5 12.5)"><text x="0" y="18" font-family="Virgil, Segoe UI Emoji" font-size="20px" fill="#000000" text-anchor="start" style="white-space: pre;" direction="ltr">Add a discount </text></g><g transform="translate(4659.572590401398 1594.3896103003526) rotate(0 75.5 12.5)"><text x="0" y="18" font-family="Virgil, Segoe UI Emoji" font-size="20px" fill="#000000" text-anchor="start" style="white-space: pre;" direction="ltr">Add a discount</text></g><g transform="translate(4016.1763784333325 1272.8832836477832) rotate(0 114.5 12.5)"><text x="0" y="18" font-family="Virgil, Segoe UI Emoji" font-size="20px" fill="#000000" text-anchor="start" style="white-space: pre;" direction="ltr">Set up service provider</text></g><g transform="translate(4019.6866635526153 1598.2834417044132) rotate(0 86 12.5)"><text x="0" y="18" font-family="Virgil, Segoe UI Emoji" font-size="20px" fill="#000000" text-anchor="start" style="white-space: pre;" direction="ltr">Set up Discounts</text></g><g transform="translate(4033.5804330659316 1939.2589006209864) rotate(0 88 12.5)"><text x="0" y="18" font-family="Virgil, Segoe UI Emoji" font-size="20px" fill="#000000" text-anchor="start" style="white-space: pre;" direction="ltr">Set up User Form</text></g><g transform="translate(3983.6540208227166 989.0779668439973) rotate(0 127 62)"><text x="0" y="17.8" font-family="Virgil, Segoe UI Emoji" font-size="20px" fill="#000000" text-anchor="start" style="white-space: pre;" direction="ltr">1. Add a service provider</text><text x="0" y="42.6" font-family="Virgil, Segoe UI Emoji" font-size="20px" fill="#000000" text-anchor="start" style="white-space: pre;" direction="ltr">2. Add a discount</text><text x="0" y="67.4" font-family="Virgil, Segoe UI Emoji" font-size="20px" fill="#000000" text-anchor="start" style="white-space: pre;" direction="ltr">3. List user transcations</text><text x="0" y="92.2" font-family="Virgil, Segoe UI Emoji" font-size="20px" fill="#000000" text-anchor="start" style="white-space: pre;" direction="ltr">4. View refund requests</text><text x="0" y="117" font-family="Virgil, Segoe UI Emoji" font-size="20px" fill="#000000" text-anchor="start" style="white-space: pre;" direction="ltr">choice: </text></g><g transform="translate(5266.936209152162 1323.5637356361503) rotate(0 201.5 37)"><text x="0" y="17.666666666666668" font-family="Virgil, Segoe UI Emoji" font-size="20px" fill="#000000" text-anchor="start" style="white-space: pre;" direction="ltr">1. enter transaction type </text><text x="0" y="42.333333333333336" font-family="Virgil, Segoe UI Emoji" font-size="20px" fill="#000000" text-anchor="start" style="white-space: pre;" direction="ltr">choice : (add to wallet/payment/refunds)</text><text x="0" y="67" font-family="Virgil, Segoe UI Emoji" font-size="20px" fill="#000000" text-anchor="start" style="white-space: pre;" direction="ltr"></text></g><g transform="translate(5879.181670862557 1308.9028487969817) rotate(0 156 62)"><text x="0" y="17.8" font-family="Virgil, Segoe UI Emoji" font-size="20px" fill="#000000" text-anchor="start" style="white-space: pre;" direction="ltr">// refund requests in a list //</text><text x="0" y="42.6" font-family="Virgil, Segoe UI Emoji" font-size="20px" fill="#000000" text-anchor="start" style="white-space: pre;" direction="ltr">1. enter the transaction to be </text><text x="0" y="67.4" font-family="Virgil, Segoe UI Emoji" font-size="20px" fill="#000000" text-anchor="start" style="white-space: pre;" direction="ltr">reviewed</text><text x="0" y="92.2" font-family="Virgil, Segoe UI Emoji" font-size="20px" fill="#000000" text-anchor="start" style="white-space: pre;" direction="ltr">choice : (transaction number)</text><text x="0" y="117" font-family="Virgil, Segoe UI Emoji" font-size="20px" fill="#000000" text-anchor="start" style="white-space: pre;" direction="ltr"></text></g><g transform="translate(5880.0961096396295 1638.1968011232266) rotate(0 223.5 136.5)"><text x="0" y="17.818181818181817" font-family="Virgil, Segoe UI Emoji" font-size="20px" fill="#000000" text-anchor="start" style="white-space: pre;" direction="ltr">// refund request details //</text><text x="0" y="42.63636363636363" font-family="Virgil, Segoe UI Emoji" font-size="20px" fill="#000000" text-anchor="start" style="white-space: pre;" direction="ltr">1. enter review desicsion (enter y to </text><text x="0" y="67.45454545454545" font-family="Virgil, Segoe UI Emoji" font-size="20px" fill="#000000" text-anchor="start" style="white-space: pre;" direction="ltr">accept / n to declince / b to review later)  </text><text x="0" y="92.27272727272727" font-family="Virgil, Segoe UI Emoji" font-size="20px" fill="#000000" text-anchor="start" style="white-space: pre;" direction="ltr">choice : ( y / n / b)</text><text x="0" y="117.09090909090908" font-family="Virgil, Segoe UI Emoji" font-size="20px" fill="#000000" text-anchor="start" style="white-space: pre;" direction="ltr">1.1 (if y) refund request processed</text><text x="0" y="141.9090909090909" font-family="Virgil, Segoe UI Emoji" font-size="20px" fill="#000000" text-anchor="start" style="white-space: pre;" direction="ltr">choice: (only returns home) </text><text x="0" y="166.72727272727272" font-family="Virgil, Segoe UI Emoji" font-size="20px" fill="#000000" text-anchor="start" style="white-space: pre;" direction="ltr">1.2 (if n) refund request rejected </text><text x="0" y="191.54545454545453" font-family="Virgil, Segoe UI Emoji" font-size="20px" fill="#000000" text-anchor="start" style="white-space: pre;" direction="ltr">( and deleted)</text><text x="0" y="216.36363636363635" font-family="Virgil, Segoe UI Emoji" font-size="20px" fill="#000000" text-anchor="start" style="white-space: pre;" direction="ltr">choice : (only returns home)</text><text x="0" y="241.18181818181816" font-family="Virgil, Segoe UI Emoji" font-size="20px" fill="#000000" text-anchor="start" style="white-space: pre;" direction="ltr">1.3 (if b) -&gt; returns to home menu</text><text x="0" y="266" font-family="Virgil, Segoe UI Emoji" font-size="20px" fill="#000000" text-anchor="start" style="white-space: pre;" direction="ltr"></text></g><g transform="translate(5248.3815032870825 1646.3680225942726) rotate(0 198 74.5)"><text x="0" y="17.833333333333332" font-family="Virgil, Segoe UI Emoji" font-size="20px" fill="#000000" text-anchor="start" style="white-space: pre;" direction="ltr">// displayed transactions //</text><text x="0" y="42.666666666666664" font-family="Virgil, Segoe UI Emoji" font-size="20px" fill="#000000" text-anchor="start" style="white-space: pre;" direction="ltr">// at the end of the transactions//</text><text x="0" y="67.5" font-family="Virgil, Segoe UI Emoji" font-size="20px" fill="#000000" text-anchor="start" style="white-space: pre;" direction="ltr">press y to return </text><text x="0" y="92.33333333333333" font-family="Virgil, Segoe UI Emoji" font-size="20px" fill="#000000" text-anchor="start" style="white-space: pre;" direction="ltr">choice : ( returns user to home)</text><text x="0" y="117.16666666666666" font-family="Virgil, Segoe UI Emoji" font-size="20px" fill="#000000" text-anchor="start" style="white-space: pre;" direction="ltr">(can be changed to return admin to list</text><text x="0" y="142" font-family="Virgil, Segoe UI Emoji" font-size="20px" fill="#000000" text-anchor="start" style="white-space: pre;" direction="ltr">transactions instead)</text></g><g transform="translate(3984.5684595997886 1331.3513736879722) rotate(0 194.5 74.5)"><text x="0" y="17.833333333333332" font-family="Virgil, Segoe UI Emoji" font-size="20px" fill="#000000" text-anchor="start" style="white-space: pre;" direction="ltr">1. enter provider name </text><text x="0" y="42.666666666666664" font-family="Virgil, Segoe UI Emoji" font-size="20px" fill="#000000" text-anchor="start" style="white-space: pre;" direction="ltr">choice: (enters name)</text><text x="0" y="67.5" font-family="Virgil, Segoe UI Emoji" font-size="20px" fill="#000000" text-anchor="start" style="white-space: pre;" direction="ltr">2. enter provider supported payment </text><text x="0" y="92.33333333333333" font-family="Virgil, Segoe UI Emoji" font-size="20px" fill="#000000" text-anchor="start" style="white-space: pre;" direction="ltr">method and it's credentials :</text><text x="0" y="117.16666666666666" font-family="Virgil, Segoe UI Emoji" font-size="20px" fill="#000000" text-anchor="start" style="white-space: pre;" direction="ltr">choice: (method name , account number </text><text x="0" y="142" font-family="Virgil, Segoe UI Emoji" font-size="20px" fill="#000000" text-anchor="start" style="white-space: pre;" direction="ltr">that receives the payment) </text></g><g transform="translate(4620.177033516033 1325.7760975843275) rotate(0 175 74.5)"><text x="0" y="17.833333333333332" font-family="Virgil, Segoe UI Emoji" font-size="20px" fill="#000000" text-anchor="start" style="white-space: pre;" direction="ltr">1. enter discount type </text><text x="0" y="42.666666666666664" font-family="Virgil, Segoe UI Emoji" font-size="20px" fill="#000000" text-anchor="start" style="white-space: pre;" direction="ltr">choice : (overall/specific)</text><text x="0" y="67.5" font-family="Virgil, Segoe UI Emoji" font-size="20px" fill="#000000" text-anchor="start" style="white-space: pre;" direction="ltr">1.1 (if specific) enter target service</text><text x="0" y="92.33333333333333" font-family="Virgil, Segoe UI Emoji" font-size="20px" fill="#000000" text-anchor="start" style="white-space: pre;" direction="ltr">choice (service name)</text><text x="0" y="117.16666666666666" font-family="Virgil, Segoe UI Emoji" font-size="20px" fill="#000000" text-anchor="start" style="white-space: pre;" direction="ltr">2. enter discount percentage </text><text x="0" y="142" font-family="Virgil, Segoe UI Emoji" font-size="20px" fill="#000000" text-anchor="start" style="white-space: pre;" direction="ltr">choice: (percentage) </text></g><g transform="translate(4630.177033516033 1638.1968506358216) rotate(0 204.5 62)"><text x="0" y="17.8" font-family="Virgil, Segoe UI Emoji" font-size="20px" fill="#000000" text-anchor="start" style="white-space: pre;" direction="ltr">discount has been added</text><text x="0" y="42.6" font-family="Virgil, Segoe UI Emoji" font-size="20px" fill="#000000" text-anchor="start" style="white-space: pre;" direction="ltr">1. Do you want to add another discount?</text><text x="0" y="67.4" font-family="Virgil, Segoe UI Emoji" font-size="20px" fill="#000000" text-anchor="start" style="white-space: pre;" direction="ltr">choice: (y/n)</text><text x="0" y="92.2" font-family="Virgil, Segoe UI Emoji" font-size="20px" fill="#000000" text-anchor="start" style="white-space: pre;" direction="ltr">(if y return to add discount, if n return</text><text x="0" y="117" font-family="Virgil, Segoe UI Emoji" font-size="20px" fill="#000000" text-anchor="start" style="white-space: pre;" direction="ltr">to home)</text></g><g transform="translate(3991.9725142323873 1651.5598638164793) rotate(0 175 74.5)"><text x="0" y="17.833333333333332" font-family="Virgil, Segoe UI Emoji" font-size="20px" fill="#000000" text-anchor="start" style="white-space: pre;" direction="ltr">1. enter discount type </text><text x="0" y="42.666666666666664" font-family="Virgil, Segoe UI Emoji" font-size="20px" fill="#000000" text-anchor="start" style="white-space: pre;" direction="ltr">choice : (specific / overall)</text><text x="0" y="67.5" font-family="Virgil, Segoe UI Emoji" font-size="20px" fill="#000000" text-anchor="start" style="white-space: pre;" direction="ltr">1.1 (if specific) enter target service</text><text x="0" y="92.33333333333333" font-family="Virgil, Segoe UI Emoji" font-size="20px" fill="#000000" text-anchor="start" style="white-space: pre;" direction="ltr">choice : (service to be discounted)</text><text x="0" y="117.16666666666666" font-family="Virgil, Segoe UI Emoji" font-size="20px" fill="#000000" text-anchor="start" style="white-space: pre;" direction="ltr">3. enter discount percentage </text><text x="0" y="142" font-family="Virgil, Segoe UI Emoji" font-size="20px" fill="#000000" text-anchor="start" style="white-space: pre;" direction="ltr">choice : (percentage)</text></g><g transform="translate(3988.993084470953 1982.1518383390185) rotate(0 218 149)"><text x="0" y="16.833333333333332" font-family="Virgil, Segoe UI Emoji" font-size="20px" fill="#000000" text-anchor="start" style="white-space: pre;" direction="ltr">1. enter number of fields to be added</text><text x="0" y="41.666666666666664" font-family="Virgil, Segoe UI Emoji" font-size="20px" fill="#000000" text-anchor="start" style="white-space: pre;" direction="ltr">choice : (number of fields)</text><text x="0" y="66.5" font-family="Virgil, Segoe UI Emoji" font-size="20px" fill="#000000" text-anchor="start" style="white-space: pre;" direction="ltr">(loop)</text><text x="0" y="91.33333333333333" font-family="Virgil, Segoe UI Emoji" font-size="20px" fill="#000000" text-anchor="start" style="white-space: pre;" direction="ltr">2. enter field type :</text><text x="0" y="116.16666666666666" font-family="Virgil, Segoe UI Emoji" font-size="20px" fill="#000000" text-anchor="start" style="white-space: pre;" direction="ltr">choice ( text, drop down)</text><text x="0" y="141" font-family="Virgil, Segoe UI Emoji" font-size="20px" fill="#000000" text-anchor="start" style="white-space: pre;" direction="ltr">2.1 (if drop down ) enter values in </text><text x="0" y="165.83333333333331" font-family="Virgil, Segoe UI Emoji" font-size="20px" fill="#000000" text-anchor="start" style="white-space: pre;" direction="ltr">drop down list </text><text x="0" y="190.66666666666666" font-family="Virgil, Segoe UI Emoji" font-size="20px" fill="#000000" text-anchor="start" style="white-space: pre;" direction="ltr">choice : (Values)</text><text x="0" y="215.5" font-family="Virgil, Segoe UI Emoji" font-size="20px" fill="#000000" text-anchor="start" style="white-space: pre;" direction="ltr">2.2 (if text field) enter type</text><text x="0" y="240.33333333333331" font-family="Virgil, Segoe UI Emoji" font-size="20px" fill="#000000" text-anchor="start" style="white-space: pre;" direction="ltr">choice : (input , display)</text><text x="0" y="265.16666666666663" font-family="Virgil, Segoe UI Emoji" font-size="20px" fill="#000000" text-anchor="start" style="white-space: pre;" direction="ltr">2.2.1 (if display) enter text to be displayed</text><text x="0" y="290" font-family="Virgil, Segoe UI Emoji" font-size="20px" fill="#000000" text-anchor="start" style="white-space: pre;" direction="ltr">choice : (text to be displayed)</text></g><g transform="translate(4004.878380993338 2377.4918020327887) rotate(0 215.5 25)"><text x="0" y="17" font-family="Virgil, Segoe UI Emoji" font-size="20px" fill="#000000" text-anchor="start" style="white-space: pre;" direction="ltr">Form should be printed to the admin after </text><text x="0" y="42" font-family="Virgil, Segoe UI Emoji" font-size="20px" fill="#000000" text-anchor="start" style="white-space: pre;" direction="ltr">he finished, and is returned to home</text></g></svg>