<svg version="1.1" xmlns="http://www.w3.org/2000/svg" viewBox="0 0 3182.2052489767434 2330.6008383653525" width="3182.2052489767434" height="2330.6008383653525" filter="invert(93%) hue-rotate(180deg)">
  <!-- svg-source:excalidraw -->
  
  <defs>
    <style class="style-fonts">
      @font-face {
        font-family: "Virgil";
        src: url("https://excalidraw.com/Virgil.woff2");
      }
      @font-face {
        font-family: "Cascadia";
        src: url("https://excalidraw.com/Cascadia.woff2");
      }
    </style>
  </defs>
  <rect x="0" y="0" width="3182.2052489767434" height="2330.6008383653525" fill="#ffffff"></rect><g stroke-linecap="round" transform="translate(1243.4241673210527 327.5357523926841) rotate(0 234.10531616210938 129.01055145263672)"><path d="M0.49 -0.24 C139.34 0.5, 278.63 -0.83, 467.8 -0.28 M0.21 -0.09 C121.14 -2.04, 243.16 -1.55, 468.56 0.41 M468.97 1.46 C471.3 82.29, 470.11 166.49, 469.77 256.93 M468.56 -0.54 C469.66 82.35, 470.22 164.66, 468.66 257.43 M467.89 257.24 C334.8 258.53, 201.32 258.49, -0.35 257.37 M468.66 258.22 C323.12 256.18, 178.77 256.36, 0.08 257.98 M-0.09 257.35 C2.15 193.96, 2.12 127.92, -0.94 0.06 M-0.18 257.67 C-1.38 168.53, -0.36 78.62, -0.39 0.15" stroke="#000000" stroke-width="1" fill="none"></path></g><g transform="translate(1273.066318199959 403.91996870127787) rotate(0 49 37.5)"><text x="0" y="17" font-family="Virgil, Segoe UI Emoji" font-size="20px" fill="#000000" text-anchor="start" style="white-space: pre;" direction="ltr">1. Sign in</text><text x="0" y="42" font-family="Virgil, Segoe UI Emoji" font-size="20px" fill="#000000" text-anchor="start" style="white-space: pre;" direction="ltr">2. Sign up</text><text x="0" y="67" font-family="Virgil, Segoe UI Emoji" font-size="20px" fill="#000000" text-anchor="start" style="white-space: pre;" direction="ltr">choice:</text></g><g stroke-linecap="round" transform="translate(1002.9082981804277 626.8093958863365) rotate(0 234.10531616210938 129.01055145263672)"><path d="M0.75 -0.4 C117.1 0.82, 235.13 -0.02, 468.45 -0.65 M0.06 -0.31 C105.55 0.9, 211.51 0.84, 468.38 -0.31 M469.05 0.06 C467.39 63.19, 469.94 127.99, 469.32 257.44 M467.69 0.44 C466.16 90.59, 466.92 180.56, 467.72 257.58 M468.85 258.49 C341.77 259.56, 215.52 260.07, 0.17 257.13 M468.52 258.14 C312.42 258.29, 156.68 257.93, 0.18 258.14 M-0.97 259.05 C1.57 185.37, 0.79 113.45, -0.42 0.67 M-0.29 258.69 C1.06 199.42, 2.19 141.11, -0.56 -0.02" stroke="#000000" stroke-width="1" fill="none"></path></g><g transform="translate(1170.2909886101152 638.88656721202) rotate(0 31 12.5)"><text x="0" y="17" font-family="Virgil, Segoe UI Emoji" font-size="20px" fill="#000000" text-anchor="start" style="white-space: pre;" direction="ltr">Sign in</text></g><g transform="translate(1020.7330357292558 692.1076670655357) rotate(0 47.5 25)"><text x="0" y="17" font-family="Virgil, Segoe UI Emoji" font-size="20px" fill="#000000" text-anchor="start" style="white-space: pre;" direction="ltr">username:</text><text x="0" y="42" font-family="Virgil, Segoe UI Emoji" font-size="20px" fill="#000000" text-anchor="start" style="white-space: pre;" direction="ltr">password:</text></g><g stroke-linecap="round" transform="translate(1522.080264733162 621.628609753524) rotate(0 234.10531616210938 129.01055145263672)"><path d="M-0.45 -0.68 C129.46 -1.93, 261.32 -1.99, 468.78 0.14 M0.18 -0.08 C121.46 -1.01, 243.92 -1.47, 468.12 -0.39 M469.73 0.64 C470 72.29, 468.74 142.62, 467.11 258.72 M468.63 -0.07 C467.69 69.59, 467.78 139.8, 467.9 258.33 M468.46 257.3 C349.02 257.7, 230.54 257.57, -0.41 258.68 M468.27 257.61 C310.52 256.63, 153.43 256.22, 0.33 258.07 M0.3 259.27 C-1 162.23, -2.7 68.57, -0.74 -0.08 M0.27 257.65 C1.21 193.06, 2.55 129.53, 0.79 0.73" stroke="#000000" stroke-width="1" fill="none"></path></g><g transform="translate(1689.4629551628495 633.7057810792076) rotate(0 34.5 12.5)"><text x="0" y="17" font-family="Virgil, Segoe UI Emoji" font-size="20px" fill="#000000" text-anchor="start" style="white-space: pre;" direction="ltr">Sign up</text></g><g transform="translate(1539.9050022819902 686.9268809327232) rotate(0 47.5 37.5)"><text x="0" y="17" font-family="Virgil, Segoe UI Emoji" font-size="20px" fill="#000000" text-anchor="start" style="white-space: pre;" direction="ltr">email:</text><text x="0" y="42" font-family="Virgil, Segoe UI Emoji" font-size="20px" fill="#000000" text-anchor="start" style="white-space: pre;" direction="ltr">username:</text><text x="0" y="67" font-family="Virgil, Segoe UI Emoji" font-size="20px" fill="#000000" text-anchor="start" style="white-space: pre;" direction="ltr">password:</text></g><g stroke-linecap="round" transform="translate(61.072931195041406 1309.551967023719) rotate(0 234.10531616210938 129.01055145263672)"><path d="M-0.78 -0.19 C124.81 -0.98, 250.72 -0.86, 467.6 -0.19 M0.09 0.31 C179.37 -0.32, 357.94 -0.67, 468.23 -0.4 M467.3 0.1 C467.23 101.45, 466.16 205.31, 468.96 259.29 M467.69 -0.11 C470.34 55.97, 469.26 113.45, 468.81 257.73 M469.11 258.92 C308.03 258.78, 147.35 260.36, 0.71 257.33 M468.2 258.37 C289.21 257.93, 109.78 257.83, 0.23 258.09 M-1.21 257.93 C0.03 203.37, 0.19 145.61, -0.84 -0.16 M0.4 258.74 C-2.2 173.1, -2.23 88.88, -0.61 -0.8" stroke="#000000" stroke-width="1" fill="none"></path></g><g transform="translate(221.47304716183828 1330.8378480661995) rotate(0 40 12.5)"><text x="0" y="17" font-family="Virgil, Segoe UI Emoji" font-size="20px" fill="#000000" text-anchor="start" style="white-space: pre;" direction="ltr">Services</text></g><g transform="translate(77.97829618527578 1371.9326356638558) rotate(0 181.5 50)"><text x="0" y="17" font-family="Virgil, Segoe UI Emoji" font-size="20px" fill="#000000" text-anchor="start" style="white-space: pre;" direction="ltr">1. Vodafone recharge service</text><text x="0" y="42" font-family="Virgil, Segoe UI Emoji" font-size="20px" fill="#000000" text-anchor="start" style="white-space: pre;" direction="ltr">2. Etisalat internet payment service</text><text x="0" y="67" font-family="Virgil, Segoe UI Emoji" font-size="20px" fill="#000000" text-anchor="start" style="white-space: pre;" direction="ltr">3. ...</text><text x="0" y="92" font-family="Virgil, Segoe UI Emoji" font-size="20px" fill="#000000" text-anchor="start" style="white-space: pre;" direction="ltr">Choice:</text></g><g stroke-linecap="round" transform="translate(599.9676455505103 1306.604182599891) rotate(0 234.10531616210938 129.01055145263672)"><path d="M-0.89 -0.27 C166.76 1.57, 333.5 1.29, 468.97 -0.29 M0.38 -0.16 C120.06 -1.06, 239.49 -1.31, 468.29 -0.21 M469.5 -1.21 C466.71 59.83, 465.6 122.37, 469.25 256.83 M467.57 -0.65 C469.44 90.41, 469.01 181.24, 468.34 258.15 M468.88 257.66 C304.34 256.09, 139.83 256.25, -0.62 257.95 M468.55 258.11 C281.11 256.26, 94.68 255.89, -0.42 258.33 M0.1 258.52 C2.62 181.34, 1.47 103.73, -0.6 -1.56 M-0.78 257.57 C0.42 192.18, 1.69 127.18, -0.61 0.23" stroke="#000000" stroke-width="1" fill="none"></path></g><g transform="translate(701.7574099548071 1319.8058351267464) rotate(0 71.5 12.5)"><text x="0" y="17" font-family="Virgil, Segoe UI Emoji" font-size="20px" fill="#000000" text-anchor="start" style="white-space: pre;" direction="ltr">Service search</text></g><g transform="translate(616.8730105407446 1368.9848512400276) rotate(0 105.5 12.5)"><text x="0" y="17" font-family="Virgil, Segoe UI Emoji" font-size="20px" fill="#000000" text-anchor="start" style="white-space: pre;" direction="ltr">Search for a service:</text></g><g stroke-linecap="round" transform="translate(345.6172709723761 1652.2831955179172) rotate(0 234.10531616210938 129.01055145263672)"><path d="M0.75 -0.36 C142.17 -0.18, 284.85 -1.6, 468.43 0.86 M-0.08 0.09 C141.21 1.02, 282.75 1.25, 467.96 0.17 M467.97 0.49 C468.61 75.02, 467.67 148.86, 469.15 256.86 M468.59 0.65 C466.72 59.02, 466.31 118.56, 468.74 257.48 M469.04 258.82 C372.53 257.15, 276.61 257.39, -0.42 257.71 M468.37 258.02 C287.73 256.29, 107.82 256.15, 0.12 258.09 M1.2 256.65 C-0.28 161.38, 1.23 63.93, 1.4 0.34 M0.63 258.82 C-0.05 163.42, -0.47 70.78, 0.67 0" stroke="#000000" stroke-width="1" fill="none"></path></g><g transform="translate(432.60680344307934 1665.2533416971164) rotate(0 143 25)"><text x="0" y="17" font-family="Virgil, Segoe UI Emoji" font-size="20px" fill="#000000" text-anchor="start" style="white-space: pre;" direction="ltr">Service provider specific form</text><text x="0" y="42" font-family="Virgil, Segoe UI Emoji" font-size="20px" fill="#000000" text-anchor="start" style="white-space: pre;" direction="ltr">(Vodafone recharge service)</text></g><g transform="translate(371.9752726813605 1733.9691620096164) rotate(0 145 75)"><text x="0" y="16" font-family="Virgil, Segoe UI Emoji" font-size="20px" fill="#000000" text-anchor="start" style="white-space: pre;" direction="ltr">Mobile phone (text field):</text><text x="0" y="41" font-family="Virgil, Segoe UI Emoji" font-size="20px" fill="#000000" text-anchor="start" style="white-space: pre;" direction="ltr"></text><text x="0" y="66" font-family="Virgil, Segoe UI Emoji" font-size="20px" fill="#000000" text-anchor="start" style="white-space: pre;" direction="ltr">Recharge amount (drop-down):</text><text x="0" y="91" font-family="Virgil, Segoe UI Emoji" font-size="20px" fill="#000000" text-anchor="start" style="white-space: pre;" direction="ltr">1. 10 EGP</text><text x="0" y="116" font-family="Virgil, Segoe UI Emoji" font-size="20px" fill="#000000" text-anchor="start" style="white-space: pre;" direction="ltr">2. 20 EGP</text><text x="0" y="141" font-family="Virgil, Segoe UI Emoji" font-size="20px" fill="#000000" text-anchor="start" style="white-space: pre;" direction="ltr">choice:</text></g><g stroke-linecap="round" transform="translate(345.02773239815735 1952.5391769632297) rotate(0 234.10531616210938 129.01055145263672)"><path d="M-0.01 0.48 C172.26 1.02, 343.76 0.03, 468.82 -0.61 M-0.27 -0.09 C160.45 1.26, 321.7 1.02, 467.77 -0.31 M467.89 -0.05 C468.44 82.99, 468.16 164.24, 467.36 258.66 M467.99 -0.13 C467.02 72.36, 466.72 146.23, 467.84 258.08 M467.35 257.36 C351.16 258.41, 233.86 258.77, 0.28 257.66 M467.85 257.89 C372.72 259.92, 277.42 259.66, 0.16 258.35 M-1.43 257.66 C2.72 155.67, 0.47 52.02, 0.6 0.97 M-0.16 258.81 C2.07 198.6, 2.09 139.75, -0.15 -0.21" stroke="#000000" stroke-width="1" fill="none"></path></g><g transform="translate(520.1858439704231 1963.247879050632) rotate(0 41 12.5)"><text x="0" y="17" font-family="Virgil, Segoe UI Emoji" font-size="20px" fill="#000000" text-anchor="start" style="white-space: pre;" direction="ltr">Payment</text></g><g transform="translate(365.9120707770636 2021.858474753757) rotate(0 162 50)"><text x="0" y="17" font-family="Virgil, Segoe UI Emoji" font-size="20px" fill="#000000" text-anchor="start" style="white-space: pre;" direction="ltr">1. Credit card</text><text x="0" y="42" font-family="Virgil, Segoe UI Emoji" font-size="20px" fill="#000000" text-anchor="start" style="white-space: pre;" direction="ltr">2. Wallet (if enough money)</text><text x="0" y="67" font-family="Virgil, Segoe UI Emoji" font-size="20px" fill="#000000" text-anchor="start" style="white-space: pre;" direction="ltr">3. Cash on delivery (if available)</text><text x="0" y="92" font-family="Virgil, Segoe UI Emoji" font-size="20px" fill="#000000" text-anchor="start" style="white-space: pre;" direction="ltr">choice:</text></g><g transform="translate(1454.8118626335527 346.65680799571146) rotate(0 31 12.5)"><text x="0" y="17" font-family="Virgil, Segoe UI Emoji" font-size="20px" fill="#000000" text-anchor="start" style="white-space: pre;" direction="ltr">Guest</text></g><g stroke-linecap="round" transform="translate(1272.414970873105 963.3291954972619) rotate(0 234.10531616210938 129.01055145263672)"><path d="M-0.04 -0.57 C139.56 1.41, 278.36 0.73, 468.53 0.27 M0.06 -0.38 C141.14 1.2, 282.17 1.27, 468.62 -0.26 M468.32 -1.28 C468.46 97.76, 470.73 192.96, 466.85 257.32 M468.09 -0.76 C469.89 69.22, 468.43 139.34, 467.73 258.58 M468.44 258.11 C342.98 258.39, 219.3 257.52, 0.66 257.38 M467.79 258.38 C327.14 258.88, 185.56 258.87, -0.3 258.17 M-0.33 257.94 C-0.39 161.48, -0.5 62.61, -0.26 -1.58 M0.34 257.38 C-1.9 171.82, -1.16 85.86, -0.73 -0.17" stroke="#000000" stroke-width="1" fill="none"></path></g><g transform="translate(1445.8167062344196 969.0236235153088) rotate(0 24 12.5)"><text x="0" y="17" font-family="Virgil, Segoe UI Emoji" font-size="20px" fill="#000000" text-anchor="start" style="white-space: pre;" direction="ltr">Home</text></g><g transform="translate(1288.3026904853525 998.4704976838075) rotate(0 156 99.5)"><text x="0" y="16.875" font-family="Virgil, Segoe UI Emoji" font-size="20px" fill="#000000" text-anchor="start" style="white-space: pre;" direction="ltr">Wallet: 16 EGP</text><text x="0" y="41.75" font-family="Virgil, Segoe UI Emoji" font-size="20px" fill="#000000" text-anchor="start" style="white-space: pre;" direction="ltr"></text><text x="0" y="66.625" font-family="Virgil, Segoe UI Emoji" font-size="20px" fill="#000000" text-anchor="start" style="white-space: pre;" direction="ltr">1. List all and choose a service</text><text x="0" y="91.5" font-family="Virgil, Segoe UI Emoji" font-size="20px" fill="#000000" text-anchor="start" style="white-space: pre;" direction="ltr">2. Search for a service</text><text x="0" y="116.375" font-family="Virgil, Segoe UI Emoji" font-size="20px" fill="#000000" text-anchor="start" style="white-space: pre;" direction="ltr">3. Request a refund</text><text x="0" y="141.25" font-family="Virgil, Segoe UI Emoji" font-size="20px" fill="#000000" text-anchor="start" style="white-space: pre;" direction="ltr">4. Add to wallet</text><text x="0" y="166.125" font-family="Virgil, Segoe UI Emoji" font-size="20px" fill="#000000" text-anchor="start" style="white-space: pre;" direction="ltr">5. Check discounts</text><text x="0" y="191" font-family="Virgil, Segoe UI Emoji" font-size="20px" fill="#000000" text-anchor="start" style="white-space: pre;" direction="ltr">choice:</text></g><g transform="translate(1108.5823459405638 10) rotate(0 340 62.5)"><text x="0" y="17" font-family="Virgil, Segoe UI Emoji" font-size="20px" fill="#000000" text-anchor="start" style="white-space: pre;" direction="ltr">Notes:</text><text x="0" y="42" font-family="Virgil, Segoe UI Emoji" font-size="20px" fill="#000000" text-anchor="start" style="white-space: pre;" direction="ltr">- Each page can contain choices (drop down) and inputs</text><text x="0" y="67" font-family="Virgil, Segoe UI Emoji" font-size="20px" fill="#000000" text-anchor="start" style="white-space: pre;" direction="ltr">- Typing "b#" in either the choice option or the input prompt</text><text x="0" y="92" font-family="Virgil, Segoe UI Emoji" font-size="20px" fill="#000000" text-anchor="start" style="white-space: pre;" direction="ltr">will take you back to the previous page (unless it is the first page)</text><text x="0" y="117" font-family="Virgil, Segoe UI Emoji" font-size="20px" fill="#000000" text-anchor="start" style="white-space: pre;" direction="ltr">- Pages, drop-downs, input prompts will probably be something generic</text></g><g stroke-linecap="round"><g transform="translate(11.83353687376632 1292.401083575758) rotate(0 -0.9176473375452474 513.6744635362793)"><path d="M0 -0.85 C-0.38 170.37, -1.11 855.93, -1.3 1027.28 M-1.46 1.32 C-2.01 172.64, -1.8 857.09, -1.78 1028.2" stroke="#000000" stroke-width="1" fill="none"></path></g></g><g stroke-linecap="round"><g transform="translate(1139.9008457851005 1262.8179780382534) rotate(0 -0.7186123543815768 513.9740801511571)"><path d="M-0.49 -0.54 C-0.87 170.7, -2.8 855.94, -2.89 1027.47 M1.45 1.78 C1.52 173.15, -0.1 857.11, -0.54 1028.49" stroke="#000000" stroke-width="1" fill="none"></path></g></g><g stroke-linecap="round"><g transform="translate(1242.471146329807 1256.7170002289968) rotate(0 -1.0084838811125678 515.2191830776173)"><path d="M-0.55 1.02 C-1.25 172.38, -3.03 857.31, -3.39 1028.41 M1.37 0.51 C0.94 172.04, -0.45 858.59, -1.3 1029.92" stroke="#000000" stroke-width="1" fill="none"></path></g></g><g stroke-linecap="round" transform="translate(1280.157504240116 1274.2488548227093) rotate(0 234.10531616210938 129.01055145263672)"><path d="M-0.87 0.53 C112.3 1.2, 224.29 2.57, 467.97 -0.78 M0.02 -0.39 C105.72 -0.52, 211.1 -0.2, 468.63 -0.31 M468.84 0.81 C466.39 66.43, 468.28 130.03, 466.78 258.31 M467.45 -0.19 C466.07 89.13, 465.6 176.49, 468.99 257.86 M467.9 257.99 C320.57 256.74, 173.38 256.88, -0.29 258.78 M468.61 258.26 C365.61 258.21, 262.57 258.27, -0.38 258.45 M-1.27 259.24 C-0.14 183.11, -0.97 107.55, -1.38 1.54 M-0.75 258.71 C1.06 175.8, 0.21 93.89, -0.02 0.28" stroke="#000000" stroke-width="1" fill="none"></path></g><g transform="translate(1433.3195095208443 1296.8240169498895) rotate(0 76.5 12.5)"><text x="0" y="17" font-family="Virgil, Segoe UI Emoji" font-size="20px" fill="#000000" text-anchor="start" style="white-space: pre;" direction="ltr">Refund request</text></g><g transform="translate(1306.8287754098587 1340.356537010377) rotate(0 200 37.5)"><text x="0" y="17" font-family="Virgil, Segoe UI Emoji" font-size="20px" fill="#000000" text-anchor="start" style="white-space: pre;" direction="ltr">1. ID: xxxx, to: Vodafone sth, date: xxx</text><text x="0" y="42" font-family="Virgil, Segoe UI Emoji" font-size="20px" fill="#000000" text-anchor="start" style="white-space: pre;" direction="ltr">2. ...</text><text x="0" y="67" font-family="Virgil, Segoe UI Emoji" font-size="20px" fill="#000000" text-anchor="start" style="white-space: pre;" direction="ltr">choice:</text></g><g stroke-linecap="round" transform="translate(1288.681356143241 1612.6866181594114) rotate(0 234.10531616210938 129.01055145263672)"><path d="M0.9 0.89 C152.06 -0.67, 305.08 -2.3, 468.06 0.06 M0.1 -0.15 C122.56 -1.77, 245.51 -1.38, 468.62 -0.17 M467.53 -1.58 C464.82 92.6, 465.78 181.47, 469.63 259.47 M468.48 0.14 C469.97 99.73, 469.48 199.23, 467.92 258.25 M467.8 257.38 C361.2 259.14, 255.13 258.38, 0.17 257.81 M467.89 257.69 C331.72 257.16, 195 257.29, -0.21 257.69 M1.27 258.23 C-0.44 164.29, 0.5 70.65, 0.35 1.18 M-0.05 258.38 C-1.21 165.06, -1.08 70.54, 0.1 -0.39" stroke="#000000" stroke-width="1" fill="none"></path></g><g transform="translate(1442.5365762217425 1634.8640310413448) rotate(0 63.5 12.5)"><text x="0" y="17" font-family="Virgil, Segoe UI Emoji" font-size="20px" fill="#000000" text-anchor="start" style="white-space: pre;" direction="ltr">After refund</text></g><g transform="translate(1313.5816571702308 1684.7856169482639) rotate(0 190 25)"><text x="0" y="17" font-family="Virgil, Segoe UI Emoji" font-size="20px" fill="#000000" text-anchor="start" style="white-space: pre;" direction="ltr">Your refund is awaiting admin approval</text><text x="0" y="42" font-family="Virgil, Segoe UI Emoji" font-size="20px" fill="#000000" text-anchor="start" style="white-space: pre;" direction="ltr">choice: (go back is the only option)</text></g><g stroke-linecap="round"><g transform="translate(1825.0961998847306 1246.5011449144095) rotate(0 -1.2721294704083448 514.7460829344259)"><path d="M-1 0.6 C-1.65 172.17, -3.14 858.32, -3.22 1029.63 M0.67 -0.13 C0.33 171.12, -0.62 856.47, -1.04 1028.12" stroke="#000000" stroke-width="1" fill="none"></path></g></g><g transform="translate(678.8118563691459 1608.1146104682457) rotate(0 212.5 12.5)"><text x="0" y="17" font-family="Virgil, Segoe UI Emoji" font-size="20px" fill="#000000" text-anchor="start" style="white-space: pre;" direction="ltr">Search result limits the options in services</text></g><g stroke-linecap="round"><g transform="translate(667.9840097420125 1607.687081326566) rotate(0 -85.47657827447398 -18.20326568333303)"><path d="M-0.02 -0.39 C-28.23 -6.53, -141.47 -30.06, -169.85 -36.02 M-1.48 -1.63 C-29.83 -7.64, -143.21 -28.89, -170.94 -34.44" stroke="#000000" stroke-width="1" fill="none"></path></g><g transform="translate(667.9840097420125 1607.687081326566) rotate(0 -85.47657827447398 -18.20326568333303)"><path d="M-141.95 -39.6 C-148.66 -39.2, -156.44 -37.01, -170.67 -33.08 M-140.76 -39.08 C-149.68 -38.52, -155.65 -36.12, -171.22 -33.74" stroke="#000000" stroke-width="1" fill="none"></path></g><g transform="translate(667.9840097420125 1607.687081326566) rotate(0 -85.47657827447398 -18.20326568333303)"><path d="M-145.85 -19.45 C-151.7 -24.17, -158.49 -27.1, -170.67 -33.08 M-144.65 -18.93 C-152.41 -23.55, -157.39 -26.3, -171.22 -33.74" stroke="#000000" stroke-width="1" fill="none"></path></g></g><g stroke-linecap="round"><g transform="translate(1914.5199006003031 1248.9761706404324) rotate(0 -0.0315162335759851 513.5476380727732)"><path d="M-0.47 -0.37 C-0.55 170.85, -0.67 856.09, -1.15 1027.61 M1.48 -1.61 C1.39 169.71, -1.12 856.73, -1.54 1028.71" stroke="#000000" stroke-width="1" fill="none"></path></g></g><g stroke-linecap="round" transform="translate(1958.130873559087 1250.4594168571539) rotate(0 234.10531616210938 129.01055145263672)"><path d="M0.29 0.73 C130.61 1.28, 260 1.74, 469.11 0.09 M-0.35 0.37 C155.88 -1.03, 312.87 -1.13, 468.53 0.29 M469.49 -0.83 C466.58 56.78, 466.02 113.7, 469.39 258.85 M468.07 0.1 C465.94 84.27, 466.35 166.77, 468.97 257.39 M467.73 257.39 C286.45 258.03, 103.74 256.88, 0.35 257.27 M468.51 258.46 C330.46 256.85, 193.18 256.2, 0.25 257.98 M1.23 257.56 C-0.52 194.73, 1.22 132.51, -0.94 -0.52 M-0.43 258.32 C-0.96 180.54, -0.82 105.03, -0.39 -0.12" stroke="#000000" stroke-width="1" fill="none"></path></g><g transform="translate(2065.6878413687878 1280.977545324692) rotate(0 109 12.5)"><text x="0" y="17" font-family="Virgil, Segoe UI Emoji" font-size="20px" fill="#000000" text-anchor="start" style="white-space: pre;" direction="ltr">Add amount to wallet</text></g><g transform="translate(1979.7575871090985 1327.247582423719) rotate(0 58 25)"><text x="0" y="17" font-family="Virgil, Segoe UI Emoji" font-size="20px" fill="#000000" text-anchor="start" style="white-space: pre;" direction="ltr">credit card:</text><text x="0" y="42" font-family="Virgil, Segoe UI Emoji" font-size="20px" fill="#000000" text-anchor="start" style="white-space: pre;" direction="ltr">amount:</text></g><g stroke-linecap="round" transform="translate(1962.3050291468226 1594.6498405033335) rotate(0 234.10531616210938 129.01055145263672)"><path d="M0.33 0.3 C143 -1.7, 285.73 -2.72, 467.89 -0.33 M0.35 -0.13 C171.23 -0.73, 341.86 -0.48, 468.38 0.2 M469.57 0.57 C467.13 56.19, 469.82 114.65, 468.93 258.27 M468.06 0.76 C466.22 53.3, 467.57 105.14, 467.68 258.49 M468.96 258.84 C346.84 258.13, 224.36 258.37, -0.88 258.26 M468.55 257.61 C331.73 259.16, 195.07 258.84, 0.14 258.37 M0.06 259.07 C1.24 202.12, 0.22 144.36, -1.44 -0.33 M-0.36 258.4 C-0.73 204.06, -1.12 148.2, 0.39 0.29" stroke="#000000" stroke-width="1" fill="none"></path></g><g transform="translate(2124.3198506903586 1608.2986503021539) rotate(0 51 12.5)"><text x="0" y="17" font-family="Virgil, Segoe UI Emoji" font-size="20px" fill="#000000" text-anchor="start" style="white-space: pre;" direction="ltr">After add</text></g><g transform="translate(1980.0014230312627 1668.8903798094552) rotate(0 203.5 25)"><text x="0" y="17" font-family="Virgil, Segoe UI Emoji" font-size="20px" fill="#000000" text-anchor="start" style="white-space: pre;" direction="ltr">The amount has been added successfully</text><text x="0" y="42" font-family="Virgil, Segoe UI Emoji" font-size="20px" fill="#000000" text-anchor="start" style="white-space: pre;" direction="ltr">choice: (go back is the only option)</text></g><g stroke-linecap="round"><g transform="translate(2490.1903407501522 1234.0796650697648) rotate(0 -1.1421753908697383 514.0090123814257)"><path d="M0.43 0.28 C-0.03 171.56, -1.39 856.33, -1.92 1027.57 M-0.8 -0.63 C-1.47 170.8, -2.22 857.1, -2.72 1028.64" stroke="#000000" stroke-width="1" fill="none"></path></g></g><g stroke-linecap="round"><g transform="translate(888.8793380210487 1572.8722745129653) rotate(0 -0.5252031845890812 15.651394390925361)"><path d="M-0.07 1.01 C0.18 6.22, 0.46 25.98, 0.52 30.81 M-1.57 0.5 C-1.37 5.45, -0.48 24.74, -0.31 29.3" stroke="#000000" stroke-width="1" fill="none"></path></g><g transform="translate(888.8793380210487 1572.8722745129653) rotate(0 -0.5252031845890812 15.651394390925361)"><path d="M-4.72 15.9 C-3.34 18.58, -3.1 20.64, 0.46 29.38 M-5.25 15.53 C-4.11 20.1, -2.11 23.32, -0.54 29.2" stroke="#000000" stroke-width="1" fill="none"></path></g><g transform="translate(888.8793380210487 1572.8722745129653) rotate(0 -0.5252031845890812 15.651394390925361)"><path d="M5.41 15.47 C4.58 18.24, 2.61 20.39, 0.46 29.38 M4.88 15.09 C2.96 19.72, 1.91 23.07, -0.54 29.2" stroke="#000000" stroke-width="1" fill="none"></path></g></g><g stroke-linecap="round"><g transform="translate(2596.536158919037 1227.7550189031363) rotate(0 -1.3710093498234528 514.3809292207479)"><path d="M-1.09 -0.62 C-1.75 170.85, -2.92 858.04, -3.28 1029.38 M0.53 1.67 C0.18 172.76, -0.9 856.65, -1.13 1027.75" stroke="#000000" stroke-width="1" fill="none"></path></g></g><g stroke-linecap="round" transform="translate(2640.147131877821 1229.2382651198577) rotate(0 234.10531616210938 129.01055145263672)"><path d="M-0.81 0.7 C161.83 0.34, 325.83 1.09, 467.93 0.42 M0.01 0.06 C164.95 1.31, 329.41 0.92, 468.29 0.2 M469.61 1.42 C467.35 56.53, 467.47 116.52, 469.48 256.89 M468.58 0.2 C469.18 71.89, 468.93 144.2, 468.66 257.96 M468.98 258.14 C363.29 258.65, 258.35 260.07, -0.09 258.4 M468.05 257.72 C353.45 258.57, 238.75 259.03, 0.05 257.8 M1.19 257.77 C-2.29 166.35, -3.01 74.45, 1.58 0.1 M0.33 258.12 C0.4 172.37, 0.09 85.89, 0.56 -0.54" stroke="#000000" stroke-width="1" fill="none"></path></g><g transform="translate(2747.7040996875216 1259.756393587396) rotate(0 48.5 12.5)"><text x="0" y="17" font-family="Virgil, Segoe UI Emoji" font-size="20px" fill="#000000" text-anchor="start" style="white-space: pre;" direction="ltr">Discounts</text></g><g transform="translate(2661.7738454278324 1306.0264306864237) rotate(0 194.5 50)"><text x="0" y="17" font-family="Virgil, Segoe UI Emoji" font-size="20px" fill="#000000" text-anchor="start" style="white-space: pre;" direction="ltr">1. 10% discount for your first purchase</text><text x="0" y="42" font-family="Virgil, Segoe UI Emoji" font-size="20px" fill="#000000" text-anchor="start" style="white-space: pre;" direction="ltr">2. 20% discount for mobile recharge</text><text x="0" y="67" font-family="Virgil, Segoe UI Emoji" font-size="20px" fill="#000000" text-anchor="start" style="white-space: pre;" direction="ltr">services</text><text x="0" y="92" font-family="Virgil, Segoe UI Emoji" font-size="20px" fill="#000000" text-anchor="start" style="white-space: pre;" direction="ltr">choice: (only option is to go back)</text></g><g stroke-linecap="round"><g transform="translate(3172.206599068886 1212.8585133324677) rotate(0 -1.150856629571308 513.7336169502569)"><path d="M0 -0.37 C-0.11 171.01, -1.45 857.73, -1.64 1029.08 M-1.46 -1.61 C-1.59 169.35, -2.32 855.57, -2.3 1027.28" stroke="#000000" stroke-width="1" fill="none"></path></g></g></svg>