<svg version="1.1" xmlns="http://www.w3.org/2000/svg" viewBox="0 0 21613.667135084695 7982.13216287766" width="21613.667135084695" height="7982.13216287766">
  <!-- svg-source:excalidraw -->
  
  <defs>
    <style class="style-fonts">
      @font-face {
        font-family: "Virgil";
        src: url("https://excalidraw.com/Virgil.woff2");
      }
      @font-face {
        font-family: "Cascadia";
        src: url("https://excalidraw.com/Cascadia.woff2");
      }
    </style>
  </defs>
  <rect x="0" y="0" width="21613.667135084695" height="7982.13216287766" fill="#ffffff"></rect><g stroke-linecap="round" transform="translate(17128.781419593986 21.249118003242984) rotate(0 1300 593.75)"><path d="M0.16 -0.53 C1039.31 5.21, 2079.12 4.13, 2600.34 -0.61 M-0.39 -0.37 C577.44 5.94, 1155.08 5.87, 2600.14 0.07 M2600.56 0.78 C2595.97 326.73, 2595.85 653.37, 2599.71 1188.12 M2600.09 -0.04 C2596.21 301.72, 2596.13 603.4, 2600.25 1187.22 M2599.56 1187.08 C2014.16 1191.43, 1429.81 1191.91, -0.38 1187.93 M2599.64 1187.46 C1840.98 1193.49, 1081.82 1193.27, 0.22 1187.85 M0.15 1187.64 C3.69 783.55, 4.66 378.17, -0.23 0.68 M0.36 1187.22 C0.19 740.73, 0.17 294.03, -0.34 0.21" stroke="#000000" stroke-width="1" fill="none"></path></g><g transform="translate(17173.07173235245 58.76307513052416) rotate(0 209 249)"><text x="0" y="51.14285714285714" font-family="Virgil, Segoe UI Emoji" font-size="56.57142857142863px" fill="#000000" text-anchor="start" style="white-space: pre;" direction="ltr">auth controller</text><text x="0" y="122.28571428571428" font-family="Virgil, Segoe UI Emoji" font-size="56.57142857142863px" fill="#000000" text-anchor="start" style="white-space: pre;" direction="ltr"></text><text x="0" y="193.42857142857142" font-family="Virgil, Segoe UI Emoji" font-size="56.57142857142863px" fill="#000000" text-anchor="start" style="white-space: pre;" direction="ltr">1. Sign Up </text><text x="0" y="264.57142857142856" font-family="Virgil, Segoe UI Emoji" font-size="56.57142857142863px" fill="#000000" text-anchor="start" style="white-space: pre;" direction="ltr">2. Sign in</text><text x="0" y="335.71428571428567" font-family="Virgil, Segoe UI Emoji" font-size="56.57142857142863px" fill="#000000" text-anchor="start" style="white-space: pre;" direction="ltr"></text><text x="0" y="406.85714285714283" font-family="Virgil, Segoe UI Emoji" font-size="56.57142857142863px" fill="#000000" text-anchor="start" style="white-space: pre;" direction="ltr"></text><text x="0" y="478" font-family="Virgil, Segoe UI Emoji" font-size="56.57142857142863px" fill="#000000" text-anchor="start" style="white-space: pre;" direction="ltr"></text></g><g transform="translate(17624.715891872373 55.93206293158619) rotate(0 427.5 367)"><text x="0" y="57.55555555555556" font-family="Virgil, Segoe UI Emoji" font-size="64.67980295566491px" fill="#000000" text-anchor="start" style="white-space: pre;" direction="ltr">User tasks</text><text x="0" y="139.11111111111111" font-family="Virgil, Segoe UI Emoji" font-size="64.67980295566491px" fill="#000000" text-anchor="start" style="white-space: pre;" direction="ltr"></text><text x="0" y="220.66666666666669" font-family="Virgil, Segoe UI Emoji" font-size="64.67980295566491px" fill="#000000" text-anchor="start" style="white-space: pre;" direction="ltr">1. Recharge service (done)</text><text x="0" y="302.22222222222223" font-family="Virgil, Segoe UI Emoji" font-size="64.67980295566491px" fill="#000000" text-anchor="start" style="white-space: pre;" direction="ltr">2. Refund request (done)</text><text x="0" y="383.77777777777777" font-family="Virgil, Segoe UI Emoji" font-size="64.67980295566491px" fill="#000000" text-anchor="start" style="white-space: pre;" direction="ltr">3. Charge wallet (done)</text><text x="0" y="465.33333333333337" font-family="Virgil, Segoe UI Emoji" font-size="64.67980295566491px" fill="#000000" text-anchor="start" style="white-space: pre;" direction="ltr">5. View transaction history</text><text x="0" y="546.8888888888889" font-family="Virgil, Segoe UI Emoji" font-size="64.67980295566491px" fill="#000000" text-anchor="start" style="white-space: pre;" direction="ltr">(done)</text><text x="0" y="628.4444444444445" font-family="Virgil, Segoe UI Emoji" font-size="64.67980295566491px" fill="#000000" text-anchor="start" style="white-space: pre;" direction="ltr">6. Search service (done)</text><text x="0" y="710" font-family="Virgil, Segoe UI Emoji" font-size="64.67980295566491px" fill="#000000" text-anchor="start" style="white-space: pre;" direction="ltr">7. View discounts (done)</text></g><g transform="translate(18634.956987200356 82.69938521319455) rotate(0 496 389)"><text x="0" y="60.44444444444444" font-family="Virgil, Segoe UI Emoji" font-size="68.9637305699482px" fill="#000000" text-anchor="start" style="white-space: pre;" direction="ltr">Admin tasks</text><text x="0" y="146.88888888888889" font-family="Virgil, Segoe UI Emoji" font-size="68.9637305699482px" fill="#000000" text-anchor="start" style="white-space: pre;" direction="ltr"></text><text x="0" y="233.33333333333331" font-family="Virgil, Segoe UI Emoji" font-size="68.9637305699482px" fill="#000000" text-anchor="start" style="white-space: pre;" direction="ltr">1. Add Service provider (done)</text><text x="0" y="319.77777777777777" font-family="Virgil, Segoe UI Emoji" font-size="68.9637305699482px" fill="#000000" text-anchor="start" style="white-space: pre;" direction="ltr">2. Issue Discounts (done)</text><text x="0" y="406.22222222222223" font-family="Virgil, Segoe UI Emoji" font-size="68.9637305699482px" fill="#000000" text-anchor="start" style="white-space: pre;" direction="ltr">(system-wise v service-wise)</text><text x="0" y="492.66666666666663" font-family="Virgil, Segoe UI Emoji" font-size="68.9637305699482px" fill="#000000" text-anchor="start" style="white-space: pre;" direction="ltr">3. Get System </text><text x="0" y="579.1111111111111" font-family="Virgil, Segoe UI Emoji" font-size="68.9637305699482px" fill="#000000" text-anchor="start" style="white-space: pre;" direction="ltr">Transaction History (done)</text><text x="0" y="665.5555555555555" font-family="Virgil, Segoe UI Emoji" font-size="68.9637305699482px" fill="#000000" text-anchor="start" style="white-space: pre;" direction="ltr">4. Add Admin (done)</text><text x="0" y="752" font-family="Virgil, Segoe UI Emoji" font-size="68.9637305699482px" fill="#000000" text-anchor="start" style="white-space: pre;" direction="ltr">5. Manage Refunds (done)</text></g><g transform="translate(19217.088756159115 239.83825959053138) rotate(0 0.00004999999964638846 0.00004999999964638846)" stroke="none"><path fill="#000000" d="M 1.57,-1.57 Q 1.57,-1.57 1.77,-1.27 1.98,-0.98 2.09,-0.64 2.20,-0.29 2.19,0.05 2.18,0.41 2.05,0.75 1.93,1.09 1.70,1.37 1.48,1.65 1.18,1.84 0.87,2.04 0.52,2.12 0.18,2.21 -0.17,2.18 -0.53,2.15 -0.86,2.01 -1.19,1.87 -1.46,1.63 -1.73,1.39 -1.90,1.07 -2.08,0.76 -2.15,0.41 -2.21,0.05 -2.17,-0.29 -2.12,-0.65 -1.96,-0.97 -1.80,-1.29 -1.54,-1.54 -1.29,-1.80 -0.97,-1.96 -0.65,-2.12 -0.29,-2.17 0.06,-2.21 0.41,-2.15 0.76,-2.08 1.07,-1.90 1.39,-1.73 1.63,-1.46 1.87,-1.19 2.01,-0.86 2.15,-0.53 2.18,-0.17 2.21,0.18 2.12,0.52 2.03,0.87 1.84,1.18 1.65,1.48 1.37,1.70 1.09,1.93 0.75,2.05 0.41,2.18 0.05,2.19 -0.30,2.20 -0.64,2.09 -0.98,1.98 -1.27,1.77 -1.57,1.56 -1.57,1.57 -1.57,1.57 -1.73,1.35 -1.90,1.14 -2.01,0.90 -2.12,0.66 -2.16,0.39 -2.21,0.13 -2.20,-0.13 -2.18,-0.40 -2.10,-0.65 -2.02,-0.91 -1.88,-1.14 -1.74,-1.36 -1.55,-1.55 -1.36,-1.74 -1.14,-1.88 -0.91,-2.02 -0.65,-2.10 -0.40,-2.18 -0.13,-2.20 0.13,-2.21 0.39,-2.16 0.66,-2.12 0.90,-2.01 1.14,-1.90 1.35,-1.73 1.57,-1.57 1.57,-1.57 L 1.57,-1.57 Z"></path></g><g stroke-linecap="round" transform="translate(15688.827923980522 5737.071039463055) rotate(0 758.5261743071051 745)"><path d="M0.76 -0.07 C455.03 -1.48, 909.55 -2.6, 1517.74 -0.48 M0.01 -0.18 C543.95 -3.72, 1088.52 -4.11, 1516.92 0.09 M1517.82 0.27 C1515.83 362.09, 1514.55 722.78, 1517.22 1490.79 M1517.17 0.33 C1513.82 474.2, 1513.64 948.38, 1516.94 1489.78 M1517.72 1490.66 C919.15 1486.95, 321.74 1486.78, -0.35 1490.53 M1517.22 1490.01 C1178.39 1491.15, 840.51 1491.44, 0.02 1489.65 M-0.34 1490.64 C-5.18 1036.7, -5.45 581.7, -0.35 -0.72 M-0.17 1490.08 C-5.3 981.73, -5.22 473.22, -0.09 -0.24" stroke="#000000" stroke-width="1" fill="none"></path></g><g transform="translate(15799.661257313855 5824.882269648362) rotate(0 673 228)"><text x="0" y="73.2" font-family="Cascadia, Segoe UI Emoji" font-size="76.52642982688792px" fill="#000000" text-anchor="start" style="white-space: pre;" direction="ltr">UserDiscountController</text><text x="0" y="164.4" font-family="Cascadia, Segoe UI Emoji" font-size="76.52642982688792px" fill="#000000" text-anchor="start" style="white-space: pre;" direction="ltr"></text><text x="0" y="255.60000000000002" font-family="Cascadia, Segoe UI Emoji" font-size="76.52642982688792px" fill="#000000" text-anchor="start" style="white-space: pre;" direction="ltr">- Relation &lt;Discount&gt; relation</text><text x="0" y="346.8" font-family="Cascadia, Segoe UI Emoji" font-size="76.52642982688792px" fill="#000000" text-anchor="start" style="white-space: pre;" direction="ltr"></text><text x="0" y="438" font-family="Cascadia, Segoe UI Emoji" font-size="76.52642982688792px" fill="#000000" text-anchor="start" style="white-space: pre;" direction="ltr"></text></g><g transform="translate(16415.36959064719 5867.071039463055) rotate(0 0.00004999999964638846 0.00004999999964638846)" stroke="none"><path fill="#000000" d="M 1.57,-1.57 Q 1.57,-1.57 1.77,-1.27 1.98,-0.98 2.09,-0.64 2.20,-0.29 2.19,0.05 2.18,0.41 2.05,0.75 1.93,1.09 1.70,1.37 1.48,1.65 1.18,1.84 0.87,2.04 0.52,2.12 0.18,2.21 -0.17,2.18 -0.53,2.15 -0.86,2.01 -1.19,1.87 -1.46,1.63 -1.73,1.39 -1.90,1.07 -2.08,0.76 -2.15,0.41 -2.21,0.05 -2.17,-0.29 -2.12,-0.65 -1.96,-0.97 -1.80,-1.29 -1.54,-1.54 -1.29,-1.80 -0.97,-1.96 -0.65,-2.12 -0.29,-2.17 0.06,-2.21 0.41,-2.15 0.76,-2.08 1.07,-1.90 1.39,-1.73 1.63,-1.46 1.87,-1.19 2.01,-0.86 2.15,-0.53 2.18,-0.17 2.21,0.18 2.12,0.52 2.03,0.87 1.84,1.18 1.65,1.48 1.37,1.70 1.09,1.93 0.75,2.05 0.41,2.18 0.05,2.19 -0.30,2.20 -0.64,2.09 -0.98,1.98 -1.27,1.77 -1.57,1.56 -1.57,1.57 -1.57,1.57 -1.73,1.35 -1.90,1.14 -2.01,0.90 -2.12,0.66 -2.16,0.39 -2.21,0.13 -2.20,-0.13 -2.18,-0.40 -2.10,-0.65 -2.02,-0.91 -1.88,-1.14 -1.74,-1.36 -1.55,-1.55 -1.36,-1.74 -1.14,-1.88 -0.91,-2.02 -0.65,-2.10 -0.40,-2.18 -0.13,-2.20 0.13,-2.21 0.39,-2.16 0.66,-2.12 0.90,-2.01 1.14,-1.90 1.35,-1.73 1.57,-1.57 1.57,-1.57 L 1.57,-1.57 Z"></path></g><g transform="translate(20370.171571513863 999.2931018948602) rotate(0 360 57)"><text x="0" y="79" font-family="Virgil, Segoe UI Emoji" font-size="89.35238211320971px" fill="#000000" text-anchor="start" style="white-space: pre;" direction="ltr">RefundController</text></g><g transform="translate(20369.327989717844 1213.709269923147) rotate(0 574.5 57)"><text x="0" y="79" font-family="Virgil, Segoe UI Emoji" font-size="89.35238211320971px" fill="#000000" text-anchor="start" style="white-space: pre;" direction="ltr">UserTransactionController</text></g><g transform="translate(20348.904485703126 1400.6563659585627) rotate(0 588.5 57)"><text x="0" y="79" font-family="Virgil, Segoe UI Emoji" font-size="89.35238211320971px" fill="#000000" text-anchor="start" style="white-space: pre;" direction="ltr">AdminTransactionController</text></g><g transform="translate(20358.984561118523 809.7167406708941) rotate(0 362.5 57)"><text x="0" y="79" font-family="Virgil, Segoe UI Emoji" font-size="89.35238211320971px" fill="#000000" text-anchor="start" style="white-space: pre;" direction="ltr">ServiceController</text></g><g transform="translate(20396.179239376674 1566.4153008749363) rotate(0 311.5 57)"><text x="0" y="79" font-family="Virgil, Segoe UI Emoji" font-size="89.35238211320971px" fill="#000000" text-anchor="start" style="white-space: pre;" direction="ltr">UserController</text></g><g transform="translate(20346.46039748643 378.2412601411761) rotate(0 499 57)"><text x="0" y="79" font-family="Virgil, Segoe UI Emoji" font-size="89.35238211320971px" fill="#000000" text-anchor="start" style="white-space: pre;" direction="ltr">UserDiscountController</text></g><g transform="translate(20336.633689585426 606.4130706562955) rotate(0 513 57)"><text x="0" y="79" font-family="Virgil, Segoe UI Emoji" font-size="89.35238211320971px" fill="#000000" text-anchor="start" style="white-space: pre;" direction="ltr">AdminDiscountController</text></g><g transform="translate(20351.11737619566 179.8695106884643) rotate(0 313.5 57)"><text x="0" y="79" font-family="Virgil, Segoe UI Emoji" font-size="89.35238211320971px" fill="#000000" text-anchor="start" style="white-space: pre;" direction="ltr">AuthController</text></g><g stroke-linecap="round" transform="translate(20073.24893293214 48.682286325280074) rotate(0 765.2091010762797 857.5398690070779)"><path d="M-0.59 -0.01 C588.05 2.85, 1175.25 3.31, 1531.09 -0.36 M0.1 -0.13 C549.76 -3.9, 1099.4 -4.05, 1530.5 -0.33 M1529.7 -0.17 C1524.84 485.89, 1524.71 973.45, 1529.62 1714.69 M1530.7 0.2 C1535.53 593.46, 1535.07 1187.13, 1530.49 1715.1 M1530.64 1714.74 C1095.42 1717.97, 659.55 1717.08, -0.02 1715.59 M1530.27 1714.93 C1035.81 1715.04, 541.05 1715.16, 0 1715.2 M-0.46 1715.86 C3.17 1151.24, 3.41 588.32, 0.72 -0.46 M0.05 1715.1 C-6.93 1168.84, -6.78 622.92, -0.09 -0.26" stroke="#000000" stroke-width="1" fill="none"></path></g><g stroke-linecap="round"><g transform="translate(15692.423242298546 5973.278704748225) rotate(0 751.4343439043259 -6.20310368505443)"><path d="M-1.04 0.18 C249.68 -2.04, 1253.11 -10.48, 1503.9 -12.58 M0.62 -0.78 C251.3 -2.94, 1253.01 -9.8, 1503.48 -11.61" stroke="#000000" stroke-width="1" fill="none"></path></g></g><g stroke-linecap="round"><g transform="translate(15680.92155029911 6283.829141982278) rotate(0 759.1796089313693 -3.4080890498662484)"><path d="M1.08 0.67 C253.97 -0.53, 1265.15 -6.21, 1518.17 -7.49 M0.19 -0.02 C252.84 -0.98, 1264.06 -4.37, 1517.19 -5.86" stroke="#000000" stroke-width="1" fill="none"></path></g></g><g transform="translate(15767.487801633955 6383.138071009915) rotate(0 673 137)"><text x="0" y="73.33333333333333" font-family="Cascadia, Segoe UI Emoji" font-size="76.52642982688792px" fill="#000000" text-anchor="start" style="white-space: pre;" direction="ltr">+ UserDiscountController </text><text x="0" y="164.66666666666666" font-family="Cascadia, Segoe UI Emoji" font-size="76.52642982688792px" fill="#000000" text-anchor="start" style="white-space: pre;" direction="ltr">(Relation &lt;Discount&gt; relation)</text><text x="0" y="256" font-family="Cascadia, Segoe UI Emoji" font-size="76.52642982688792px" fill="#000000" text-anchor="start" style="white-space: pre;" direction="ltr">+ void print ()</text></g><g stroke-linecap="round" transform="translate(13162.644659461625 6301.416911892867) rotate(0 758.5261743071051 744.9999999999995)"><path d="M0.7 0.29 C510.45 6.16, 1019.8 5.42, 1517.61 -0.43 M0.4 -0.32 C303.16 -4.48, 606.97 -4.74, 1516.98 -0.22 M1517.58 0.75 C1519.81 396.78, 1520.19 791.86, 1516.54 1490.01 M1517.39 -0.23 C1513.23 323.88, 1513.01 647.97, 1517.06 1489.75 M1516.35 1490.28 C942.19 1491.86, 368.05 1492.98, 0.08 1489.77 M1516.96 1490.27 C1068.16 1494.52, 618.82 1494.92, -0.35 1490.19 M-0.46 1489.31 C1.79 1032.11, 2.44 572, -0.02 0.22 M-0.25 1490.22 C2.47 997.84, 2.75 505.02, -0.17 -0.19" stroke="#000000" stroke-width="1" fill="none"></path></g><g stroke-linecap="round" transform="translate(11085.198316943337 6274.293190600271) rotate(0 846.7071292538649 744.9999999999995)"><path d="M0.29 -0.19 C614.12 -7.18, 1227.7 -6.8, 1692.88 -0.63 M-0.12 0.2 C564.33 -2.84, 1128.33 -2.98, 1693.73 -0.37 M1693.69 -0.39 C1688.53 342.67, 1687.73 685.65, 1694.04 1490.53 M1693.63 0.2 C1697.18 359.35, 1696.81 718.09, 1693.37 1490.12 M1693 1490.17 C1117.92 1496.49, 542.12 1496.87, -0.12 1490.02 M1693.51 1489.83 C1129.31 1486.1, 565.23 1485.89, -0.26 1489.78 M0.18 1490.48 C-0.88 1001.83, -1.96 512.88, -0.67 -0.14 M0.01 1489.97 C-0.15 967.64, -0.41 445.44, 0.22 -0.16" stroke="#000000" stroke-width="1" fill="none"></path></g><g transform="translate(13273.477992794958 6389.228142078174) rotate(0 673 228)"><text x="0" y="73.2" font-family="Cascadia, Segoe UI Emoji" font-size="76.52642982688792px" fill="#000000" text-anchor="start" style="white-space: pre;" direction="ltr">AdminDiscountController</text><text x="0" y="164.4" font-family="Cascadia, Segoe UI Emoji" font-size="76.52642982688792px" fill="#000000" text-anchor="start" style="white-space: pre;" direction="ltr"></text><text x="0" y="255.60000000000002" font-family="Cascadia, Segoe UI Emoji" font-size="76.52642982688792px" fill="#000000" text-anchor="start" style="white-space: pre;" direction="ltr">- Relation &lt;Discount&gt; relation</text><text x="0" y="346.8" font-family="Cascadia, Segoe UI Emoji" font-size="76.52642982688792px" fill="#000000" text-anchor="start" style="white-space: pre;" direction="ltr"></text><text x="0" y="438" font-family="Cascadia, Segoe UI Emoji" font-size="76.52642982688792px" fill="#000000" text-anchor="start" style="white-space: pre;" direction="ltr"></text></g><g transform="translate(11196.031650276671 6362.104420785578) rotate(0 673 228)"><text x="0" y="73.2" font-family="Cascadia, Segoe UI Emoji" font-size="76.52642982688792px" fill="#000000" text-anchor="start" style="white-space: pre;" direction="ltr">ServiceController</text><text x="0" y="164.4" font-family="Cascadia, Segoe UI Emoji" font-size="76.52642982688792px" fill="#000000" text-anchor="start" style="white-space: pre;" direction="ltr"></text><text x="0" y="255.60000000000002" font-family="Cascadia, Segoe UI Emoji" font-size="76.52642982688792px" fill="#000000" text-anchor="start" style="white-space: pre;" direction="ltr">- Relation &lt;Provider&gt; relation</text><text x="0" y="346.8" font-family="Cascadia, Segoe UI Emoji" font-size="76.52642982688792px" fill="#000000" text-anchor="start" style="white-space: pre;" direction="ltr"></text><text x="0" y="438" font-family="Cascadia, Segoe UI Emoji" font-size="76.52642982688792px" fill="#000000" text-anchor="start" style="white-space: pre;" direction="ltr"></text></g><g transform="translate(13889.186326128294 6431.416911892867) rotate(0 0.00004999999964638846 0.00005000000010113581)" stroke="none"><path fill="#000000" d="M 1.57,-1.57 Q 1.57,-1.57 1.77,-1.27 1.98,-0.98 2.09,-0.64 2.20,-0.29 2.19,0.05 2.18,0.41 2.05,0.75 1.93,1.09 1.70,1.37 1.48,1.65 1.18,1.84 0.87,2.04 0.52,2.12 0.18,2.21 -0.17,2.18 -0.53,2.15 -0.86,2.01 -1.19,1.87 -1.46,1.63 -1.73,1.39 -1.90,1.07 -2.08,0.76 -2.15,0.41 -2.21,0.05 -2.17,-0.29 -2.12,-0.65 -1.96,-0.97 -1.80,-1.29 -1.54,-1.54 -1.29,-1.80 -0.97,-1.96 -0.65,-2.12 -0.29,-2.17 0.06,-2.21 0.41,-2.15 0.76,-2.08 1.07,-1.90 1.39,-1.73 1.63,-1.46 1.87,-1.19 2.01,-0.86 2.15,-0.53 2.18,-0.17 2.21,0.18 2.12,0.52 2.03,0.87 1.84,1.18 1.65,1.48 1.37,1.70 1.09,1.93 0.75,2.05 0.41,2.18 0.05,2.19 -0.30,2.20 -0.64,2.09 -0.98,1.98 -1.27,1.77 -1.57,1.56 -1.57,1.57 -1.57,1.57 -1.73,1.35 -1.90,1.14 -2.01,0.90 -2.12,0.66 -2.16,0.39 -2.21,0.13 -2.20,-0.13 -2.18,-0.40 -2.10,-0.65 -2.02,-0.91 -1.88,-1.14 -1.74,-1.36 -1.55,-1.55 -1.36,-1.74 -1.14,-1.88 -0.91,-2.02 -0.65,-2.10 -0.40,-2.18 -0.13,-2.20 0.13,-2.21 0.39,-2.16 0.66,-2.12 0.90,-2.01 1.14,-1.90 1.35,-1.73 1.57,-1.57 1.57,-1.57 L 1.57,-1.57 Z"></path></g><g transform="translate(11811.739983610005 6404.29319060027) rotate(0 0.00005000000010113581 0.00005000000010113581)" stroke="none"><path fill="#000000" d="M 1.57,-1.57 Q 1.57,-1.57 1.77,-1.27 1.98,-0.98 2.09,-0.64 2.20,-0.29 2.19,0.05 2.18,0.41 2.05,0.75 1.93,1.09 1.70,1.37 1.48,1.65 1.18,1.84 0.87,2.04 0.52,2.12 0.18,2.21 -0.17,2.18 -0.53,2.15 -0.86,2.01 -1.19,1.87 -1.46,1.63 -1.73,1.39 -1.90,1.07 -2.08,0.76 -2.15,0.41 -2.21,0.05 -2.17,-0.29 -2.12,-0.65 -1.96,-0.97 -1.80,-1.29 -1.54,-1.54 -1.29,-1.80 -0.97,-1.96 -0.65,-2.12 -0.29,-2.17 0.06,-2.21 0.41,-2.15 0.76,-2.08 1.07,-1.90 1.39,-1.73 1.63,-1.46 1.87,-1.19 2.01,-0.86 2.15,-0.53 2.18,-0.17 2.21,0.18 2.12,0.52 2.03,0.87 1.84,1.18 1.65,1.48 1.37,1.70 1.09,1.93 0.75,2.05 0.41,2.18 0.05,2.19 -0.30,2.20 -0.64,2.09 -0.98,1.98 -1.27,1.77 -1.57,1.56 -1.57,1.57 -1.57,1.57 -1.73,1.35 -1.90,1.14 -2.01,0.90 -2.12,0.66 -2.16,0.39 -2.21,0.13 -2.20,-0.13 -2.18,-0.40 -2.10,-0.65 -2.02,-0.91 -1.88,-1.14 -1.74,-1.36 -1.55,-1.55 -1.36,-1.74 -1.14,-1.88 -0.91,-2.02 -0.65,-2.10 -0.40,-2.18 -0.13,-2.20 0.13,-2.21 0.39,-2.16 0.66,-2.12 0.90,-2.01 1.14,-1.90 1.35,-1.73 1.57,-1.57 1.57,-1.57 L 1.57,-1.57 Z"></path></g><g stroke-linecap="round"><g transform="translate(13166.239977779649 6537.624577178038) rotate(0 751.4923459131687 -5.221815380129556)"><path d="M0.29 1.09 C250.42 -0.91, 1251.27 -9.32, 1501.85 -11.53 M-1.02 0.61 C249.38 -1.22, 1253.26 -8.04, 1504 -10.01" stroke="#000000" stroke-width="1" fill="none"></path></g></g><g stroke-linecap="round"><g transform="translate(11088.793635261361 6510.500855885442) rotate(0 847.349844345656 -1.4397927022264412)"><path d="M0.67 -0.88 C283.12 -1.52, 1412.94 -3.5, 1695.13 -4.15 M-0.43 1.27 C281.87 0.83, 1411.67 -1.91, 1694.46 -2.78" stroke="#000000" stroke-width="1" fill="none"></path></g></g><g stroke-linecap="round"><g transform="translate(13154.738285780213 6848.175014412091) rotate(0 759.2079232917504 -3.764315907738819)"><path d="M1.09 -1.06 C254.05 -2.25, 1265.47 -5.53, 1518.22 -6.84 M0.2 0.99 C252.96 -0.55, 1264.54 -6.99, 1517.26 -8.52" stroke="#000000" stroke-width="1" fill="none"></path></g></g><g stroke-linecap="round"><g transform="translate(11077.291943261926 6821.051293119495) rotate(0 858.2071445152142 -3.9744888476634515)"><path d="M-0.88 0.52 C285.38 -1, 1431.04 -7.17, 1717.29 -8.47 M0.86 -0.25 C286.96 -1.7, 1429.81 -5.83, 1716.18 -7.36" stroke="#000000" stroke-width="1" fill="none"></path></g></g><g transform="translate(13241.304537115058 6947.483943439726) rotate(0 673 137)"><text x="0" y="73.33333333333333" font-family="Cascadia, Segoe UI Emoji" font-size="76.52642982688792px" fill="#000000" text-anchor="start" style="white-space: pre;" direction="ltr">+ AdminDiscountController </text><text x="0" y="164.66666666666666" font-family="Cascadia, Segoe UI Emoji" font-size="76.52642982688792px" fill="#000000" text-anchor="start" style="white-space: pre;" direction="ltr">(Relation &lt;Discount&gt; relation)</text><text x="0" y="256" font-family="Cascadia, Segoe UI Emoji" font-size="76.52642982688792px" fill="#000000" text-anchor="start" style="white-space: pre;" direction="ltr">+ AddDiscount (Discount Obj)</text></g><g transform="translate(11163.85819459677 6920.360222147131) rotate(0 763 182.5)"><text x="0" y="73.25" font-family="Cascadia, Segoe UI Emoji" font-size="76.52642982688792px" fill="#000000" text-anchor="start" style="white-space: pre;" direction="ltr">+ ServiceController </text><text x="0" y="164.5" font-family="Cascadia, Segoe UI Emoji" font-size="76.52642982688792px" fill="#000000" text-anchor="start" style="white-space: pre;" direction="ltr">(Relation &lt;Provider&gt; relation)</text><text x="0" y="255.75" font-family="Cascadia, Segoe UI Emoji" font-size="76.52642982688792px" fill="#000000" text-anchor="start" style="white-space: pre;" direction="ltr">+ AddServiceProvider (string </text><text x="0" y="347" font-family="Cascadia, Segoe UI Emoji" font-size="76.52642982688792px" fill="#000000" text-anchor="start" style="white-space: pre;" direction="ltr">serviceName, string providerName) </text></g><g stroke-linecap="round" transform="translate(17860.0215142194 5768.16609749194) rotate(0 900.382569440837 745)"><path d="M-0.55 0.53 C366.28 -6.32, 730.87 -6.15, 1800.75 -0.8 M-0.16 0.05 C615.04 4.72, 1230.02 4.9, 1801.1 -0.24 M1800.09 -0.17 C1796.8 312.74, 1795.75 627.43, 1800.06 1490.13 M1801.11 0.11 C1802.84 486.78, 1802.66 972.89, 1800.48 1489.64 M1800.46 1490.41 C1112.35 1497.27, 423.43 1497.71, 0.54 1490.56 M1800.55 1490.35 C1436.84 1491.68, 1073.63 1492.2, 0.25 1489.97 M-0.27 1490.18 C-5.29 942.99, -4.64 396.86, -0.8 0.43 M0.18 1489.63 C5.84 1103.65, 5.8 716.8, 0.32 -0.32" stroke="#000000" stroke-width="1" fill="none"></path></g><g stroke-linecap="round" transform="translate(19.250277772035588 6292.054735768399) rotate(0 758.5261743071051 745)"><path d="M-0.45 0.31 C466.01 4.7, 932.27 5.26, 1517.38 0.61 M0.09 -0.12 C589.54 1.35, 1179.05 1.71, 1517.18 -0.08 M1517.2 0.22 C1513.52 509.91, 1514.61 1020.16, 1516.61 1489.72 M1517.23 -0.26 C1512.48 495.47, 1512.55 989.93, 1516.79 1490 M1517.13 1490.17 C1089.86 1484.13, 660.71 1485.06, -0.51 1490.25 M1517.02 1490.25 C968.88 1492.01, 421.19 1492.02, -0.05 1489.96 M0.7 1489.77 C-3.99 1138.05, -3.34 786.28, 0.02 0.02 M0.23 1490.35 C0.99 982.11, 0.55 474.13, 0 -0.08" stroke="#000000" stroke-width="1" fill="none"></path></g><g transform="translate(130.08361110537135 6379.865965953706) rotate(0 583.5 228)"><text x="0" y="73.2" font-family="Cascadia, Segoe UI Emoji" font-size="76.52642982688792px" fill="#000000" text-anchor="start" style="white-space: pre;" direction="ltr">UserController</text><text x="0" y="164.4" font-family="Cascadia, Segoe UI Emoji" font-size="76.52642982688792px" fill="#000000" text-anchor="start" style="white-space: pre;" direction="ltr"></text><text x="0" y="255.60000000000002" font-family="Cascadia, Segoe UI Emoji" font-size="76.52642982688792px" fill="#000000" text-anchor="start" style="white-space: pre;" direction="ltr">- Relation &lt;User&gt; relation</text><text x="0" y="346.8" font-family="Cascadia, Segoe UI Emoji" font-size="76.52642982688792px" fill="#000000" text-anchor="start" style="white-space: pre;" direction="ltr"></text><text x="0" y="438" font-family="Cascadia, Segoe UI Emoji" font-size="76.52642982688792px" fill="#000000" text-anchor="start" style="white-space: pre;" direction="ltr"></text></g><g transform="translate(745.7919444387044 6422.054735768399) rotate(0 0.00005000000010113581 0.00005000000010113581)" stroke="none"><path fill="#000000" d="M 1.57,-1.57 Q 1.57,-1.57 1.77,-1.27 1.98,-0.98 2.09,-0.64 2.20,-0.29 2.19,0.05 2.18,0.41 2.05,0.75 1.93,1.09 1.70,1.37 1.48,1.65 1.18,1.84 0.87,2.04 0.52,2.12 0.18,2.21 -0.17,2.18 -0.53,2.15 -0.86,2.01 -1.19,1.87 -1.46,1.63 -1.73,1.39 -1.90,1.07 -2.08,0.76 -2.15,0.41 -2.21,0.05 -2.17,-0.29 -2.12,-0.65 -1.96,-0.97 -1.80,-1.29 -1.54,-1.54 -1.29,-1.80 -0.97,-1.96 -0.65,-2.12 -0.29,-2.17 0.06,-2.21 0.41,-2.15 0.76,-2.08 1.07,-1.90 1.39,-1.73 1.63,-1.46 1.87,-1.19 2.01,-0.86 2.15,-0.53 2.18,-0.17 2.21,0.18 2.12,0.52 2.03,0.87 1.84,1.18 1.65,1.48 1.37,1.70 1.09,1.93 0.75,2.05 0.41,2.18 0.05,2.19 -0.30,2.20 -0.64,2.09 -0.98,1.98 -1.27,1.77 -1.57,1.56 -1.57,1.57 -1.57,1.57 -1.73,1.35 -1.90,1.14 -2.01,0.90 -2.12,0.66 -2.16,0.39 -2.21,0.13 -2.20,-0.13 -2.18,-0.40 -2.10,-0.65 -2.02,-0.91 -1.88,-1.14 -1.74,-1.36 -1.55,-1.55 -1.36,-1.74 -1.14,-1.88 -0.91,-2.02 -0.65,-2.10 -0.40,-2.18 -0.13,-2.20 0.13,-2.21 0.39,-2.16 0.66,-2.12 0.90,-2.01 1.14,-1.90 1.35,-1.73 1.57,-1.57 1.57,-1.57 L 1.57,-1.57 Z"></path></g><g stroke-linecap="round"><g transform="translate(22.8455960900601 6528.262401053571) rotate(0 751.0151303709247 -6.082751026634469)"><path d="M-0.42 0.08 C250.1 -1.77, 1251.81 -8.82, 1502.45 -10.59 M1.57 -0.93 C251.95 -3.14, 1251.03 -10.32, 1501.25 -12.24" stroke="#000000" stroke-width="1" fill="none"></path></g></g><g stroke-linecap="round"><g transform="translate(11.343904090625983 6838.812838287623) rotate(0 758.9049647111592 -4.752604078932563)"><path d="M0.08 -0.46 C253.19 -1.59, 1265.97 -6.15, 1519.15 -7.18 M-1.34 -1.75 C251.65 -3.21, 1265.31 -7.93, 1518.68 -9.04" stroke="#000000" stroke-width="1" fill="none"></path></g></g><g transform="translate(113.24618351950085 6949.623605568521) rotate(0 583.5 137)"><text x="0" y="73.33333333333333" font-family="Cascadia, Segoe UI Emoji" font-size="76.52642982688792px" fill="#000000" text-anchor="start" style="white-space: pre;" direction="ltr">+ UserDiscountController </text><text x="0" y="164.66666666666666" font-family="Cascadia, Segoe UI Emoji" font-size="76.52642982688792px" fill="#000000" text-anchor="start" style="white-space: pre;" direction="ltr">(Relation &lt;User&gt; relation)</text><text x="0" y="256" font-family="Cascadia, Segoe UI Emoji" font-size="76.52642982688792px" fill="#000000" text-anchor="start" style="white-space: pre;" direction="ltr">+ AddAdmin(string Email)</text></g><g stroke-linecap="round" transform="translate(5432.046906910701 6193.760923860455) rotate(0 936.8050328672016 545.6343404730496)"><path d="M0.01 0.34 C500.6 0.64, 1000.66 -0.36, 1873.38 -0.52 M-0.16 0.28 C659.53 3.63, 1318.92 3.21, 1873.84 0.4 M1873.74 0.02 C1872.43 251.11, 1872.26 502.88, 1873.57 1091.12 M1873.88 -0.26 C1870.25 410.39, 1870.79 820.55, 1873.4 1091.34 M1873.32 1091.07 C1373.71 1097.82, 873.97 1098.23, 0.13 1091.93 M1873.48 1091.2 C1361.14 1095.78, 848.57 1096.33, -0.19 1091.56 M0.41 1090.79 C2.77 802.3, 3.53 514.01, 0.64 -0.22 M-0.37 1091.44 C-4.4 822.26, -4.34 553.35, -0.36 0.01" stroke="#000000" stroke-width="1" fill="none"></path></g><g transform="translate(17970.854847552735 5855.977327677247) rotate(0 807.5 228)"><text x="0" y="73.2" font-family="Cascadia, Segoe UI Emoji" font-size="76.52642982688792px" fill="#000000" text-anchor="start" style="white-space: pre;" direction="ltr">RefundController</text><text x="0" y="164.4" font-family="Cascadia, Segoe UI Emoji" font-size="76.52642982688792px" fill="#000000" text-anchor="start" style="white-space: pre;" direction="ltr"></text><text x="0" y="255.60000000000002" font-family="Cascadia, Segoe UI Emoji" font-size="76.52642982688792px" fill="#000000" text-anchor="start" style="white-space: pre;" direction="ltr">- Relation &lt;RefundRequests&gt; relation</text><text x="0" y="346.8" font-family="Cascadia, Segoe UI Emoji" font-size="76.52642982688792px" fill="#000000" text-anchor="start" style="white-space: pre;" direction="ltr"></text><text x="0" y="438" font-family="Cascadia, Segoe UI Emoji" font-size="76.52642982688792px" fill="#000000" text-anchor="start" style="white-space: pre;" direction="ltr"></text></g><g transform="translate(5542.880240244037 6281.5721540457625) rotate(0 740.5 228)"><text x="0" y="73.2" font-family="Cascadia, Segoe UI Emoji" font-size="76.52642982688792px" fill="#000000" text-anchor="start" style="white-space: pre;" direction="ltr">AdminTransactionController</text><text x="0" y="164.4" font-family="Cascadia, Segoe UI Emoji" font-size="76.52642982688792px" fill="#000000" text-anchor="start" style="white-space: pre;" direction="ltr"></text><text x="0" y="255.60000000000002" font-family="Cascadia, Segoe UI Emoji" font-size="76.52642982688792px" fill="#000000" text-anchor="start" style="white-space: pre;" direction="ltr">- Relation &lt;Transaction&gt; relation</text><text x="0" y="346.8" font-family="Cascadia, Segoe UI Emoji" font-size="76.52642982688792px" fill="#000000" text-anchor="start" style="white-space: pre;" direction="ltr"></text><text x="0" y="438" font-family="Cascadia, Segoe UI Emoji" font-size="76.52642982688792px" fill="#000000" text-anchor="start" style="white-space: pre;" direction="ltr"></text></g><g transform="translate(18586.56318088607 5898.16609749194) rotate(0 0.00004999999964638846 0.00004999999964638846)" stroke="none"><path fill="#000000" d="M 1.57,-1.57 Q 1.57,-1.57 1.77,-1.27 1.98,-0.98 2.09,-0.64 2.20,-0.29 2.19,0.05 2.18,0.41 2.05,0.75 1.93,1.09 1.70,1.37 1.48,1.65 1.18,1.84 0.87,2.04 0.52,2.12 0.18,2.21 -0.17,2.18 -0.53,2.15 -0.86,2.01 -1.19,1.87 -1.46,1.63 -1.73,1.39 -1.90,1.07 -2.08,0.76 -2.15,0.41 -2.21,0.05 -2.17,-0.29 -2.12,-0.65 -1.96,-0.97 -1.80,-1.29 -1.54,-1.54 -1.29,-1.80 -0.97,-1.96 -0.65,-2.12 -0.29,-2.17 0.06,-2.21 0.41,-2.15 0.76,-2.08 1.07,-1.90 1.39,-1.73 1.63,-1.46 1.87,-1.19 2.01,-0.86 2.15,-0.53 2.18,-0.17 2.21,0.18 2.12,0.52 2.03,0.87 1.84,1.18 1.65,1.48 1.37,1.70 1.09,1.93 0.75,2.05 0.41,2.18 0.05,2.19 -0.30,2.20 -0.64,2.09 -0.98,1.98 -1.27,1.77 -1.57,1.56 -1.57,1.57 -1.57,1.57 -1.73,1.35 -1.90,1.14 -2.01,0.90 -2.12,0.66 -2.16,0.39 -2.21,0.13 -2.20,-0.13 -2.18,-0.40 -2.10,-0.65 -2.02,-0.91 -1.88,-1.14 -1.74,-1.36 -1.55,-1.55 -1.36,-1.74 -1.14,-1.88 -0.91,-2.02 -0.65,-2.10 -0.40,-2.18 -0.13,-2.20 0.13,-2.21 0.39,-2.16 0.66,-2.12 0.90,-2.01 1.14,-1.90 1.35,-1.73 1.57,-1.57 1.57,-1.57 L 1.57,-1.57 Z"></path></g><g transform="translate(9374.990313746286 7900.325435706444) rotate(0 0.00005000000010113581 0.00005000000010113581)" stroke="none"><path fill="#000000" d="M 1.57,-1.57 Q 1.57,-1.57 1.77,-1.27 1.98,-0.98 2.09,-0.64 2.20,-0.29 2.19,0.05 2.18,0.41 2.05,0.75 1.93,1.09 1.70,1.37 1.48,1.65 1.18,1.84 0.87,2.04 0.52,2.12 0.18,2.21 -0.17,2.18 -0.53,2.15 -0.86,2.01 -1.19,1.87 -1.46,1.63 -1.73,1.39 -1.90,1.07 -2.08,0.76 -2.15,0.41 -2.21,0.05 -2.17,-0.29 -2.12,-0.65 -1.96,-0.97 -1.80,-1.29 -1.54,-1.54 -1.29,-1.80 -0.97,-1.96 -0.65,-2.12 -0.29,-2.17 0.06,-2.21 0.41,-2.15 0.76,-2.08 1.07,-1.90 1.39,-1.73 1.63,-1.46 1.87,-1.19 2.01,-0.86 2.15,-0.53 2.18,-0.17 2.21,0.18 2.12,0.52 2.03,0.87 1.84,1.18 1.65,1.48 1.37,1.70 1.09,1.93 0.75,2.05 0.41,2.18 0.05,2.19 -0.30,2.20 -0.64,2.09 -0.98,1.98 -1.27,1.77 -1.57,1.56 -1.57,1.57 -1.57,1.57 -1.73,1.35 -1.90,1.14 -2.01,0.90 -2.12,0.66 -2.16,0.39 -2.21,0.13 -2.20,-0.13 -2.18,-0.40 -2.10,-0.65 -2.02,-0.91 -1.88,-1.14 -1.74,-1.36 -1.55,-1.55 -1.36,-1.74 -1.14,-1.88 -0.91,-2.02 -0.65,-2.10 -0.40,-2.18 -0.13,-2.20 0.13,-2.21 0.39,-2.16 0.66,-2.12 0.90,-2.01 1.14,-1.90 1.35,-1.73 1.57,-1.57 1.57,-1.57 L 1.57,-1.57 Z"></path></g><g stroke-linecap="round"><g transform="translate(17863.616832537424 6004.373762777112) rotate(0 906.8208203724334 -5.6204927400617635)"><path d="M1.19 -1.03 C303.54 -3.21, 1511.25 -10.34, 1813.29 -12.28 M0.35 1.04 C302.6 -1.07, 1510.2 -8.98, 1812.26 -11.16" stroke="#000000" stroke-width="1" fill="none"></path></g></g><g stroke-linecap="round"><g transform="translate(5435.642225228726 6429.968589145626) rotate(0 929.8724312336952 -0.1874458933752976)"><path d="M0.06 0.56 C309.85 0.32, 1548.93 -0.71, 1858.77 -0.94 M-1.37 -0.19 C308.81 -0.35, 1551.19 0.05, 1861.12 0.11" stroke="#000000" stroke-width="1" fill="none"></path></g></g><g stroke-linecap="round"><g transform="translate(17852.11514053799 6314.9242000111635) rotate(0 905.058365319911 -5.843439447448873)"><path d="M-1.03 -0.17 C300.31 -2.29, 1507.27 -9.71, 1808.85 -11.52 M0.63 -1.3 C302.28 -2.71, 1509.47 -8.03, 1811.15 -9.99" stroke="#000000" stroke-width="1" fill="none"></path></g></g><g stroke-linecap="round"><g transform="translate(5450.978253322773 6613.998220578554) rotate(0 922.6229892249714 3.797953009909179)"><path d="M0.56 -0.7 C209.27 0.2, 945.63 3.91, 1252.77 5.41 C1559.9 6.91, 1745 8.01, 1843.36 8.29 M-0.6 1.55 C208.43 2.61, 947.25 5.98, 1254.99 6.77 C1562.73 7.56, 1747.92 6.09, 1845.85 6.28" stroke="#000000" stroke-width="1" fill="none"></path></g></g><g transform="translate(17938.681391872837 6410.409151782479) rotate(0 807.5 182.5)"><text x="0" y="73.25" font-family="Cascadia, Segoe UI Emoji" font-size="76.52642982688792px" fill="#000000" text-anchor="start" style="white-space: pre;" direction="ltr">+ RefundController </text><text x="0" y="164.5" font-family="Cascadia, Segoe UI Emoji" font-size="76.52642982688792px" fill="#000000" text-anchor="start" style="white-space: pre;" direction="ltr">(Relation &lt;RefundRequests&gt; relation)</text><text x="0" y="255.75" font-family="Cascadia, Segoe UI Emoji" font-size="76.52642982688792px" fill="#000000" text-anchor="start" style="white-space: pre;" direction="ltr">+ void ViewRefundRequests ()</text><text x="0" y="347" font-family="Cascadia, Segoe UI Emoji" font-size="76.52642982688792px" fill="#000000" text-anchor="start" style="white-space: pre;" direction="ltr">+ EvaluateRefund ()</text></g><g transform="translate(5541.378401990772 6697.971560273583) rotate(0 751.5 187)"><text x="0" y="75.5" font-family="Cascadia, Segoe UI Emoji" font-size="77.68078342422373px" fill="#000000" text-anchor="start" style="white-space: pre;" direction="ltr">+ AdminTransactionController </text><text x="0" y="169" font-family="Cascadia, Segoe UI Emoji" font-size="77.68078342422373px" fill="#000000" text-anchor="start" style="white-space: pre;" direction="ltr">(Relation &lt;Transaction&gt; relation)</text><text x="0" y="262.5" font-family="Cascadia, Segoe UI Emoji" font-size="77.68078342422373px" fill="#000000" text-anchor="start" style="white-space: pre;" direction="ltr">+ void PrintTransactionHistory </text><text x="0" y="356" font-family="Cascadia, Segoe UI Emoji" font-size="77.68078342422373px" fill="#000000" text-anchor="start" style="white-space: pre;" direction="ltr">(string type)</text></g><g stroke-linecap="round" transform="translate(8063.185114999582 6190.751431690087) rotate(0 1304.864880748272 890.6903655937867)"><path d="M-0.63 0.74 C1036.76 2.34, 2072.34 1.82, 2609.72 0.09 M-0.33 0.2 C868.08 0.59, 1736.24 0.58, 2609.36 -0.09 M2609.77 0.46 C2613.16 401.9, 2612.64 803.25, 2609.56 1780.78 M2610.05 -0.28 C2602.76 430.42, 2602.93 860.99, 2609.78 1781.11 M2609.68 1780.89 C1939.61 1781.97, 1267.62 1780.88, -0.55 1781.55 M2609.65 1781.51 C1907.72 1788.89, 1204.93 1789.06, 0.38 1780.98 M-0.22 1782.04 C1.81 1132.99, 0.71 484.61, -0.32 -0.52 M0.39 1781.13 C-3.32 1100.72, -3.57 420.1, 0.37 0.03" stroke="#000000" stroke-width="1" fill="none"></path></g><g transform="translate(8128.010802812245 6278.562698438847) rotate(0 830 365)"><text x="0" y="73.25" font-family="Cascadia, Segoe UI Emoji" font-size="76.52642982688792px" fill="#000000" text-anchor="start" style="white-space: pre;" direction="ltr">UserTransactionController</text><text x="0" y="164.5" font-family="Cascadia, Segoe UI Emoji" font-size="76.52642982688792px" fill="#000000" text-anchor="start" style="white-space: pre;" direction="ltr"></text><text x="0" y="255.75" font-family="Cascadia, Segoe UI Emoji" font-size="76.52642982688792px" fill="#000000" text-anchor="start" style="white-space: pre;" direction="ltr">- Relation &lt;Transaction&gt; relation1</text><text x="0" y="347" font-family="Cascadia, Segoe UI Emoji" font-size="76.52642982688792px" fill="#000000" text-anchor="start" style="white-space: pre;" direction="ltr">- Relation &lt;User&gt; relation2</text><text x="0" y="438.25" font-family="Cascadia, Segoe UI Emoji" font-size="76.52642982688792px" fill="#000000" text-anchor="start" style="white-space: pre;" direction="ltr">- Relation &lt;RefundRequests&gt; relation3</text><text x="0" y="529.5" font-family="Cascadia, Segoe UI Emoji" font-size="76.52642982688792px" fill="#000000" text-anchor="start" style="white-space: pre;" direction="ltr">- Relation &lt;Services&gt; relation4</text><text x="0" y="620.75" font-family="Cascadia, Segoe UI Emoji" font-size="76.52642982688792px" fill="#000000" text-anchor="start" style="white-space: pre;" direction="ltr"></text><text x="0" y="712" font-family="Cascadia, Segoe UI Emoji" font-size="76.52642982688792px" fill="#000000" text-anchor="start" style="white-space: pre;" direction="ltr"></text></g><g transform="translate(8789.726781666252 6320.751431690087) rotate(0 0.00005000000010113581 0.00005000000010113581)" stroke="none"><path fill="#000000" d="M 1.57,-1.57 Q 1.57,-1.57 1.77,-1.27 1.98,-0.98 2.09,-0.64 2.20,-0.29 2.19,0.05 2.18,0.41 2.05,0.75 1.93,1.09 1.70,1.37 1.48,1.65 1.18,1.84 0.87,2.04 0.52,2.12 0.18,2.21 -0.17,2.18 -0.53,2.15 -0.86,2.01 -1.19,1.87 -1.46,1.63 -1.73,1.39 -1.90,1.07 -2.08,0.76 -2.15,0.41 -2.21,0.05 -2.17,-0.29 -2.12,-0.65 -1.96,-0.97 -1.80,-1.29 -1.54,-1.54 -1.29,-1.80 -0.97,-1.96 -0.65,-2.12 -0.29,-2.17 0.06,-2.21 0.41,-2.15 0.76,-2.08 1.07,-1.90 1.39,-1.73 1.63,-1.46 1.87,-1.19 2.01,-0.86 2.15,-0.53 2.18,-0.17 2.21,0.18 2.12,0.52 2.03,0.87 1.84,1.18 1.65,1.48 1.37,1.70 1.09,1.93 0.75,2.05 0.41,2.18 0.05,2.19 -0.30,2.20 -0.64,2.09 -0.98,1.98 -1.27,1.77 -1.57,1.56 -1.57,1.57 -1.57,1.57 -1.73,1.35 -1.90,1.14 -2.01,0.90 -2.12,0.66 -2.16,0.39 -2.21,0.13 -2.20,-0.13 -2.18,-0.40 -2.10,-0.65 -2.02,-0.91 -1.88,-1.14 -1.74,-1.36 -1.55,-1.55 -1.36,-1.74 -1.14,-1.88 -0.91,-2.02 -0.65,-2.10 -0.40,-2.18 -0.13,-2.20 0.13,-2.21 0.39,-2.16 0.66,-2.12 0.90,-2.01 1.14,-1.90 1.35,-1.73 1.57,-1.57 1.57,-1.57 L 1.57,-1.57 Z"></path></g><g stroke-linecap="round"><g transform="translate(8066.780433317606 6426.959096975257) rotate(0 1301.6668298200038 -3.2956521593000616)"><path d="M0.93 0.93 C434.99 -0.51, 2169.65 -6.11, 2603.37 -7.52 M-0.04 0.37 C433.95 -0.34, 2168.73 -4.82, 2602.48 -5.9" stroke="#000000" stroke-width="1" fill="none"></path></g></g><g stroke-linecap="round"><g transform="translate(8062.946535984476 6871.697769042219) rotate(0 1305.5101715422359 -8.483760317021733)"><path d="M0.93 0.11 C207.8 -1.64, 807.33 -7.1, 1242.35 -9.61 C1677.37 -12.12, 2382.89 -13.98, 2611.07 -14.94 M-0.04 -0.87 C206.59 -2.51, 806.41 -5.38, 1241.48 -8.08 C1676.55 -10.78, 2381.98 -16.04, 2610.37 -17.08" stroke="#000000" stroke-width="1" fill="none"></path></g></g><g transform="translate(8134.1769054791 6905.829785264141) rotate(0 1252 515)"><text x="0" y="74.63636363636364" font-family="Cascadia, Segoe UI Emoji" font-size="77.68078342422373px" fill="#000000" text-anchor="start" style="white-space: pre;" direction="ltr">+ UserTransactionController </text><text x="0" y="168.27272727272728" font-family="Cascadia, Segoe UI Emoji" font-size="77.68078342422373px" fill="#000000" text-anchor="start" style="white-space: pre;" direction="ltr">(Relation &lt;Transaction&gt; relation,</text><text x="0" y="261.90909090909093" font-family="Cascadia, Segoe UI Emoji" font-size="77.68078342422373px" fill="#000000" text-anchor="start" style="white-space: pre;" direction="ltr"> Relation &lt;User&gt; relation2, </text><text x="0" y="355.54545454545456" font-family="Cascadia, Segoe UI Emoji" font-size="77.68078342422373px" fill="#000000" text-anchor="start" style="white-space: pre;" direction="ltr"> Relation &lt;RefundRequests&gt; relation3,</text><text x="0" y="449.1818181818182" font-family="Cascadia, Segoe UI Emoji" font-size="77.68078342422373px" fill="#000000" text-anchor="start" style="white-space: pre;" direction="ltr"> Relation &lt;Services&gt; relation4)</text><text x="0" y="542.8181818181819" font-family="Cascadia, Segoe UI Emoji" font-size="77.68078342422373px" fill="#000000" text-anchor="start" style="white-space: pre;" direction="ltr"></text><text x="0" y="636.4545454545455" font-family="Cascadia, Segoe UI Emoji" font-size="77.68078342422373px" fill="#000000" text-anchor="start" style="white-space: pre;" direction="ltr">+ RechargeService (int amount,string serviceName)</text><text x="0" y="730.0909090909091" font-family="Cascadia, Segoe UI Emoji" font-size="77.68078342422373px" fill="#000000" text-anchor="start" style="white-space: pre;" direction="ltr">+ RefundRequest (double amount,string ServiceName)</text><text x="0" y="823.7272727272727" font-family="Cascadia, Segoe UI Emoji" font-size="77.68078342422373px" fill="#000000" text-anchor="start" style="white-space: pre;" direction="ltr">+ ChargeWallet (int amount,string creditCard)</text><text x="0" y="917.3636363636364" font-family="Cascadia, Segoe UI Emoji" font-size="77.68078342422373px" fill="#000000" text-anchor="start" style="white-space: pre;" direction="ltr">+ Arraylist&lt;Services&gt; searchService(string serviceName)</text><text x="0" y="1011" font-family="Cascadia, Segoe UI Emoji" font-size="77.68078342422373px" fill="#000000" text-anchor="start" style="white-space: pre;" direction="ltr">+ void PrintTransactionHistory ()</text></g><g stroke-linecap="round" transform="translate(2030.3919848500782 6279.758788818606) rotate(0 1252.317182068303 745)"><path d="M0.64 0.62 C688.12 -2.36, 1375.85 -3.04, 2504.34 -0.6 M-0.33 0.39 C656.2 -8.89, 1312 -9.39, 2505 0.16 M2505.27 0.45 C2509.91 525.79, 2509.28 1049.54, 2504.94 1489.24 M2504.57 0.07 C2504.1 564.29, 2503.71 1129.18, 2504.64 1490.12 M2503.96 1489.45 C1673.72 1494.83, 843.8 1494.5, 0.66 1489.54 M2504.44 1490.14 C1718.31 1499.45, 932.17 1499.91, -0.3 1490.35 M-0.46 1490.15 C-0.82 1060.69, -0.1 632.89, -0.29 0.27 M0.31 1490.31 C0.06 1017.57, 0.35 545.5, 0.15 -0.28" stroke="#000000" stroke-width="1" fill="none"></path></g><g transform="translate(2141.225318183414 6367.570019003913) rotate(0 583.5 228)"><text x="0" y="73.2" font-family="Cascadia, Segoe UI Emoji" font-size="76.52642982688792px" fill="#000000" text-anchor="start" style="white-space: pre;" direction="ltr">authController</text><text x="0" y="164.4" font-family="Cascadia, Segoe UI Emoji" font-size="76.52642982688792px" fill="#000000" text-anchor="start" style="white-space: pre;" direction="ltr"></text><text x="0" y="255.60000000000002" font-family="Cascadia, Segoe UI Emoji" font-size="76.52642982688792px" fill="#000000" text-anchor="start" style="white-space: pre;" direction="ltr">- Relation &lt;User&gt; relation</text><text x="0" y="346.8" font-family="Cascadia, Segoe UI Emoji" font-size="76.52642982688792px" fill="#000000" text-anchor="start" style="white-space: pre;" direction="ltr"></text><text x="0" y="438" font-family="Cascadia, Segoe UI Emoji" font-size="76.52642982688792px" fill="#000000" text-anchor="start" style="white-space: pre;" direction="ltr"></text></g><g transform="translate(2756.933651516748 6409.758788818604) rotate(0 0.00005000000010113581 0.00005000000010113581)" stroke="none"><path fill="#000000" d="M 1.57,-1.57 Q 1.57,-1.57 1.77,-1.27 1.98,-0.98 2.09,-0.64 2.20,-0.29 2.19,0.05 2.18,0.41 2.05,0.75 1.93,1.09 1.70,1.37 1.48,1.65 1.18,1.84 0.87,2.04 0.52,2.12 0.18,2.21 -0.17,2.18 -0.53,2.15 -0.86,2.01 -1.19,1.87 -1.46,1.63 -1.73,1.39 -1.90,1.07 -2.08,0.76 -2.15,0.41 -2.21,0.05 -2.17,-0.29 -2.12,-0.65 -1.96,-0.97 -1.80,-1.29 -1.54,-1.54 -1.29,-1.80 -0.97,-1.96 -0.65,-2.12 -0.29,-2.17 0.06,-2.21 0.41,-2.15 0.76,-2.08 1.07,-1.90 1.39,-1.73 1.63,-1.46 1.87,-1.19 2.01,-0.86 2.15,-0.53 2.18,-0.17 2.21,0.18 2.12,0.52 2.03,0.87 1.84,1.18 1.65,1.48 1.37,1.70 1.09,1.93 0.75,2.05 0.41,2.18 0.05,2.19 -0.30,2.20 -0.64,2.09 -0.98,1.98 -1.27,1.77 -1.57,1.56 -1.57,1.57 -1.57,1.57 -1.73,1.35 -1.90,1.14 -2.01,0.90 -2.12,0.66 -2.16,0.39 -2.21,0.13 -2.20,-0.13 -2.18,-0.40 -2.10,-0.65 -2.02,-0.91 -1.88,-1.14 -1.74,-1.36 -1.55,-1.55 -1.36,-1.74 -1.14,-1.88 -0.91,-2.02 -0.65,-2.10 -0.40,-2.18 -0.13,-2.20 0.13,-2.21 0.39,-2.16 0.66,-2.12 0.90,-2.01 1.14,-1.90 1.35,-1.73 1.57,-1.57 1.57,-1.57 L 1.57,-1.57 Z"></path></g><g stroke-linecap="round"><g transform="translate(2033.9873031681027 6515.966454103776) rotate(0 1252.283103744629 -3.313261944137139)"><path d="M0.57 0.6 C417.94 -0.76, 2087.89 -5.84, 2505.15 -7.22 M-0.59 -0.14 C416.58 -1.41, 2087.2 -4.79, 2504.5 -5.91" stroke="#000000" stroke-width="1" fill="none"></path></g></g><g stroke-linecap="round"><g transform="translate(2022.4856111686686 6826.516891337831) rotate(0 1261.8329449752143 -8.479391790672707)"><path d="M0.6 0.55 C421.14 -2.46, 2103.69 -14.5, 2524.22 -17.51 M-0.55 -0.2 C419.72 -3.1, 2101.93 -13.5, 2523.05 -16.2" stroke="#000000" stroke-width="1" fill="none"></path></g></g><g transform="translate(2152.6044478538724 6909.110832267659) rotate(0 1077 182.5)"><text x="0" y="73.25" font-family="Cascadia, Segoe UI Emoji" font-size="76.52642982688792px" fill="#000000" text-anchor="start" style="white-space: pre;" direction="ltr">+ authController (Relation &lt;User&gt; relation)</text><text x="0" y="164.5" font-family="Cascadia, Segoe UI Emoji" font-size="76.52642982688792px" fill="#000000" text-anchor="start" style="white-space: pre;" direction="ltr">+ boolean SignUp(string Email,string userName,</text><text x="0" y="255.75" font-family="Cascadia, Segoe UI Emoji" font-size="76.52642982688792px" fill="#000000" text-anchor="start" style="white-space: pre;" direction="ltr">string password)</text><text x="0" y="347" font-family="Cascadia, Segoe UI Emoji" font-size="76.52642982688792px" fill="#000000" text-anchor="start" style="white-space: pre;" direction="ltr">+ boolean LogIn (string Email, string password) </text></g><g stroke-linecap="round" transform="translate(1439.264782940238 3304.979513269709) rotate(0 891.9861189634541 745)"><path d="M-0.47 0.27 C588.62 4.89, 1175.92 5.09, 1783.35 0.48 M0.15 -0.06 C618.87 4.81, 1238.56 5.1, 1783.96 -0.18 M1783.94 -0.26 C1787.65 315.27, 1788.66 629.89, 1783.51 1490.65 M1783.62 0.14 C1783.9 362.04, 1784.19 724.04, 1784.32 1490.16 M1783.95 1489.66 C1359.44 1484.1, 935.29 1483.1, 0.31 1490.33 M1784.02 1490.31 C1236.82 1488.86, 689.5 1489.3, -0.3 1490.25 M0.61 1489.3 C-3.01 1189.33, -2.93 888.52, -0.43 0.33 M-0.09 1489.95 C0.21 1170.39, -0.14 850.86, -0.08 -0.1" stroke="#000000" stroke-width="1" fill="none"></path></g><g transform="translate(1493.5470611854907 3347.550037448227) rotate(0 538.5 365)"><text x="0" y="73.25" font-family="Cascadia, Segoe UI Emoji" font-size="76.52642982688792px" fill="#000000" text-anchor="start" style="white-space: pre;" direction="ltr">            User</text><text x="0" y="164.5" font-family="Cascadia, Segoe UI Emoji" font-size="76.52642982688792px" fill="#000000" text-anchor="start" style="white-space: pre;" direction="ltr"></text><text x="0" y="255.75" font-family="Cascadia, Segoe UI Emoji" font-size="76.52642982688792px" fill="#000000" text-anchor="start" style="white-space: pre;" direction="ltr">+ final String email;</text><text x="0" y="347" font-family="Cascadia, Segoe UI Emoji" font-size="76.52642982688792px" fill="#000000" text-anchor="start" style="white-space: pre;" direction="ltr">+ final String username;</text><text x="0" y="438.25" font-family="Cascadia, Segoe UI Emoji" font-size="76.52642982688792px" fill="#000000" text-anchor="start" style="white-space: pre;" direction="ltr">+ final String password;</text><text x="0" y="529.5" font-family="Cascadia, Segoe UI Emoji" font-size="76.52642982688792px" fill="#000000" text-anchor="start" style="white-space: pre;" direction="ltr">+ final boolean isAdmin;</text><text x="0" y="620.75" font-family="Cascadia, Segoe UI Emoji" font-size="76.52642982688792px" fill="#000000" text-anchor="start" style="white-space: pre;" direction="ltr">+ final double wallet;</text><text x="0" y="712" font-family="Cascadia, Segoe UI Emoji" font-size="76.52642982688792px" fill="#000000" text-anchor="start" style="white-space: pre;" direction="ltr"></text></g><g transform="translate(16383.724893876028 1487.1291331437878) rotate(0 0.00004999999964638846 0.00004999999964638846)" stroke="none"><path fill="#000000" d="M 1.57,-1.57 Q 1.57,-1.57 1.77,-1.27 1.98,-0.98 2.09,-0.64 2.20,-0.29 2.19,0.05 2.18,0.41 2.05,0.75 1.93,1.09 1.70,1.37 1.48,1.65 1.18,1.84 0.87,2.04 0.52,2.12 0.18,2.21 -0.17,2.18 -0.53,2.15 -0.86,2.01 -1.19,1.87 -1.46,1.63 -1.73,1.39 -1.90,1.07 -2.08,0.76 -2.15,0.41 -2.21,0.05 -2.17,-0.29 -2.12,-0.65 -1.96,-0.97 -1.80,-1.29 -1.54,-1.54 -1.29,-1.80 -0.97,-1.96 -0.65,-2.12 -0.29,-2.17 0.06,-2.21 0.41,-2.15 0.76,-2.08 1.07,-1.90 1.39,-1.73 1.63,-1.46 1.87,-1.19 2.01,-0.86 2.15,-0.53 2.18,-0.17 2.21,0.18 2.12,0.52 2.03,0.87 1.84,1.18 1.65,1.48 1.37,1.70 1.09,1.93 0.75,2.05 0.41,2.18 0.05,2.19 -0.30,2.20 -0.64,2.09 -0.98,1.98 -1.27,1.77 -1.57,1.56 -1.57,1.57 -1.57,1.57 -1.73,1.35 -1.90,1.14 -2.01,0.90 -2.12,0.66 -2.16,0.39 -2.21,0.13 -2.20,-0.13 -2.18,-0.40 -2.10,-0.65 -2.02,-0.91 -1.88,-1.14 -1.74,-1.36 -1.55,-1.55 -1.36,-1.74 -1.14,-1.88 -0.91,-2.02 -0.65,-2.10 -0.40,-2.18 -0.13,-2.20 0.13,-2.21 0.39,-2.16 0.66,-2.12 0.90,-2.01 1.14,-1.90 1.35,-1.73 1.57,-1.57 1.57,-1.57 L 1.57,-1.57 Z"></path></g><g stroke-linecap="round"><g transform="translate(1450.4881334473907 3486.4775608601976) rotate(0 885.1952183593703 -1.068981843970505)"><path d="M1.14 0.78 C296.27 0.49, 1475.49 -0.95, 1770.11 -1.37 M0.28 0.15 C295.34 -0.49, 1474.14 -2.28, 1769.32 -2.92" stroke="#000000" stroke-width="1" fill="none"></path></g></g><g stroke-linecap="round"><g transform="translate(1435.88241082767 4032.700439816088) rotate(0 895.2561854807541 -4.158144920279483)"><path d="M0.78 0.28 C299.18 -1.34, 1492.5 -7.37, 1790.78 -8.6 M-0.26 -0.61 C298.03 -1.6, 1492.01 -6.13, 1790.4 -7.55" stroke="#000000" stroke-width="1" fill="none"></path></g></g><g transform="translate(1494.8059850341742 4082.436236729862) rotate(0 852.5 182.5)"><text x="0" y="73.25" font-family="Cascadia, Segoe UI Emoji" font-size="76.52642982688792px" fill="#000000" text-anchor="start" style="white-space: pre;" direction="ltr">+ User (String email, String username,</text><text x="0" y="164.5" font-family="Cascadia, Segoe UI Emoji" font-size="76.52642982688792px" fill="#000000" text-anchor="start" style="white-space: pre;" direction="ltr"> String password, boolean isStaff,</text><text x="0" y="255.75" font-family="Cascadia, Segoe UI Emoji" font-size="76.52642982688792px" fill="#000000" text-anchor="start" style="white-space: pre;" direction="ltr"> double wallet)</text><text x="0" y="347" font-family="Cascadia, Segoe UI Emoji" font-size="76.52642982688792px" fill="#000000" text-anchor="start" style="white-space: pre;" direction="ltr">+ String Storify ()</text></g><g stroke-linecap="round" transform="translate(14079.960593796599 10) rotate(0 1300 756.9394201903551)"><path d="M0.09 0.27 C648.27 -3.07, 1295.14 -3.67, 2599.78 -0.21 M0.18 0.27 C892.19 -5.94, 1784.26 -6.64, 2599.83 0.35 M2600.13 0.49 C2594.38 599.02, 2594.28 1198.52, 2599.39 1514.4 M2599.82 0.04 C2605.58 401.7, 2605.36 803.81, 2600.2 1514.12 M2600.1 1514.07 C2013.14 1515.67, 1425.32 1514.81, 0.41 1513.63 M2600.18 1513.93 C1971.73 1515.11, 1344.38 1514.81, -0.03 1513.98 M0.01 1514.14 C0.54 1130.93, -0.17 749.19, -0.12 0.62 M0.31 1513.84 C4.69 1055.12, 5.15 596.56, -0.04 0.23" stroke="#000000" stroke-width="1" fill="none"></path></g><g transform="translate(14254.435810654477 52.35773423966566) rotate(0 842.5 678.5)"><text x="0" y="118.625" font-family="Virgil, Segoe UI Emoji" font-size="134.0308565759007px" fill="#000000" text-anchor="start" style="white-space: pre;" direction="ltr">Entity objects:</text><text x="0" y="288.25" font-family="Virgil, Segoe UI Emoji" font-size="134.0308565759007px" fill="#000000" text-anchor="start" style="white-space: pre;" direction="ltr">1. Users (done)</text><text x="0" y="457.875" font-family="Virgil, Segoe UI Emoji" font-size="134.0308565759007px" fill="#000000" text-anchor="start" style="white-space: pre;" direction="ltr">2. Service (done)</text><text x="0" y="627.5" font-family="Virgil, Segoe UI Emoji" font-size="134.0308565759007px" fill="#000000" text-anchor="start" style="white-space: pre;" direction="ltr">3. Transaction (done)</text><text x="0" y="797.125" font-family="Virgil, Segoe UI Emoji" font-size="134.0308565759007px" fill="#000000" text-anchor="start" style="white-space: pre;" direction="ltr">4. Providers (done)</text><text x="0" y="966.75" font-family="Virgil, Segoe UI Emoji" font-size="134.0308565759007px" fill="#000000" text-anchor="start" style="white-space: pre;" direction="ltr">5. UserDiscounts (done)</text><text x="0" y="1136.375" font-family="Virgil, Segoe UI Emoji" font-size="134.0308565759007px" fill="#000000" text-anchor="start" style="white-space: pre;" direction="ltr">6. Discounts (done) </text><text x="0" y="1306" font-family="Virgil, Segoe UI Emoji" font-size="134.0308565759007px" fill="#000000" text-anchor="start" style="white-space: pre;" direction="ltr">7. RefundRequests (done)</text></g><g stroke-linecap="round" transform="translate(4052.0277027526645 3384.748981213017) rotate(0 656.8590860689021 398.6889072428139)"><path d="M-0.77 -0.08 C433.27 -4.66, 865.81 -4.08, 1313.18 0.65 M0.21 -0.26 C511.88 4.51, 1023.57 4.14, 1313.84 -0.31 M1313.89 -0.68 C1312.41 299.16, 1311.88 598.92, 1313.28 797.35 M1313.54 0.11 C1316.26 251.13, 1316.28 502.23, 1313.47 797.28 M1313.22 797.57 C975.51 800.48, 635.97 801.14, -0.59 797.16 M1313.93 797.23 C1000.57 796.94, 687 796.18, 0.09 797.45 M0.09 797.41 C3.03 524.1, 2.65 251.46, -0.22 0.5 M0.4 797.55 C1.42 561.23, 1.25 324.62, -0.14 0.06" stroke="#000000" stroke-width="1" fill="none"></path></g><g transform="translate(4084.4377570794404 3438.2556173507746) rotate(0 449 182.5)"><text x="0" y="73.25" font-family="Cascadia, Segoe UI Emoji" font-size="76.52642982688792px" fill="#000000" text-anchor="start" style="white-space: pre;" direction="ltr">            Service</text><text x="0" y="164.5" font-family="Cascadia, Segoe UI Emoji" font-size="76.52642982688792px" fill="#000000" text-anchor="start" style="white-space: pre;" direction="ltr"></text><text x="0" y="255.75" font-family="Cascadia, Segoe UI Emoji" font-size="76.52642982688792px" fill="#000000" text-anchor="start" style="white-space: pre;" direction="ltr">+ final String name;</text><text x="0" y="347" font-family="Cascadia, Segoe UI Emoji" font-size="76.52642982688792px" fill="#000000" text-anchor="start" style="white-space: pre;" direction="ltr"></text></g><g stroke-linecap="round"><g transform="translate(4052.315080360787 3573.5378164630692) rotate(0 654.4086870086134 -1.5075167842414885)"><path d="M-0.12 0.18 C218.11 -0.16, 1091.89 -2.62, 1310.47 -3.19 M-1.65 -0.77 C216.33 -0.87, 1090.72 -1.78, 1309.49 -2.05" stroke="#000000" stroke-width="1" fill="none"></path></g></g><g stroke-linecap="round"><g transform="translate(4055.9358401792397 3828.1300233977545) rotate(0 652.6262458348243 -6.11347164914514)"><path d="M0.18 -0.05 C217.72 -1.77, 1086.8 -8.77, 1304.12 -10.49 M-1.19 -1.12 C216.85 -3.17, 1088.49 -10.34, 1306.44 -12.18" stroke="#000000" stroke-width="1" fill="none"></path></g></g><g transform="translate(4082.0510785080314 3896.0929980507444) rotate(0 516 91)"><text x="0" y="74" font-family="Cascadia, Segoe UI Emoji" font-size="76.52642982688792px" fill="#000000" text-anchor="start" style="white-space: pre;" direction="ltr">+ Service (String name)</text><text x="0" y="165" font-family="Cascadia, Segoe UI Emoji" font-size="76.52642982688792px" fill="#000000" text-anchor="start" style="white-space: pre;" direction="ltr">+ String storify ()</text></g><g stroke-linecap="round" transform="translate(6255.579187689595 3388.2948767996404) rotate(0 891.9861189634541 745)"><path d="M-0.35 -0.19 C497.08 4.68, 993.09 4.17, 1784.76 0.23 M0.1 0.03 C512.05 -6.27, 1024.24 -6.05, 1784.16 0 M1784.73 -0.68 C1789.14 321.58, 1788.87 643.35, 1784.04 1490.72 M1783.64 -0.1 C1779.99 415.99, 1780.25 832.62, 1784.17 1490.15 M1784.02 1489.25 C1326.43 1486.75, 868.47 1487.19, 0.04 1489.95 M1783.73 1490.31 C1268.29 1487.61, 752.9 1487.52, -0.38 1489.81 M0.69 1489.65 C3.86 1136.04, 3.92 783.53, 0.44 0.73 M-0.04 1489.65 C-0.32 902.81, -0.32 315.82, 0.04 0.13" stroke="#000000" stroke-width="1" fill="none"></path></g><g transform="translate(6309.861465934848 3430.8654009781585) rotate(0 718 319)"><text x="0" y="74.14285714285714" font-family="Cascadia, Segoe UI Emoji" font-size="76.52642982688792px" fill="#000000" text-anchor="start" style="white-space: pre;" direction="ltr">            Transaction</text><text x="0" y="165.28571428571428" font-family="Cascadia, Segoe UI Emoji" font-size="76.52642982688792px" fill="#000000" text-anchor="start" style="white-space: pre;" direction="ltr"></text><text x="0" y="256.42857142857144" font-family="Cascadia, Segoe UI Emoji" font-size="76.52642982688792px" fill="#000000" text-anchor="start" style="white-space: pre;" direction="ltr">+ final String email;</text><text x="0" y="347.57142857142856" font-family="Cascadia, Segoe UI Emoji" font-size="76.52642982688792px" fill="#000000" text-anchor="start" style="white-space: pre;" direction="ltr">+ final LocalDateTime timestamp;</text><text x="0" y="438.71428571428567" font-family="Cascadia, Segoe UI Emoji" font-size="76.52642982688792px" fill="#000000" text-anchor="start" style="white-space: pre;" direction="ltr">+ final double amount;</text><text x="0" y="529.8571428571429" font-family="Cascadia, Segoe UI Emoji" font-size="76.52642982688792px" fill="#000000" text-anchor="start" style="white-space: pre;" direction="ltr">+ final TransactionType type;</text><text x="0" y="621" font-family="Cascadia, Segoe UI Emoji" font-size="76.52642982688792px" fill="#000000" text-anchor="start" style="white-space: pre;" direction="ltr"></text></g><g stroke-linecap="round"><g transform="translate(6266.802538196747 3569.792924390129) rotate(0 884.6942623734508 -1.347463764927852)"><path d="M-0.29 1.07 C294.79 0.84, 1474.81 -1.53, 1769.68 -1.92 M1.76 0.59 C296.74 0.04, 1473.72 -3.17, 1768.65 -3.77" stroke="#000000" stroke-width="1" fill="none"></path></g></g><g stroke-linecap="round"><g transform="translate(6252.196815577026 4116.015803346019) rotate(0 895.1979550627871 -4.364605205466432)"><path d="M1.07 -0.15 C299.53 -1.53, 1491.92 -7.38, 1790.22 -8.58 M0.17 -1.28 C298.56 -2.51, 1491.13 -6.15, 1789.55 -7.52" stroke="#000000" stroke-width="1" fill="none"></path></g></g><g transform="translate(6311.120389783531 4165.751600259793) rotate(0 807.5 182.5)"><text x="0" y="73.25" font-family="Cascadia, Segoe UI Emoji" font-size="76.52642982688792px" fill="#000000" text-anchor="start" style="white-space: pre;" direction="ltr">+ Transaction (String email, </text><text x="0" y="164.5" font-family="Cascadia, Segoe UI Emoji" font-size="76.52642982688792px" fill="#000000" text-anchor="start" style="white-space: pre;" direction="ltr">LocalDateTime timestamp, </text><text x="0" y="255.75" font-family="Cascadia, Segoe UI Emoji" font-size="76.52642982688792px" fill="#000000" text-anchor="start" style="white-space: pre;" direction="ltr">double amount, TransactionType type)</text><text x="0" y="347" font-family="Cascadia, Segoe UI Emoji" font-size="76.52642982688792px" fill="#000000" text-anchor="start" style="white-space: pre;" direction="ltr">+ String Storify ()</text></g><g stroke-linecap="round" transform="translate(8794.904156208559 3463.7133014805167) rotate(0 891.9861189634544 745)"><path d="M-0.73 -0.56 C473.43 -4.76, 945.43 -4.46, 1784.46 0.25 M-0.12 -0.37 C417.48 6.68, 833.98 7.27, 1783.76 -0.37 M1783.25 0.47 C1787.06 544.38, 1787.83 1090.47, 1783.83 1489.33 M1783.86 0.13 C1785.77 552.75, 1785.45 1106.29, 1783.68 1489.73 M1784.1 1490.37 C1278.06 1488.63, 774.03 1488.9, -0.25 1490.54 M1784.08 1489.75 C1425.93 1486.93, 1068.75 1486.73, 0.28 1490.14 M0.18 1490.32 C4.58 1152.98, 3.58 814.19, 0.68 -0.31 M-0.08 1490.33 C3.87 1170.97, 4.24 851.78, -0.05 0.07" stroke="#000000" stroke-width="1" fill="none"></path></g><g transform="translate(8849.186434453812 3506.283825659035) rotate(0 852.5 319)"><text x="0" y="74.14285714285714" font-family="Cascadia, Segoe UI Emoji" font-size="76.52642982688792px" fill="#000000" text-anchor="start" style="white-space: pre;" direction="ltr">            Provider</text><text x="0" y="165.28571428571428" font-family="Cascadia, Segoe UI Emoji" font-size="76.52642982688792px" fill="#000000" text-anchor="start" style="white-space: pre;" direction="ltr"></text><text x="0" y="256.42857142857144" font-family="Cascadia, Segoe UI Emoji" font-size="76.52642982688792px" fill="#000000" text-anchor="start" style="white-space: pre;" direction="ltr">+ final String serviceName;</text><text x="0" y="347.57142857142856" font-family="Cascadia, Segoe UI Emoji" font-size="76.52642982688792px" fill="#000000" text-anchor="start" style="white-space: pre;" direction="ltr">+ final String name;</text><text x="0" y="438.71428571428567" font-family="Cascadia, Segoe UI Emoji" font-size="76.52642982688792px" fill="#000000" text-anchor="start" style="white-space: pre;" direction="ltr">+ final ProviderSocketName socketName;</text><text x="0" y="529.8571428571429" font-family="Cascadia, Segoe UI Emoji" font-size="76.52642982688792px" fill="#000000" text-anchor="start" style="white-space: pre;" direction="ltr">+ final boolean cashOnDelivery;</text><text x="0" y="621" font-family="Cascadia, Segoe UI Emoji" font-size="76.52642982688792px" fill="#000000" text-anchor="start" style="white-space: pre;" direction="ltr"></text></g><g stroke-linecap="round"><g transform="translate(8806.127506715711 3645.2113490710053) rotate(0 884.7908357113633 -0.7341739215162306)"><path d="M-0.84 1.04 C294.08 0.81, 1475.14 -2.05, 1770.42 -2.51 M0.92 0.54 C295.66 0.6, 1474.83 -0.3, 1769.79 -1" stroke="#000000" stroke-width="1" fill="none"></path></g></g><g stroke-linecap="round"><g transform="translate(8791.521784095992 4191.434228026896) rotate(0 894.8819184698043 -3.798260738274621)"><path d="M1.04 0.59 C299.5 -0.37, 1491.41 -5.3, 1789.64 -6.62 M0.13 -0.14 C298.52 -1.34, 1490.34 -6.64, 1788.66 -8.19" stroke="#000000" stroke-width="1" fill="none"></path></g></g><g transform="translate(8850.445358302495 4241.1700249406695) rotate(0 718 228)"><text x="0" y="73.2" font-family="Cascadia, Segoe UI Emoji" font-size="76.52642982688792px" fill="#000000" text-anchor="start" style="white-space: pre;" direction="ltr">+ Provider (String serviceName, </text><text x="0" y="164.4" font-family="Cascadia, Segoe UI Emoji" font-size="76.52642982688792px" fill="#000000" text-anchor="start" style="white-space: pre;" direction="ltr">String providerName, </text><text x="0" y="255.60000000000002" font-family="Cascadia, Segoe UI Emoji" font-size="76.52642982688792px" fill="#000000" text-anchor="start" style="white-space: pre;" direction="ltr">ProviderSocketName socketName, </text><text x="0" y="346.8" font-family="Cascadia, Segoe UI Emoji" font-size="76.52642982688792px" fill="#000000" text-anchor="start" style="white-space: pre;" direction="ltr">boolean cashOnDelivery)</text><text x="0" y="438" font-family="Cascadia, Segoe UI Emoji" font-size="76.52642982688792px" fill="#000000" text-anchor="start" style="white-space: pre;" direction="ltr">+ String Storify ()</text></g><g stroke-linecap="round" transform="translate(11234.68302904554 3522.422727444002) rotate(0 891.9861189634544 508.05030495560914)"><path d="M-0.36 0.61 C531.76 -5.79, 1061.52 -4.99, 1783.6 0.65 M0.11 -0.17 C702.89 2.13, 1406.16 2.43, 1783.66 -0.32 M1784.52 0.75 C1785.2 257.31, 1784.73 514.66, 1783.78 1015.46 M1784.24 -0.38 C1783.3 239.75, 1782.86 479.47, 1783.71 1015.88 M1783.55 1016.3 C1205.34 1014.95, 625.29 1015.53, 0.24 1015.69 M1783.62 1016.08 C1224.16 1021.37, 664.82 1021.52, -0.13 1016.2 M0.7 1015.82 C-1.41 702.01, -2.45 388.2, -0.08 -0.1 M0.21 1015.86 C0.29 659.36, -0.05 303.4, 0.01 -0.07" stroke="#000000" stroke-width="1" fill="none"></path></g><g transform="translate(11288.965307290793 3564.99325162252) rotate(0 561.5 228)"><text x="0" y="73.2" font-family="Cascadia, Segoe UI Emoji" font-size="76.52642982688792px" fill="#000000" text-anchor="start" style="white-space: pre;" direction="ltr">            UserDiscounts</text><text x="0" y="164.4" font-family="Cascadia, Segoe UI Emoji" font-size="76.52642982688792px" fill="#000000" text-anchor="start" style="white-space: pre;" direction="ltr"></text><text x="0" y="255.60000000000002" font-family="Cascadia, Segoe UI Emoji" font-size="76.52642982688792px" fill="#000000" text-anchor="start" style="white-space: pre;" direction="ltr">+ final String email;</text><text x="0" y="346.8" font-family="Cascadia, Segoe UI Emoji" font-size="76.52642982688792px" fill="#000000" text-anchor="start" style="white-space: pre;" direction="ltr">+ final int discountId;</text><text x="0" y="438" font-family="Cascadia, Segoe UI Emoji" font-size="76.52642982688792px" fill="#000000" text-anchor="start" style="white-space: pre;" direction="ltr">+ final boolean isActive;</text></g><g stroke-linecap="round"><g transform="translate(11245.906379552693 3703.9207750344904) rotate(0 884.6620359714225 -1.3032747931983977)"><path d="M0.92 0.95 C295.66 0.45, 1474.44 -2.9, 1769.38 -3.56 M-0.06 0.4 C294.41 0.06, 1473.15 -2.2, 1768.2 -2.6" stroke="#000000" stroke-width="1" fill="none"></path></g></g><g stroke-linecap="round"><g transform="translate(11234.945981232648 4115.264568999224) rotate(0 895.3553268349656 -4.543408341093709)"><path d="M0.95 -0.45 C299.14 -1.75, 1490.56 -5.87, 1788.59 -6.91 M-0.01 -1.73 C298.58 -3.46, 1492.71 -7.5, 1790.72 -8.64" stroke="#000000" stroke-width="1" fill="none"></path></g></g><g transform="translate(11301.16048215892 4175.936477872236) rotate(0 740.5 137)"><text x="0" y="73.33333333333333" font-family="Cascadia, Segoe UI Emoji" font-size="76.52642982688792px" fill="#000000" text-anchor="start" style="white-space: pre;" direction="ltr">+ UserDiscount (String email, </text><text x="0" y="164.66666666666666" font-family="Cascadia, Segoe UI Emoji" font-size="76.52642982688792px" fill="#000000" text-anchor="start" style="white-space: pre;" direction="ltr">int discountId, boolean isActive)</text><text x="0" y="256" font-family="Cascadia, Segoe UI Emoji" font-size="76.52642982688792px" fill="#000000" text-anchor="start" style="white-space: pre;" direction="ltr">+ String Storify ()</text></g><g stroke-linecap="round" transform="translate(13819.171209237904 3501.840702856156) rotate(0 1001.3475166762491 508.05030495560914)"><path d="M0.31 -0.4 C587.74 -6.54, 1175.79 -5.11, 2002.4 0.06 M0.3 0.14 C578.39 -2.98, 1156.64 -3.04, 2002.43 -0.39 M2002.4 0.66 C2000.3 318.02, 2001.15 635.19, 2003.04 1016.02 M2002.3 0.04 C2003.31 403.42, 2003.7 807.67, 2002.41 1016.3 M2003.13 1015.79 C1498.37 1016.89, 993.01 1016.87, 0.21 1016.58 M2002.44 1015.72 C1311.02 1024.14, 620.03 1023.86, -0.38 1016.27 M0.44 1016.09 C-3.08 673.19, -3 328.43, 0.38 0.3 M0.07 1016 C0.61 742.35, 0.89 468.31, -0.23 -0.01" stroke="#000000" stroke-width="1" fill="none"></path></g><g transform="translate(13873.453487483157 3544.411227034674) rotate(0 606 273.5)"><text x="0" y="74.16666666666667" font-family="Cascadia, Segoe UI Emoji" font-size="76.52642982688792px" fill="#000000" text-anchor="start" style="white-space: pre;" direction="ltr">            Discount</text><text x="0" y="165.33333333333334" font-family="Cascadia, Segoe UI Emoji" font-size="76.52642982688792px" fill="#000000" text-anchor="start" style="white-space: pre;" direction="ltr"></text><text x="0" y="256.5" font-family="Cascadia, Segoe UI Emoji" font-size="76.52642982688792px" fill="#000000" text-anchor="start" style="white-space: pre;" direction="ltr">+ final int id;</text><text x="0" y="347.6666666666667" font-family="Cascadia, Segoe UI Emoji" font-size="76.52642982688792px" fill="#000000" text-anchor="start" style="white-space: pre;" direction="ltr">+ final DiscountType type;</text><text x="0" y="438.83333333333337" font-family="Cascadia, Segoe UI Emoji" font-size="76.52642982688792px" fill="#000000" text-anchor="start" style="white-space: pre;" direction="ltr">+ final String serviceName;</text><text x="0" y="530" font-family="Cascadia, Segoe UI Emoji" font-size="76.52642982688792px" fill="#000000" text-anchor="start" style="white-space: pre;" direction="ltr">+ final double percentage;</text></g><g stroke-linecap="round"><g transform="translate(13830.394559745057 3683.3387504466446) rotate(0 989.1179472042286 -3.9405132475130813)"><path d="M-0.61 -0.1 C328.69 -1.14, 1646.74 -4.74, 1976.64 -5.81 M1.28 -1.19 C330.86 -2.66, 1649.28 -7.07, 1978.84 -7.78" stroke="#000000" stroke-width="1" fill="none"></path></g></g><g stroke-linecap="round"><g transform="translate(13808.497910405567 4131.136343648977) rotate(0 1009.014864490242 -3.442557248853518)"><path d="M-0.1 -0.98 C336.43 -1.96, 1683.14 -5.4, 2019.64 -6.5 M-1.61 1.13 C334.75 -0.11, 1682.25 -6.79, 2018.84 -8.01" stroke="#000000" stroke-width="1" fill="none"></path></g></g><g transform="translate(13885.648662351288 4155.35445328439) rotate(0 852.5 137)"><text x="0" y="73.33333333333333" font-family="Cascadia, Segoe UI Emoji" font-size="76.52642982688792px" fill="#000000" text-anchor="start" style="white-space: pre;" direction="ltr">+ Discount (int id, DiscountType type,</text><text x="0" y="164.66666666666666" font-family="Cascadia, Segoe UI Emoji" font-size="76.52642982688792px" fill="#000000" text-anchor="start" style="white-space: pre;" direction="ltr">String serviceName, double percentage)</text><text x="0" y="256" font-family="Cascadia, Segoe UI Emoji" font-size="76.52642982688792px" fill="#000000" text-anchor="start" style="white-space: pre;" direction="ltr">+ String Storify ()</text></g><g stroke-linecap="round" transform="translate(16676.510632324105 3531.1316821161327) rotate(0 891.9861189634539 595.5394092198258)"><path d="M0.01 -0.13 C516.92 5.37, 1035.27 4.72, 1783.56 -0.53 M0.29 -0.06 C442.26 -0.96, 884.69 -0.98, 1784.13 0.07 M1784.49 0.38 C1786.4 352.9, 1785.93 704.62, 1784.56 1191.35 M1784.01 -0.35 C1779.3 448.5, 1779.4 896.79, 1784.31 1191.33 M1784.17 1191.06 C1209.38 1186.77, 634.37 1188.07, -0.41 1191.41 M1784.13 1191.31 C1124.29 1197.31, 464.06 1196.88, -0.35 1191.23 M0.24 1191.77 C-3.67 881.38, -3.39 571.5, -0.41 -0.18 M-0.09 1190.9 C-4.15 928.47, -4.41 665.7, -0.24 -0.05" stroke="#000000" stroke-width="1" fill="none"></path></g><g transform="translate(16730.792910569362 3573.7022062946508) rotate(0 785.5 273.5)"><text x="0" y="74.16666666666667" font-family="Cascadia, Segoe UI Emoji" font-size="76.52642982688792px" fill="#000000" text-anchor="start" style="white-space: pre;" direction="ltr">            RefundRequests</text><text x="0" y="165.33333333333334" font-family="Cascadia, Segoe UI Emoji" font-size="76.52642982688792px" fill="#000000" text-anchor="start" style="white-space: pre;" direction="ltr"></text><text x="0" y="256.5" font-family="Cascadia, Segoe UI Emoji" font-size="76.52642982688792px" fill="#000000" text-anchor="start" style="white-space: pre;" direction="ltr">+ final int id;</text><text x="0" y="347.6666666666667" font-family="Cascadia, Segoe UI Emoji" font-size="76.52642982688792px" fill="#000000" text-anchor="start" style="white-space: pre;" direction="ltr">+ final double amount;</text><text x="0" y="438.83333333333337" font-family="Cascadia, Segoe UI Emoji" font-size="76.52642982688792px" fill="#000000" text-anchor="start" style="white-space: pre;" direction="ltr">+ final String serviceName;</text><text x="0" y="530" font-family="Cascadia, Segoe UI Emoji" font-size="76.52642982688792px" fill="#000000" text-anchor="start" style="white-space: pre;" direction="ltr">+ final RefundRequestStatus status;</text></g><g stroke-linecap="round"><g transform="translate(16687.733982831258 3712.629729706621) rotate(0 884.0778494493188 -0.5332459241826655)"><path d="M-0.2 -0.53 C294.93 -0.75, 1475.07 -0.92, 1769.92 -1.34 M-1.77 1.81 C293.3 1.28, 1473.5 -2.23, 1769.02 -2.88" stroke="#000000" stroke-width="1" fill="none"></path></g></g><g stroke-linecap="round"><g transform="translate(16673.12826021154 4258.852608662512) rotate(0 895.1390496212261 -4.2315193496251595)"><path d="M-0.53 0.09 C297.94 -1.3, 1492.54 -7.13, 1790.8 -8.56 M1.4 -0.9 C299.8 -2.15, 1492.68 -6.38, 1790.44 -7.48" stroke="#000000" stroke-width="1" fill="none"></path></g></g><g transform="translate(16732.051834418045 4308.588405576285) rotate(0 718 182.5)"><text x="0" y="73.25" font-family="Cascadia, Segoe UI Emoji" font-size="76.52642982688792px" fill="#000000" text-anchor="start" style="white-space: pre;" direction="ltr">+ RefundRequest (int id, double </text><text x="0" y="164.5" font-family="Cascadia, Segoe UI Emoji" font-size="76.52642982688792px" fill="#000000" text-anchor="start" style="white-space: pre;" direction="ltr">amount, String serviceName, </text><text x="0" y="255.75" font-family="Cascadia, Segoe UI Emoji" font-size="76.52642982688792px" fill="#000000" text-anchor="start" style="white-space: pre;" direction="ltr">RefundRequestStatus status)</text><text x="0" y="347" font-family="Cascadia, Segoe UI Emoji" font-size="76.52642982688792px" fill="#000000" text-anchor="start" style="white-space: pre;" direction="ltr">+ String Storify ()</text></g><g stroke-linecap="round" transform="translate(10501.11253548458 1386.9971657286242) rotate(0 656.8590860689019 212.77451722504065)"><path d="M0.63 0.69 C292.86 -4.04, 587.35 -4.97, 1313.12 0.12 M0.27 -0.35 C362.76 -3.9, 725.21 -4.14, 1313.51 -0.11 M1313.42 -0.55 C1313.77 137.33, 1313.55 275.05, 1314.17 425.8 M1313.67 -0.17 C1313.15 111.4, 1312.58 223.05, 1313.44 425.86 M1313.97 425.09 C915.14 421.47, 516.25 420.88, 0.18 426.17 M1313.75 425.16 C880.92 428.93, 447.85 428.59, 0.13 425.6 M0.46 425.2 C-1.86 266.48, -2.53 108.42, 0.95 0.28 M0.45 425.16 C-0.17 314.61, 0.02 202.33, -0.23 -0.28" stroke="#000000" stroke-width="1" fill="none"></path></g><g transform="translate(10525.522101530107 1408.50383238396) rotate(0 404 137)"><text x="0" y="73.33333333333333" font-family="Cascadia, Segoe UI Emoji" font-size="76.52642982688792px" fill="#000000" text-anchor="start" style="white-space: pre;" direction="ltr">            Entity</text><text x="0" y="164.66666666666666" font-family="Cascadia, Segoe UI Emoji" font-size="76.52642982688792px" fill="#000000" text-anchor="start" style="white-space: pre;" direction="ltr"></text><text x="0" y="256" font-family="Cascadia, Segoe UI Emoji" font-size="76.52642982688792px" fill="#000000" text-anchor="start" style="white-space: pre;" direction="ltr"></text></g><g stroke-linecap="round"><g transform="translate(10493.399424811452 1543.7860314962545) rotate(0 655.740626024859 -1.0750522417501998)"><path d="M1.04 -0.85 C219.43 -1.3, 1093.2 -1.31, 1311.35 -1.73 M0.13 1.32 C218.34 0.45, 1092.71 -2.83, 1310.84 -3.47" stroke="#000000" stroke-width="1" fill="none"></path></g></g><g transform="translate(10566.879870795648 1607.5191550608524) rotate(0 427 45.5)"><text x="0" y="74" font-family="Cascadia, Segoe UI Emoji" font-size="76.52642982688792px" fill="#000000" text-anchor="start" style="white-space: pre;" direction="ltr">+ String storify ()</text></g><g stroke-linecap="round"><g transform="translate(3100.9113851389966 3281.4755670242175) rotate(0 3688.5128416757275 -772.127020973573)"><path d="M0.41 -0.15 C1229.87 -257.5, 6147.24 -1286.71, 7376.61 -1544.1" stroke="#000000" stroke-width="1.5" fill="none" stroke-dasharray="8 9"></path></g><g transform="translate(3100.9113851389966 3281.4755670242175) rotate(0 3688.5128416757275 -772.127020973573)"><path d="M7350.87 -1529.5 C7358.82 -1534.13, 7365.45 -1537.15, 7376.23 -1542.41" stroke="#000000" stroke-width="1.5" fill="none"></path></g><g transform="translate(3100.9113851389966 3281.4755670242175) rotate(0 3688.5128416757275 -772.127020973573)"><path d="M7346.67 -1549.58 C7355.83 -1548.44, 7363.67 -1545.66, 7376.23 -1542.41" stroke="#000000" stroke-width="1.5" fill="none"></path></g></g><g stroke-linecap="round"><g transform="translate(5377.603649274586 3515.8514760052985) rotate(0 2553.7714571065535 -921.3306493793871)"><path d="M-0.64 -0.71 C850.82 -307.54, 4256.92 -1535.37, 5108.18 -1841.96" stroke="#000000" stroke-width="1.5" fill="none" stroke-dasharray="8 9"></path></g><g transform="translate(5377.603649274586 3515.8514760052985) rotate(0 2553.7714571065535 -921.3306493793871)"><path d="M5083.96 -1821.06 C5089.58 -1827.9, 5098.28 -1830.94, 5110.03 -1841.33" stroke="#000000" stroke-width="1.5" fill="none"></path></g><g transform="translate(5377.603649274586 3515.8514760052985) rotate(0 2553.7714571065535 -921.3306493793871)"><path d="M5077 -1840.36 C5084.23 -1842.29, 5094.69 -1840.45, 5110.03 -1841.33" stroke="#000000" stroke-width="1.5" fill="none"></path></g></g><g stroke-linecap="round"><g transform="translate(6566.555746002014 3396.891145793743) rotate(0 1962.993049972469 -872.8539423520906)"><path d="M-0.68 0.74 C653.93 -290.48, 3272.1 -1455.23, 3926.66 -1746.45" stroke="#000000" stroke-width="1.5" fill="none" stroke-dasharray="8 9"></path></g><g transform="translate(6566.555746002014 3396.891145793743) rotate(0 1962.993049972469 -872.8539423520906)"><path d="M3906.31 -1724.86 C3910.91 -1729.3, 3915.5 -1732.74, 3927.7 -1744.76" stroke="#000000" stroke-width="1.5" fill="none"></path></g><g transform="translate(6566.555746002014 3396.891145793743) rotate(0 1962.993049972469 -872.8539423520906)"><path d="M3897.97 -1743.61 C3904.54 -1743.86, 3910.97 -1743.17, 3927.7 -1744.76" stroke="#000000" stroke-width="1.5" fill="none"></path></g></g><g stroke-linecap="round"><g transform="translate(9038.556478423889 3428.8912678640554) rotate(0 776.7607301085882 -795.6898622319113)"><path d="M0.57 0.16 C259.52 -264.9, 1294.36 -1326.09, 1552.95 -1591.54" stroke="#000000" stroke-width="1.5" fill="none" stroke-dasharray="8 9"></path></g><g transform="translate(9038.556478423889 3428.8912678640554) rotate(0 776.7607301085882 -795.6898622319113)"><path d="M1540.88 -1562.8 C1544.59 -1570.83, 1545.87 -1577.71, 1551.78 -1593.35" stroke="#000000" stroke-width="1.5" fill="none"></path></g><g transform="translate(9038.556478423889 3428.8912678640554) rotate(0 776.7607301085882 -795.6898622319113)"><path d="M1526.19 -1577.12 C1533.26 -1581.81, 1538.04 -1585.27, 1551.78 -1593.35" stroke="#000000" stroke-width="1.5" fill="none"></path></g></g><g stroke-linecap="round"><g transform="translate(11892.968542575862 3508.8917256277273) rotate(0 -383.58360186538994 -840.1566953465344)"><path d="M0.14 -0.02 C-127.92 -280.05, -639.72 -1400.27, -767.31 -1680.3" stroke="#000000" stroke-width="1.5" fill="none" stroke-dasharray="8 9"></path></g><g transform="translate(11892.968542575862 3508.8917256277273) rotate(0 -383.58360186538994 -840.1566953465344)"><path d="M-746.3 -1660.38 C-754.93 -1665.5, -762.86 -1675.59, -767.23 -1680.01" stroke="#000000" stroke-width="1.5" fill="none"></path></g><g transform="translate(11892.968542575862 3508.8917256277273) rotate(0 -383.58360186538994 -840.1566953465344)"><path d="M-764.97 -1651.86 C-766.32 -1660.32, -766.99 -1673.72, -767.23 -1680.01" stroke="#000000" stroke-width="1.5" fill="none"></path></g></g><g stroke-linecap="round"><g transform="translate(13914.375742864104 3500.840702856154) rotate(0 -1146.2453962051113 -843.8000262404139)"><path d="M0.02 -0.47 C-382.06 -281.6, -1910.5 -1405.94, -2292.51 -1687.13" stroke="#000000" stroke-width="1.5" fill="none" stroke-dasharray="8 9"></path></g><g transform="translate(13914.375742864104 3500.840702856154) rotate(0 -1146.2453962051113 -843.8000262404139)"><path d="M-2264.5 -1680.08 C-2272.05 -1681.82, -2281.46 -1685.69, -2291.91 -1688.64" stroke="#000000" stroke-width="1.5" fill="none"></path></g><g transform="translate(13914.375742864104 3500.840702856154) rotate(0 -1146.2453962051113 -843.8000262404139)"><path d="M-2276.67 -1663.55 C-2280.53 -1670.24, -2286.29 -1679.06, -2291.91 -1688.64" stroke="#000000" stroke-width="1.5" fill="none"></path></g></g><g stroke-linecap="round"><g transform="translate(16742.554891509826 3516.891908733196) rotate(0 -2451.285421700776 -876.3673829838635)"><path d="M1.17 -0.2 C-816.14 -292.36, -4086.24 -1460.75, -4903.74 -1752.53" stroke="#000000" stroke-width="1.5" fill="none" stroke-dasharray="8 9"></path></g><g transform="translate(16742.554891509826 3516.891908733196) rotate(0 -2451.285421700776 -876.3673829838635)"><path d="M-4874.08 -1752.28 C-4883.94 -1752.12, -4890.56 -1751.18, -4905.25 -1750.83" stroke="#000000" stroke-width="1.5" fill="none"></path></g><g transform="translate(16742.554891509826 3516.891908733196) rotate(0 -2451.285421700776 -876.3673829838635)"><path d="M-4880.98 -1732.96 C-4888.76 -1738.86, -4893.24 -1743.91, -4905.25 -1750.83" stroke="#000000" stroke-width="1.5" fill="none"></path></g></g><g stroke-linecap="round" transform="translate(891.1712309336199 6090.910772373011) rotate(0.000022302651594478912 63.27352104084912 89.63767252043363)"><path d="M65.96 1.58 C78.7 22.99, 93.13 42.52, 125.26 88.18 M125.76 88.75 C103.18 124.57, 82.49 158.23, 63.55 179.72 M65.52 179.08 C39.93 146.67, 14.41 113.97, 1.72 88.61 M-1.44 91.83 C21.7 60.62, 40.34 31.92, 65.17 1.39" stroke="#000000" stroke-width="1.5" fill="none" stroke-dasharray="8 9"></path></g><g stroke-linecap="round"><g transform="translate(975.5361938427241 6112.0020131002875) rotate(0 317.2751529248792 -656.517104840234)"><path d="M0.75 -0.05 C106.36 -219.05, 528.41 -1094.02, 633.8 -1312.98" stroke="#000000" stroke-width="1.5" fill="none" stroke-dasharray="8 9"></path></g><g transform="translate(975.5361938427241 6112.0020131002875) rotate(0 317.2751529248792 -656.517104840234)"><path d="M630.72 -1281.36 C631.4 -1291.85, 630.89 -1301.45, 633.39 -1313.52" stroke="#000000" stroke-width="1.5" fill="none"></path></g><g transform="translate(975.5361938427241 6112.0020131002875) rotate(0 317.2751529248792 -656.517104840234)"><path d="M612.23 -1290.27 C618.75 -1298.09, 624.02 -1304.91, 633.39 -1313.52" stroke="#000000" stroke-width="1.5" fill="none"></path></g></g><g stroke-linecap="round" transform="translate(2325.369365018044 6075.0933475324455) rotate(0 73.81914140448725 84.364661197636)"><path d="M73.51 -1.21 C95.58 27.16, 119.66 53.03, 149.05 86.94 M145.8 83.07 C123.31 110.99, 98.7 137.98, 74.56 167.87 M75.15 168.64 C54.64 149.24, 39.16 129.39, 0.76 85.3 M-0.02 85.37 C21.73 60.56, 42.71 37.05, 75.21 1.32" stroke="#000000" stroke-width="1.5" fill="none" stroke-dasharray="8 9"></path></g><g stroke-linecap="round"><g transform="translate(2409.734327927148 6069.820637921116) rotate(0 -160.9944092990329 -630.5568826513527)"><path d="M-1.09 -0.97 C-54.73 -210.97, -267.47 -1050.19, -320.9 -1260.15" stroke="#000000" stroke-width="1.5" fill="none" stroke-dasharray="8 9"></path></g><g transform="translate(2409.734327927148 6069.820637921116) rotate(0 -160.9944092990329 -630.5568826513527)"><path d="M-305.62 -1234.11 C-310.28 -1244.85, -317.6 -1253.54, -320.91 -1262.12" stroke="#000000" stroke-width="1.5" fill="none"></path></g><g transform="translate(2409.734327927148 6069.820637921116) rotate(0 -160.9944092990329 -630.5568826513527)"><path d="M-325.51 -1229.06 C-322.67 -1241.52, -322.49 -1252.11, -320.91 -1262.12" stroke="#000000" stroke-width="1.5" fill="none"></path></g></g><g stroke-linecap="round" transform="translate(14099.538955046703 6111.136672097037) rotate(0 79.09185101581625 89.63742109421037)"><path d="M78.25 1.43 C102.27 23.2, 120.6 47.1, 158.03 91.26 M159.58 88.68 C140.81 111.34, 123.26 129.8, 78.86 178.72 M81.89 177.53 C51.43 146.84, 22.37 113.48, 0.86 89.33 M-1.19 88.48 C19.39 66.36, 42.31 45.65, 81.81 0.37" stroke="#000000" stroke-width="1.5" fill="none" stroke-dasharray="8 9"></path></g><g stroke-linecap="round" transform="translate(15881.167330590977 5531.450591562716) rotate(0 79.09185101581625 89.63742109421037)"><path d="M80.74 0.58 C110.85 36.08, 139.55 71.82, 158.89 91.88 M158.96 89.9 C129.9 125.05, 98.84 159.37, 79.33 180.8 M79.99 179.35 C58.78 156.52, 37.17 135.21, -1.89 90.58 M1.09 89.77 C29.78 57.78, 61.57 21.76, 78.99 1.85" stroke="#000000" stroke-width="1.5" fill="none" stroke-dasharray="8 9"></path></g><g stroke-linecap="round"><g transform="translate(14168.07630309879 6111.849994280144) rotate(0 79.17965106175052 -794.2158619053321)"><path d="M1.1 -0.43 C27.37 -265.26, 131.27 -1323.52, 157.26 -1588" stroke="#000000" stroke-width="1.5" fill="none" stroke-dasharray="8 9"></path></g><g transform="translate(14168.07630309879 6111.849994280144) rotate(0 79.17965106175052 -794.2158619053321)"><path d="M163.99 -1560.51 C160.75 -1568.64, 159.9 -1575.45, 158.32 -1586.38" stroke="#000000" stroke-width="1.5" fill="none"></path></g><g transform="translate(14168.07630309879 6111.849994280144) rotate(0 79.17965106175052 -794.2158619053321)"><path d="M143.57 -1562.51 C145.84 -1570.29, 150.5 -1576.56, 158.32 -1586.38" stroke="#000000" stroke-width="1.5" fill="none"></path></g></g><g stroke-linecap="round"><g transform="translate(15981.895841556732 5542.5415305785245) rotate(0 -366.18476286404893 -503.1765693406005)"><path d="M-0.32 0.19 C-122.49 -167.41, -609.93 -838.49, -732.05 -1006.55" stroke="#000000" stroke-width="1.5" fill="none" stroke-dasharray="8 9"></path></g><g transform="translate(15981.895841556732 5542.5415305785245) rotate(0 -366.18476286404893 -503.1765693406005)"><path d="M-706.86 -988.32 C-715.61 -996.42, -727.79 -1001.14, -733.72 -1006.09" stroke="#000000" stroke-width="1.5" fill="none"></path></g><g transform="translate(15981.895841556732 5542.5415305785245) rotate(0 -366.18476286404893 -503.1765693406005)"><path d="M-723.46 -976.26 C-725.78 -988.92, -731.63 -998.24, -733.72 -1006.09" stroke="#000000" stroke-width="1.5" fill="none"></path></g></g><g stroke-linecap="round" transform="translate(6538.328307301621 5922.18114826628) rotate(0 94.91038213176307 113.36506691239538)"><path d="M94.19 -1.41 C122.35 32.56, 149.31 66.84, 188.05 114.47 M189.95 115.33 C158.8 151.15, 130.79 182.77, 93.66 227.99 M95.2 224.98 C66.5 193.6, 41.7 161.89, -0.79 115.91 M-0.9 115.66 C35.04 72.05, 70.7 29.12, 93.12 0" stroke="#000000" stroke-width="1.5" fill="none" stroke-dasharray="8 9"></path></g><g stroke-linecap="round" transform="translate(8525.624582697046 5916.362818291311) rotate(0 94.91038213176307 113.36506691239538)"><path d="M96.87 -0.64 C126.81 39.76, 160.53 78.84, 188.75 114.61 M188.97 113.22 C167.91 138.77, 148.87 160.8, 95.59 225.19 M94.79 227.56 C68.1 194.23, 37.8 163.07, -0.27 112.81 M1.62 115.47 C25.61 79.4, 54.69 46.69, 96.89 1.2" stroke="#000000" stroke-width="1.5" fill="none" stroke-dasharray="8 9"></path></g><g stroke-linecap="round"><g transform="translate(6638.5113990447135 5901.090108679982) rotate(0 -2.8545603008439002 -501.5125644897571)"><path d="M0.69 -1.19 C-0.37 -168.13, -5.5 -835.17, -6.4 -1001.83" stroke="#000000" stroke-width="1.5" fill="none" stroke-dasharray="8 9"></path></g><g transform="translate(6638.5113990447135 5901.090108679982) rotate(0 -2.8545603008439002 -501.5125644897571)"><path d="M2.06 -975.59 C1.02 -981, -0.91 -991.89, -4.92 -1000.39" stroke="#000000" stroke-width="1.5" fill="none"></path></g><g transform="translate(6638.5113990447135 5901.090108679982) rotate(0 -2.8545603008439002 -501.5125644897571)"><path d="M-18.46 -975.45 C-13.46 -981.02, -9.35 -991.95, -4.92 -1000.39" stroke="#000000" stroke-width="1.5" fill="none"></path></g></g><g stroke-linecap="round" transform="translate(17996.10088309046 5537.267412980338) rotate(0 97.54653579644946 97.5466363669384)"><path d="M97.39 -1.94 C133.4 34.11, 163.81 70.38, 194.94 97.91 M196.25 99.45 C166.36 128.18, 139.14 156.17, 96.48 194.31 M99.28 194.82 C73.91 170.63, 50.04 147.23, -0.72 98.01 M1.33 97.74 C19.48 75.26, 43.51 54.43, 97.18 -1.38" stroke="#000000" stroke-width="1.5" fill="none" stroke-dasharray="8 9"></path></g><g stroke-linecap="round"><g transform="translate(18075.192734106276 5553.085944096283) rotate(0 -202.9543194023163 -409.06721352982186)"><path d="M0.79 -1.09 C-66.85 -137.33, -338.81 -681.2, -406.7 -817.04" stroke="#000000" stroke-width="1.5" fill="none" stroke-dasharray="8 9"></path></g><g transform="translate(18075.192734106276 5553.085944096283) rotate(0 -202.9543194023163 -409.06721352982186)"><path d="M-386.74 -797.57 C-389.63 -802.02, -393.19 -805.83, -404.87 -818.71" stroke="#000000" stroke-width="1.5" fill="none"></path></g><g transform="translate(18075.192734106276 5553.085944096283) rotate(0 -202.9543194023163 -409.06721352982186)"><path d="M-405.1 -788.4 C-403.76 -795.09, -403.07 -801.03, -404.87 -818.71" stroke="#000000" stroke-width="1.5" fill="none"></path></g></g><g stroke-linecap="round" transform="translate(11214.993359330001 6077.01175694486) rotate(0 100.18309174309297 92.27382618512001)"><path d="M100.93 -0.75 C131.44 29.9, 163.82 59.56, 201.01 93.08 M198.77 93.91 C179.33 111.5, 155.47 132.61, 102.13 185.12 M99.8 182.88 C68.8 158.24, 39.08 129.1, 0.97 94.21 M0.09 91.09 C33.28 58.86, 67.9 27.82, 99.22 -0.3" stroke="#000000" stroke-width="1.5" fill="none" stroke-dasharray="8 9"></path></g><g stroke-linecap="round"><g transform="translate(11432.533743438646 6169.28558312998) rotate(0 -606.1045146000397 -598.430777463821)"><path d="M0.84 -0.68 C-201.16 -200.01, -1010.62 -996.99, -1213.05 -1196.18" stroke="#000000" stroke-width="1.5" fill="none" stroke-dasharray="8 9"></path></g><g transform="translate(11432.533743438646 6169.28558312998) rotate(0 -606.1045146000397 -598.430777463821)"><path d="M-1186.89 -1183.47 C-1191.46 -1187.02, -1196.64 -1188.84, -1213.65 -1197.91" stroke="#000000" stroke-width="1.5" fill="none"></path></g><g transform="translate(11432.533743438646 6169.28558312998) rotate(0 -606.1045146000397 -598.430777463821)"><path d="M-1201.29 -1168.85 C-1202.8 -1175.58, -1204.94 -1180.49, -1213.65 -1197.91" stroke="#000000" stroke-width="1.5" fill="none"></path></g></g><g stroke-linecap="round" transform="translate(9405.177816941028 5922.318446356823) rotate(0 94.91038213176307 113.36506691239538)"><path d="M95.05 -0.06 C132.43 46.4, 171.8 88.71, 188.82 112.67 M188.24 113.8 C156.2 152.47, 124.55 193.03, 94.82 225.36 M95.16 224.77 C69.68 195.08, 42.18 162.33, 1.29 114.72 M0.13 112.57 C22.92 86.82, 48.86 55.15, 96.49 1.92" stroke="#000000" stroke-width="1.5" fill="none" stroke-dasharray="8 9"></path></g><g stroke-linecap="round" transform="translate(8948.156691330663 5910.185176270466) rotate(0 94.91038213176307 113.36506691239538)"><path d="M93.79 0.59 C127.82 40.32, 160.5 78.56, 188.07 115.18 M189.42 115.01 C167.5 144.69, 143.22 169.37, 95.03 225.21 M96.34 226.71 C55.9 179.5, 17.32 138.1, 0.94 112.35 M1.22 114.62 C19.07 88.52, 39.48 64.16, 93.17 0.52" stroke="#000000" stroke-width="1.5" fill="none" stroke-dasharray="8 9"></path></g><g stroke-linecap="round" transform="translate(9886.465482724114 5930.407344508696) rotate(0 94.91038213176307 113.36506691239538)"><path d="M96.96 0.68 C129.72 44.56, 167.55 84.39, 190.96 114.38 M190.59 115.87 C158.25 152.28, 125.64 189.97, 94.63 228.04 M95.67 227.88 C66.29 190.84, 37.23 156.93, -0.83 115.77 M-1.44 113.43 C25.57 86.02, 48.47 57.52, 96.76 0.1" stroke="#000000" stroke-width="1.5" fill="none" stroke-dasharray="8 9"></path></g><g stroke-linecap="round"><g transform="translate(8559.037279482984 5982.3889178933205) rotate(0 -2714.5456672684336 -592.7752825956277)"><path d="M1.15 -0.03 C-903.93 -197.76, -4524.38 -988.08, -5429.35 -1185.52 M0.3 -1.09 C-905.03 -198.79, -4525.36 -987.53, -5430.24 -1184.6" stroke="#000000" stroke-width="1" fill="none"></path></g><g transform="translate(8559.037279482984 5982.3889178933205) rotate(0 -2714.5456672684336 -592.7752825956277)"><path d="M-5400.57 -1188.46 C-5414.17 -1185.4, -5424.46 -1185.08, -5431.86 -1184.23 M-5399.73 -1189.08 C-5408.61 -1186.57, -5416.72 -1185.53, -5430.47 -1184.04" stroke="#000000" stroke-width="1" fill="none"></path></g><g transform="translate(8559.037279482984 5982.3889178933205) rotate(0 -2714.5456672684336 -592.7752825956277)"><path d="M-5404.94 -1168.41 C-5416.95 -1173.3, -5425.52 -1180.89, -5431.86 -1184.23 M-5404.1 -1169.03 C-5411.63 -1172.27, -5418.49 -1177, -5430.47 -1184.04" stroke="#000000" stroke-width="1" fill="none"></path></g></g><g stroke-linecap="round"><g transform="translate(9001.384737287874 5939.581020380647) rotate(0 -562.6975783099513 -521.5594252201163)"><path d="M1.17 -0.5 C-186.67 -174.08, -938.26 -869.12, -1126.19 -1042.62 M0.33 -1.81 C-187.66 -175.17, -938.73 -868.54, -1126.57 -1041.59" stroke="#000000" stroke-width="1" fill="none"></path></g><g transform="translate(9001.384737287874 5939.581020380647) rotate(0 -562.6975783099513 -521.5594252201163)"><path d="M-1099.72 -1028.21 C-1110.72 -1032.62, -1119.17 -1039.74, -1126.93 -1040.52 M-1098.67 -1029.73 C-1109.61 -1033.97, -1118.43 -1039.05, -1126.5 -1040.62" stroke="#000000" stroke-width="1" fill="none"></path></g><g transform="translate(9001.384737287874 5939.581020380647) rotate(0 -562.6975783099513 -521.5594252201163)"><path d="M-1113.64 -1013.13 C-1119.3 -1023.31, -1122.56 -1036.05, -1126.93 -1040.52 M-1112.59 -1014.65 C-1118.39 -1024.29, -1122.16 -1034.84, -1126.5 -1040.62" stroke="#000000" stroke-width="1" fill="none"></path></g></g><g stroke-linecap="round"><g transform="translate(9465.135191274245 5939.581020380647) rotate(0 -2593.0770782096956 -862.9198972275908)"><path d="M1.13 -0.53 C-863.31 -288.28, -4321.97 -1440.12, -5186.52 -1727.64 M0.27 1.8 C-864.31 -285.73, -4322.82 -1438.44, -5187.29 -1726.66" stroke="#000000" stroke-width="1" fill="none"></path></g><g transform="translate(9465.135191274245 5939.581020380647) rotate(0 -2593.0770782096956 -862.9198972275908)"><path d="M-5158.19 -1726.9 C-5168.38 -1725.76, -5174.4 -1725.24, -5188.83 -1727.11 M-5156.88 -1728.11 C-5162.96 -1726.62, -5170.85 -1726.53, -5186.58 -1727.48" stroke="#000000" stroke-width="1" fill="none"></path></g><g transform="translate(9465.135191274245 5939.581020380647) rotate(0 -2593.0770782096956 -862.9198972275908)"><path d="M-5164.68 -1707.43 C-5172.67 -1712.4, -5176.67 -1717.92, -5188.83 -1727.11 M-5163.37 -1708.64 C-5168.18 -1711.37, -5174.65 -1715.54, -5186.58 -1727.48" stroke="#000000" stroke-width="1" fill="none"></path></g></g><g stroke-linecap="round"><g transform="translate(10071.578092641039 6003.793274896016) rotate(0 3295.788847105818 -646.4233356519517)"><path d="M-0.04 -0.35 C1098.67 -215.76, 5494.41 -1077.13, 6593.1 -1292.49 M-1.52 -1.58 C1097.03 -216.89, 5493.73 -1076.51, 6592.53 -1291.55" stroke="#000000" stroke-width="1" fill="none"></path></g><g transform="translate(10071.578092641039 6003.793274896016) rotate(0 3295.788847105818 -646.4233356519517)"><path d="M6566.24 -1274.88 C6574.38 -1282.16, 6583.78 -1287.96, 6592.25 -1292.96 M6567.61 -1275.99 C6571.98 -1278.95, 6577.4 -1281.66, 6591.87 -1291.27" stroke="#000000" stroke-width="1" fill="none"></path></g><g transform="translate(10071.578092641039 6003.793274896016) rotate(0 3295.788847105818 -646.4233356519517)"><path d="M6562.3 -1295.02 C6571.88 -1294.92, 6582.73 -1293.32, 6592.25 -1292.96 M6563.67 -1296.13 C6568.83 -1294.83, 6575.09 -1293.28, 6591.87 -1291.27" stroke="#000000" stroke-width="1" fill="none"></path></g></g></svg>